%TF.GenerationSoftware,KiCad,Pcbnew,9.0.7*%
%TF.CreationDate,2026-07-03T11:58:35-05:00*%
%TF.ProjectId,PCB_puerta,5043425f-7075-4657-9274-612e6b696361,rev?*%
%TF.SameCoordinates,Original*%
%TF.FileFunction,Soldermask,Bot*%
%TF.FilePolarity,Negative*%
%FSLAX46Y46*%
G04 Gerber Fmt 4.6, Leading zero omitted, Abs format (unit mm)*
G04 Created by KiCad (PCBNEW 9.0.7) date 2026-07-03 11:58:35*
%MOMM*%
%LPD*%
G01*
G04 APERTURE LIST*
G04 Aperture macros list*
%AMRoundRect*
0 Rectangle with rounded corners*
0 $1 Rounding radius*
0 $2 $3 $4 $5 $6 $7 $8 $9 X,Y pos of 4 corners*
0 Add a 4 corners polygon primitive as box body*
4,1,4,$2,$3,$4,$5,$6,$7,$8,$9,$2,$3,0*
0 Add four circle primitives for the rounded corners*
1,1,$1+$1,$2,$3*
1,1,$1+$1,$4,$5*
1,1,$1+$1,$6,$7*
1,1,$1+$1,$8,$9*
0 Add four rect primitives between the rounded corners*
20,1,$1+$1,$2,$3,$4,$5,0*
20,1,$1+$1,$4,$5,$6,$7,0*
20,1,$1+$1,$6,$7,$8,$9,0*
20,1,$1+$1,$8,$9,$2,$3,0*%
G04 Aperture macros list end*
%ADD10C,2.400000*%
%ADD11R,2.000000X1.905000*%
%ADD12O,2.000000X1.905000*%
%ADD13C,2.000000*%
%ADD14C,1.800000*%
%ADD15RoundRect,0.102000X-0.754000X0.754000X-0.754000X-0.754000X0.754000X-0.754000X0.754000X0.754000X0*%
%ADD16C,1.712000*%
%ADD17RoundRect,0.575000X-0.575000X0.575000X-0.575000X-0.575000X0.575000X-0.575000X0.575000X0.575000X0*%
%ADD18C,2.300000*%
%ADD19C,0.650000*%
%ADD20O,1.000000X2.100000*%
%ADD21O,1.000000X1.800000*%
%ADD22RoundRect,0.250000X-0.350000X-0.625000X0.350000X-0.625000X0.350000X0.625000X-0.350000X0.625000X0*%
%ADD23O,1.200000X1.750000*%
%ADD24R,1.700000X1.700000*%
%ADD25C,1.700000*%
%ADD26C,3.000000*%
%ADD27C,2.500000*%
%ADD28RoundRect,0.250000X-0.950000X-0.550000X0.950000X-0.550000X0.950000X0.550000X-0.950000X0.550000X0*%
%ADD29O,2.400000X1.600000*%
%ADD30RoundRect,0.250001X1.149999X1.149999X-1.149999X1.149999X-1.149999X-1.149999X1.149999X-1.149999X0*%
%ADD31C,2.800000*%
%ADD32RoundRect,0.250000X-0.620000X-0.845000X0.620000X-0.845000X0.620000X0.845000X-0.620000X0.845000X0*%
%ADD33O,1.740000X2.190000*%
G04 APERTURE END LIST*
D10*
%TO.C,R28*%
X116459000Y-95885000D03*
X131699000Y-95885000D03*
%TD*%
D11*
%TO.C,Q1*%
X135829000Y-94869000D03*
D12*
X135829000Y-97409000D03*
X135829000Y-99949000D03*
%TD*%
D13*
%TO.C,C15*%
X116392000Y-90424000D03*
X123892000Y-90424000D03*
%TD*%
D14*
%TO.C,RV1*%
X155235600Y-97296200D03*
X147735600Y-95896200D03*
%TD*%
D15*
%TO.C,PS1*%
X159091000Y-103188000D03*
D16*
X154091000Y-103188000D03*
X164291000Y-132588000D03*
X148891000Y-132588000D03*
%TD*%
D17*
%TO.C,F1*%
X162306000Y-76872000D03*
X162306000Y-82072000D03*
D18*
X162306000Y-92172000D03*
X162306000Y-97372000D03*
%TD*%
D19*
%TO.C,J1*%
X87788000Y-139000000D03*
X93568000Y-139000000D03*
D20*
X86358000Y-138500000D03*
D21*
X86358000Y-142680000D03*
D20*
X94998000Y-138500000D03*
D21*
X94998000Y-142680000D03*
%TD*%
D13*
%TO.C,C1*%
X154600600Y-90449400D03*
X147100600Y-90449400D03*
%TD*%
D22*
%TO.C,J4*%
X102026200Y-141859000D03*
D23*
X104026200Y-141859000D03*
X106026200Y-141859000D03*
X108026200Y-141859000D03*
%TD*%
D24*
%TO.C,J6*%
X159766000Y-142113000D03*
D25*
X157226000Y-142113000D03*
X154686000Y-142113000D03*
X152146000Y-142113000D03*
X149606000Y-142113000D03*
X147066000Y-142113000D03*
X144526000Y-142113000D03*
%TD*%
D26*
%TO.C,K1*%
X93481000Y-84709000D03*
D27*
X95431000Y-90759000D03*
D26*
X107631000Y-90759000D03*
X107681000Y-78709000D03*
D27*
X95431000Y-78759000D03*
%TD*%
D26*
%TO.C,K2*%
X93481000Y-100711000D03*
D27*
X95431000Y-106761000D03*
D26*
X107631000Y-106761000D03*
X107681000Y-94711000D03*
D27*
X95431000Y-94761000D03*
%TD*%
D28*
%TO.C,U4*%
X121539000Y-102108000D03*
D29*
X121539000Y-104648000D03*
X121539000Y-107188000D03*
X129159000Y-107188000D03*
X129159000Y-104648000D03*
X129159000Y-102108000D03*
%TD*%
D30*
%TO.C,J2*%
X152367000Y-79502000D03*
D31*
X147367000Y-79502000D03*
X142367000Y-79502000D03*
X137367000Y-79502000D03*
X132367000Y-79502000D03*
X127367000Y-79502000D03*
X122367000Y-79502000D03*
%TD*%
D22*
%TO.C,J3*%
X75788000Y-110363000D03*
D23*
X77788000Y-110363000D03*
X79788000Y-110363000D03*
X81788000Y-110363000D03*
%TD*%
D32*
%TO.C,J5*%
X117348000Y-141879000D03*
D33*
X119888000Y-141879000D03*
X122428000Y-141879000D03*
X124968000Y-141879000D03*
%TD*%
M02*
