M48
; DRILL file {KiCad 9.0.7} date 2026-07-03T11:58:35-0500
; FORMAT={-:-/ absolute / inch / decimal}
; #@! TF.CreationDate,2026-07-03T11:58:35-05:00
; #@! TF.GenerationSoftware,Kicad,Pcbnew,9.0.7
; #@! TF.FileFunction,Plated,1,2,PTH
FMAT,2
INCH
; #@! TA.AperFunction,Plated,PTH,ComponentDrill
T1C0.0079
; #@! TA.AperFunction,Plated,PTH,ViaDrill
T2C0.0118
; #@! TA.AperFunction,Plated,PTH,ComponentDrill
T3C0.0236
; #@! TA.AperFunction,Plated,PTH,ComponentDrill
T4C0.0295
; #@! TA.AperFunction,Plated,PTH,ComponentDrill
T5C0.0315
; #@! TA.AperFunction,Plated,PTH,ComponentDrill
T6C0.0394
; #@! TA.AperFunction,Plated,PTH,ComponentDrill
T7C0.0433
; #@! TA.AperFunction,Plated,PTH,ComponentDrill
T8C0.0469
; #@! TA.AperFunction,Plated,PTH,ComponentDrill
T9C0.0472
; #@! TA.AperFunction,Plated,PTH,ComponentDrill
T10C0.0512
%
G90
G05
T1
X3.1938Y-4.946
X3.1938Y-5.0011
X3.2214Y-4.9184
X3.2214Y-4.9735
X3.2214Y-5.0287
X3.2489Y-4.946
X3.2489Y-5.0011
X3.2765Y-4.9184
X3.2765Y-4.9735
X3.2765Y-5.0287
X3.3041Y-4.946
X3.3041Y-5.0011
T2
X2.689Y-3.775
X2.689Y-3.829
X2.69Y-3.886
X2.69Y-3.942
X2.756Y-3.944
X2.811Y-3.473
X2.811Y-3.944
X2.855Y-3.944
X2.912Y-3.953
X2.917Y-4.099
X2.917Y-5.443
X2.918Y-5.361
X2.918Y-5.519
X2.919Y-4.033
X2.92Y-5.592
X2.92Y-5.669
X2.922Y-4.162
X2.998Y-5.669
X3.043Y-3.446
X3.045Y-4.516
X3.046Y-5.32
X3.06Y-5.588
X3.072Y-5.669
X3.198Y-5.62
X3.239Y-5.356
X3.33Y-3.546
X3.334Y-5.354
X3.378Y-5.323
X3.4155Y-4.439
X3.434Y-4.366
X3.462Y-3.47
X3.485Y-3.594
X3.642Y-4.366
X3.714Y-5.09
X3.719Y-5.039
X3.721Y-4.939
X3.724Y-4.99
X3.751Y-5.277
X3.827Y-5.353
X3.838Y-4.897
X3.839Y-5.025
X3.887Y-5.475
X4.072Y-5.291
X4.103Y-5.133
X4.152Y-4.71
X4.22Y-4.986
X4.342Y-4.849
X4.36Y-4.736
X4.408Y-5.1
X4.413Y-5.418
X4.63Y-4.849
X4.76Y-5.311
X4.799Y-4.704
X4.812Y-5.04
X4.848Y-4.93
X4.956Y-4.78
X5.037Y-4.534
X5.106Y-5.421
X5.119Y-5.314
X5.163Y-4.844
X5.168Y-5.03
X5.233Y-4.776
X5.351Y-4.719
X5.401Y-4.718
X5.432Y-3.735
X5.454Y-4.718
X5.476Y-3.735
X5.6575Y-4.711
X5.673Y-3.937
X5.6776Y-5.433
X5.6945Y-3.9155
X5.7Y-3.888
X5.71Y-4.115
X5.739Y-5.138
X5.933Y-5.125
X6.12Y-5.123
X6.27Y-5.122
X6.305Y-5.217
X6.367Y-5.215
X6.523Y-5.118
T4
X2.9838Y-4.345
X3.0625Y-4.345
X3.1413Y-4.345
X3.22Y-4.345
X4.0168Y-5.585
X4.0955Y-5.585
X4.1743Y-5.585
X4.253Y-5.585
T5
X4.785Y-4.02
X4.785Y-4.12
X4.785Y-4.22
X5.085Y-4.02
X5.085Y-4.12
X5.085Y-4.22
X5.8164Y-3.7754
X6.1116Y-3.8306
T6
X3.7571Y-3.1007
X3.7571Y-3.5732
X3.7571Y-3.7307
X3.7571Y-4.2032
X4.5824Y-3.56
X4.8776Y-3.56
X5.69Y-5.595
X5.79Y-5.595
X5.7914Y-3.561
X5.8619Y-5.22
X5.89Y-5.595
X5.99Y-5.595
X6.0666Y-4.0625
X6.0866Y-3.561
X6.09Y-5.595
X6.19Y-5.595
X6.2634Y-4.0625
X6.29Y-5.595
X6.4681Y-5.22
T7
X5.3476Y-3.735
X5.3476Y-3.835
X5.3476Y-3.935
T8
X4.62Y-5.5858
X4.72Y-5.5858
X4.82Y-5.5858
X4.92Y-5.5858
T9
X4.585Y-3.775
X5.185Y-3.775
T10
X3.6804Y-3.335
X3.6804Y-3.965
X4.2374Y-3.5732
X4.2374Y-4.2032
X4.2394Y-3.0988
X4.2394Y-3.7288
X4.8176Y-3.13
X5.0144Y-3.13
X5.2113Y-3.13
X5.4081Y-3.13
X5.605Y-3.13
X5.8019Y-3.13
X5.9987Y-3.13
X6.39Y-3.0265
X6.39Y-3.2312
X6.39Y-3.6288
X6.39Y-3.8335
T3
G00X3.3999Y-5.4311
M15
G01X3.3999Y-5.4744
M16
G05
G00X3.3999Y-5.6016
M15
G01X3.3999Y-5.6331
M16
G05
G00X3.7401Y-5.4311
M15
G01X3.7401Y-5.4744
M16
G05
G00X3.7401Y-5.6016
M15
G01X3.7401Y-5.6331
M16
G05
M30
