%TF.GenerationSoftware,KiCad,Pcbnew,9.0.7*%
%TF.CreationDate,2026-07-03T11:58:35-05:00*%
%TF.ProjectId,PCB_puerta,5043425f-7075-4657-9274-612e6b696361,rev?*%
%TF.SameCoordinates,Original*%
%TF.FileFunction,Legend,Top*%
%TF.FilePolarity,Positive*%
%FSLAX46Y46*%
G04 Gerber Fmt 4.6, Leading zero omitted, Abs format (unit mm)*
G04 Created by KiCad (PCBNEW 9.0.7) date 2026-07-03 11:58:35*
%MOMM*%
%LPD*%
G01*
G04 APERTURE LIST*
G04 Aperture macros list*
%AMRoundRect*
0 Rectangle with rounded corners*
0 $1 Rounding radius*
0 $2 $3 $4 $5 $6 $7 $8 $9 X,Y pos of 4 corners*
0 Add a 4 corners polygon primitive as box body*
4,1,4,$2,$3,$4,$5,$6,$7,$8,$9,$2,$3,0*
0 Add four circle primitives for the rounded corners*
1,1,$1+$1,$2,$3*
1,1,$1+$1,$4,$5*
1,1,$1+$1,$6,$7*
1,1,$1+$1,$8,$9*
0 Add four rect primitives between the rounded corners*
20,1,$1+$1,$2,$3,$4,$5,0*
20,1,$1+$1,$4,$5,$6,$7,0*
20,1,$1+$1,$6,$7,$8,$9,0*
20,1,$1+$1,$8,$9,$2,$3,0*%
G04 Aperture macros list end*
%ADD10C,0.203200*%
%ADD11C,0.101600*%
%ADD12C,0.127000*%
%ADD13C,0.150000*%
%ADD14C,0.120000*%
%ADD15C,0.200000*%
%ADD16RoundRect,0.237500X-0.250000X-0.237500X0.250000X-0.237500X0.250000X0.237500X-0.250000X0.237500X0*%
%ADD17RoundRect,0.250000X-0.550000X1.500000X-0.550000X-1.500000X0.550000X-1.500000X0.550000X1.500000X0*%
%ADD18RoundRect,0.200000X-0.275000X0.200000X-0.275000X-0.200000X0.275000X-0.200000X0.275000X0.200000X0*%
%ADD19RoundRect,0.200000X-0.300000X-0.200000X0.300000X-0.200000X0.300000X0.200000X-0.300000X0.200000X0*%
%ADD20RoundRect,0.225000X-0.225000X-0.250000X0.225000X-0.250000X0.225000X0.250000X-0.225000X0.250000X0*%
%ADD21RoundRect,0.200000X-0.200000X-0.275000X0.200000X-0.275000X0.200000X0.275000X-0.200000X0.275000X0*%
%ADD22RoundRect,0.200000X0.200000X0.275000X-0.200000X0.275000X-0.200000X-0.275000X0.200000X-0.275000X0*%
%ADD23C,2.400000*%
%ADD24RoundRect,0.218750X0.218750X0.256250X-0.218750X0.256250X-0.218750X-0.256250X0.218750X-0.256250X0*%
%ADD25R,2.000000X1.905000*%
%ADD26O,2.000000X1.905000*%
%ADD27RoundRect,0.249999X-0.750001X-0.640001X0.750001X-0.640001X0.750001X0.640001X-0.750001X0.640001X0*%
%ADD28C,2.000000*%
%ADD29RoundRect,0.225000X0.225000X0.250000X-0.225000X0.250000X-0.225000X-0.250000X0.225000X-0.250000X0*%
%ADD30C,1.800000*%
%ADD31RoundRect,0.243750X-0.243750X-0.456250X0.243750X-0.456250X0.243750X0.456250X-0.243750X0.456250X0*%
%ADD32RoundRect,0.250000X-0.457500X-0.445000X0.457500X-0.445000X0.457500X0.445000X-0.457500X0.445000X0*%
%ADD33RoundRect,0.237500X0.250000X0.237500X-0.250000X0.237500X-0.250000X-0.237500X0.250000X-0.237500X0*%
%ADD34RoundRect,0.150000X-0.587500X-0.150000X0.587500X-0.150000X0.587500X0.150000X-0.587500X0.150000X0*%
%ADD35RoundRect,0.250000X-0.650000X1.000000X-0.650000X-1.000000X0.650000X-1.000000X0.650000X1.000000X0*%
%ADD36R,1.250000X1.000000*%
%ADD37RoundRect,0.243750X0.243750X0.456250X-0.243750X0.456250X-0.243750X-0.456250X0.243750X-0.456250X0*%
%ADD38R,0.900000X1.500000*%
%ADD39R,1.500000X0.900000*%
%ADD40C,0.600000*%
%ADD41R,3.900000X3.900000*%
%ADD42RoundRect,0.102000X-0.754000X0.754000X-0.754000X-0.754000X0.754000X-0.754000X0.754000X0.754000X0*%
%ADD43C,1.712000*%
%ADD44RoundRect,0.575000X-0.575000X0.575000X-0.575000X-0.575000X0.575000X-0.575000X0.575000X0.575000X0*%
%ADD45C,2.300000*%
%ADD46C,0.650000*%
%ADD47RoundRect,0.150000X-0.150000X-0.425000X0.150000X-0.425000X0.150000X0.425000X-0.150000X0.425000X0*%
%ADD48RoundRect,0.075000X-0.075000X-0.500000X0.075000X-0.500000X0.075000X0.500000X-0.075000X0.500000X0*%
%ADD49O,1.000000X2.100000*%
%ADD50O,1.000000X1.800000*%
%ADD51RoundRect,0.150000X-0.825000X-0.150000X0.825000X-0.150000X0.825000X0.150000X-0.825000X0.150000X0*%
%ADD52RoundRect,0.250000X-0.350000X-0.625000X0.350000X-0.625000X0.350000X0.625000X-0.350000X0.625000X0*%
%ADD53O,1.200000X1.750000*%
%ADD54R,1.700000X1.700000*%
%ADD55C,1.700000*%
%ADD56C,3.000000*%
%ADD57C,2.500000*%
%ADD58RoundRect,0.250000X-0.950000X-0.550000X0.950000X-0.550000X0.950000X0.550000X-0.950000X0.550000X0*%
%ADD59O,2.400000X1.600000*%
%ADD60RoundRect,0.250000X-0.925000X-1.500000X0.925000X-1.500000X0.925000X1.500000X-0.925000X1.500000X0*%
%ADD61RoundRect,0.250000X1.000000X0.650000X-1.000000X0.650000X-1.000000X-0.650000X1.000000X-0.650000X0*%
%ADD62RoundRect,0.250001X1.149999X1.149999X-1.149999X1.149999X-1.149999X-1.149999X1.149999X-1.149999X0*%
%ADD63C,2.800000*%
%ADD64RoundRect,0.250000X-0.620000X-0.845000X0.620000X-0.845000X0.620000X0.845000X-0.620000X0.845000X0*%
%ADD65O,1.740000X2.190000*%
G04 APERTURE END LIST*
D10*
X126986618Y-86533598D02*
X126914047Y-86461026D01*
X126914047Y-86461026D02*
X126841475Y-86243312D01*
X126841475Y-86243312D02*
X126841475Y-86098169D01*
X126841475Y-86098169D02*
X126914047Y-85880455D01*
X126914047Y-85880455D02*
X127059189Y-85735312D01*
X127059189Y-85735312D02*
X127204332Y-85662741D01*
X127204332Y-85662741D02*
X127494618Y-85590169D01*
X127494618Y-85590169D02*
X127712332Y-85590169D01*
X127712332Y-85590169D02*
X128002618Y-85662741D01*
X128002618Y-85662741D02*
X128147761Y-85735312D01*
X128147761Y-85735312D02*
X128292904Y-85880455D01*
X128292904Y-85880455D02*
X128365475Y-86098169D01*
X128365475Y-86098169D02*
X128365475Y-86243312D01*
X128365475Y-86243312D02*
X128292904Y-86461026D01*
X128292904Y-86461026D02*
X128220332Y-86533598D01*
X126841475Y-87985026D02*
X126841475Y-87114169D01*
X126841475Y-87549598D02*
X128365475Y-87549598D01*
X128365475Y-87549598D02*
X128147761Y-87404455D01*
X128147761Y-87404455D02*
X128002618Y-87259312D01*
X128002618Y-87259312D02*
X127930047Y-87114169D01*
D11*
X108382118Y-138719549D02*
X108304708Y-138680844D01*
X108304708Y-138680844D02*
X108188594Y-138680844D01*
X108188594Y-138680844D02*
X108072480Y-138719549D01*
X108072480Y-138719549D02*
X107995070Y-138796959D01*
X107995070Y-138796959D02*
X107956365Y-138874368D01*
X107956365Y-138874368D02*
X107917661Y-139029187D01*
X107917661Y-139029187D02*
X107917661Y-139145301D01*
X107917661Y-139145301D02*
X107956365Y-139300120D01*
X107956365Y-139300120D02*
X107995070Y-139377530D01*
X107995070Y-139377530D02*
X108072480Y-139454940D01*
X108072480Y-139454940D02*
X108188594Y-139493644D01*
X108188594Y-139493644D02*
X108266003Y-139493644D01*
X108266003Y-139493644D02*
X108382118Y-139454940D01*
X108382118Y-139454940D02*
X108420822Y-139416235D01*
X108420822Y-139416235D02*
X108420822Y-139145301D01*
X108420822Y-139145301D02*
X108266003Y-139145301D01*
X108769165Y-139493644D02*
X108769165Y-138680844D01*
X108769165Y-138680844D02*
X109233622Y-139493644D01*
X109233622Y-139493644D02*
X109233622Y-138680844D01*
X109620670Y-139493644D02*
X109620670Y-138680844D01*
X109620670Y-138680844D02*
X109814194Y-138680844D01*
X109814194Y-138680844D02*
X109930308Y-138719549D01*
X109930308Y-138719549D02*
X110007718Y-138796959D01*
X110007718Y-138796959D02*
X110046423Y-138874368D01*
X110046423Y-138874368D02*
X110085127Y-139029187D01*
X110085127Y-139029187D02*
X110085127Y-139145301D01*
X110085127Y-139145301D02*
X110046423Y-139300120D01*
X110046423Y-139300120D02*
X110007718Y-139377530D01*
X110007718Y-139377530D02*
X109930308Y-139454940D01*
X109930308Y-139454940D02*
X109814194Y-139493644D01*
X109814194Y-139493644D02*
X109620670Y-139493644D01*
D12*
X156805180Y-139048090D02*
X157371237Y-139048090D01*
X157371237Y-139048090D02*
X157066437Y-139396433D01*
X157066437Y-139396433D02*
X157197066Y-139396433D01*
X157197066Y-139396433D02*
X157284152Y-139439976D01*
X157284152Y-139439976D02*
X157327694Y-139483519D01*
X157327694Y-139483519D02*
X157371237Y-139570605D01*
X157371237Y-139570605D02*
X157371237Y-139788319D01*
X157371237Y-139788319D02*
X157327694Y-139875405D01*
X157327694Y-139875405D02*
X157284152Y-139918948D01*
X157284152Y-139918948D02*
X157197066Y-139962490D01*
X157197066Y-139962490D02*
X156935809Y-139962490D01*
X156935809Y-139962490D02*
X156848723Y-139918948D01*
X156848723Y-139918948D02*
X156805180Y-139875405D01*
X157632494Y-139048090D02*
X157937294Y-139962490D01*
X157937294Y-139962490D02*
X158242094Y-139048090D01*
X148891266Y-140089490D02*
X148891266Y-139175090D01*
X148891266Y-139175090D02*
X149108980Y-139175090D01*
X149108980Y-139175090D02*
X149239609Y-139218633D01*
X149239609Y-139218633D02*
X149326694Y-139305719D01*
X149326694Y-139305719D02*
X149370237Y-139392805D01*
X149370237Y-139392805D02*
X149413780Y-139566976D01*
X149413780Y-139566976D02*
X149413780Y-139697605D01*
X149413780Y-139697605D02*
X149370237Y-139871776D01*
X149370237Y-139871776D02*
X149326694Y-139958862D01*
X149326694Y-139958862D02*
X149239609Y-140045948D01*
X149239609Y-140045948D02*
X149108980Y-140089490D01*
X149108980Y-140089490D02*
X148891266Y-140089490D01*
X149762123Y-139262176D02*
X149805666Y-139218633D01*
X149805666Y-139218633D02*
X149892752Y-139175090D01*
X149892752Y-139175090D02*
X150110466Y-139175090D01*
X150110466Y-139175090D02*
X150197552Y-139218633D01*
X150197552Y-139218633D02*
X150241094Y-139262176D01*
X150241094Y-139262176D02*
X150284637Y-139349262D01*
X150284637Y-139349262D02*
X150284637Y-139436348D01*
X150284637Y-139436348D02*
X150241094Y-139566976D01*
X150241094Y-139566976D02*
X149718580Y-140089490D01*
X149718580Y-140089490D02*
X150284637Y-140089490D01*
D11*
X105611099Y-139093292D02*
X105340165Y-139093292D01*
X105340165Y-139519044D02*
X105340165Y-138706244D01*
X105340165Y-138706244D02*
X105727213Y-138706244D01*
X106501308Y-139441635D02*
X106462604Y-139480340D01*
X106462604Y-139480340D02*
X106346489Y-139519044D01*
X106346489Y-139519044D02*
X106269080Y-139519044D01*
X106269080Y-139519044D02*
X106152966Y-139480340D01*
X106152966Y-139480340D02*
X106075556Y-139402930D01*
X106075556Y-139402930D02*
X106036851Y-139325520D01*
X106036851Y-139325520D02*
X105998147Y-139170701D01*
X105998147Y-139170701D02*
X105998147Y-139054587D01*
X105998147Y-139054587D02*
X106036851Y-138899768D01*
X106036851Y-138899768D02*
X106075556Y-138822359D01*
X106075556Y-138822359D02*
X106152966Y-138744949D01*
X106152966Y-138744949D02*
X106269080Y-138706244D01*
X106269080Y-138706244D02*
X106346489Y-138706244D01*
X106346489Y-138706244D02*
X106462604Y-138744949D01*
X106462604Y-138744949D02*
X106501308Y-138783654D01*
X107314108Y-139441635D02*
X107275404Y-139480340D01*
X107275404Y-139480340D02*
X107159289Y-139519044D01*
X107159289Y-139519044D02*
X107081880Y-139519044D01*
X107081880Y-139519044D02*
X106965766Y-139480340D01*
X106965766Y-139480340D02*
X106888356Y-139402930D01*
X106888356Y-139402930D02*
X106849651Y-139325520D01*
X106849651Y-139325520D02*
X106810947Y-139170701D01*
X106810947Y-139170701D02*
X106810947Y-139054587D01*
X106810947Y-139054587D02*
X106849651Y-138899768D01*
X106849651Y-138899768D02*
X106888356Y-138822359D01*
X106888356Y-138822359D02*
X106965766Y-138744949D01*
X106965766Y-138744949D02*
X107081880Y-138706244D01*
X107081880Y-138706244D02*
X107159289Y-138706244D01*
X107159289Y-138706244D02*
X107275404Y-138744949D01*
X107275404Y-138744949D02*
X107314108Y-138783654D01*
X103175118Y-138744949D02*
X103097708Y-138706244D01*
X103097708Y-138706244D02*
X102981594Y-138706244D01*
X102981594Y-138706244D02*
X102865480Y-138744949D01*
X102865480Y-138744949D02*
X102788070Y-138822359D01*
X102788070Y-138822359D02*
X102749365Y-138899768D01*
X102749365Y-138899768D02*
X102710661Y-139054587D01*
X102710661Y-139054587D02*
X102710661Y-139170701D01*
X102710661Y-139170701D02*
X102749365Y-139325520D01*
X102749365Y-139325520D02*
X102788070Y-139402930D01*
X102788070Y-139402930D02*
X102865480Y-139480340D01*
X102865480Y-139480340D02*
X102981594Y-139519044D01*
X102981594Y-139519044D02*
X103059003Y-139519044D01*
X103059003Y-139519044D02*
X103175118Y-139480340D01*
X103175118Y-139480340D02*
X103213822Y-139441635D01*
X103213822Y-139441635D02*
X103213822Y-139170701D01*
X103213822Y-139170701D02*
X103059003Y-139170701D01*
X103562165Y-139519044D02*
X103562165Y-138706244D01*
X103562165Y-138706244D02*
X104026622Y-139519044D01*
X104026622Y-139519044D02*
X104026622Y-138706244D01*
X104413670Y-139519044D02*
X104413670Y-138706244D01*
X104413670Y-138706244D02*
X104607194Y-138706244D01*
X104607194Y-138706244D02*
X104723308Y-138744949D01*
X104723308Y-138744949D02*
X104800718Y-138822359D01*
X104800718Y-138822359D02*
X104839423Y-138899768D01*
X104839423Y-138899768D02*
X104878127Y-139054587D01*
X104878127Y-139054587D02*
X104878127Y-139170701D01*
X104878127Y-139170701D02*
X104839423Y-139325520D01*
X104839423Y-139325520D02*
X104800718Y-139402930D01*
X104800718Y-139402930D02*
X104723308Y-139480340D01*
X104723308Y-139480340D02*
X104607194Y-139519044D01*
X104607194Y-139519044D02*
X104413670Y-139519044D01*
X82191244Y-107352177D02*
X81804197Y-107623110D01*
X82191244Y-107816634D02*
X81378444Y-107816634D01*
X81378444Y-107816634D02*
X81378444Y-107506996D01*
X81378444Y-107506996D02*
X81417149Y-107429586D01*
X81417149Y-107429586D02*
X81455854Y-107390881D01*
X81455854Y-107390881D02*
X81533263Y-107352177D01*
X81533263Y-107352177D02*
X81649378Y-107352177D01*
X81649378Y-107352177D02*
X81726787Y-107390881D01*
X81726787Y-107390881D02*
X81765492Y-107429586D01*
X81765492Y-107429586D02*
X81804197Y-107506996D01*
X81804197Y-107506996D02*
X81804197Y-107816634D01*
X81378444Y-107081243D02*
X82191244Y-106539377D01*
X81378444Y-106539377D02*
X82191244Y-107081243D01*
X82191244Y-106229739D02*
X81378444Y-106229739D01*
X81378444Y-106229739D02*
X81378444Y-106036215D01*
X81378444Y-106036215D02*
X81417149Y-105920101D01*
X81417149Y-105920101D02*
X81494559Y-105842691D01*
X81494559Y-105842691D02*
X81571968Y-105803986D01*
X81571968Y-105803986D02*
X81726787Y-105765282D01*
X81726787Y-105765282D02*
X81842901Y-105765282D01*
X81842901Y-105765282D02*
X81997720Y-105803986D01*
X81997720Y-105803986D02*
X82075130Y-105842691D01*
X82075130Y-105842691D02*
X82152540Y-105920101D01*
X82152540Y-105920101D02*
X82191244Y-106036215D01*
X82191244Y-106036215D02*
X82191244Y-106229739D01*
X81378444Y-105262120D02*
X81378444Y-105184710D01*
X81378444Y-105184710D02*
X81417149Y-105107301D01*
X81417149Y-105107301D02*
X81455854Y-105068596D01*
X81455854Y-105068596D02*
X81533263Y-105029891D01*
X81533263Y-105029891D02*
X81688082Y-104991186D01*
X81688082Y-104991186D02*
X81881606Y-104991186D01*
X81881606Y-104991186D02*
X82036425Y-105029891D01*
X82036425Y-105029891D02*
X82113835Y-105068596D01*
X82113835Y-105068596D02*
X82152540Y-105107301D01*
X82152540Y-105107301D02*
X82191244Y-105184710D01*
X82191244Y-105184710D02*
X82191244Y-105262120D01*
X82191244Y-105262120D02*
X82152540Y-105339529D01*
X82152540Y-105339529D02*
X82113835Y-105378234D01*
X82113835Y-105378234D02*
X82036425Y-105416939D01*
X82036425Y-105416939D02*
X81881606Y-105455643D01*
X81881606Y-105455643D02*
X81688082Y-105455643D01*
X81688082Y-105455643D02*
X81533263Y-105416939D01*
X81533263Y-105416939D02*
X81455854Y-105378234D01*
X81455854Y-105378234D02*
X81417149Y-105339529D01*
X81417149Y-105339529D02*
X81378444Y-105262120D01*
X79346444Y-107932748D02*
X79346444Y-107468291D01*
X80159244Y-107700519D02*
X79346444Y-107700519D01*
X79346444Y-107274767D02*
X80159244Y-106732901D01*
X79346444Y-106732901D02*
X80159244Y-107274767D01*
X80159244Y-106423263D02*
X79346444Y-106423263D01*
X79346444Y-106423263D02*
X79346444Y-106229739D01*
X79346444Y-106229739D02*
X79385149Y-106113625D01*
X79385149Y-106113625D02*
X79462559Y-106036215D01*
X79462559Y-106036215D02*
X79539968Y-105997510D01*
X79539968Y-105997510D02*
X79694787Y-105958806D01*
X79694787Y-105958806D02*
X79810901Y-105958806D01*
X79810901Y-105958806D02*
X79965720Y-105997510D01*
X79965720Y-105997510D02*
X80043130Y-106036215D01*
X80043130Y-106036215D02*
X80120540Y-106113625D01*
X80120540Y-106113625D02*
X80159244Y-106229739D01*
X80159244Y-106229739D02*
X80159244Y-106423263D01*
X79346444Y-105455644D02*
X79346444Y-105378234D01*
X79346444Y-105378234D02*
X79385149Y-105300825D01*
X79385149Y-105300825D02*
X79423854Y-105262120D01*
X79423854Y-105262120D02*
X79501263Y-105223415D01*
X79501263Y-105223415D02*
X79656082Y-105184710D01*
X79656082Y-105184710D02*
X79849606Y-105184710D01*
X79849606Y-105184710D02*
X80004425Y-105223415D01*
X80004425Y-105223415D02*
X80081835Y-105262120D01*
X80081835Y-105262120D02*
X80120540Y-105300825D01*
X80120540Y-105300825D02*
X80159244Y-105378234D01*
X80159244Y-105378234D02*
X80159244Y-105455644D01*
X80159244Y-105455644D02*
X80120540Y-105533053D01*
X80120540Y-105533053D02*
X80081835Y-105571758D01*
X80081835Y-105571758D02*
X80004425Y-105610463D01*
X80004425Y-105610463D02*
X79849606Y-105649167D01*
X79849606Y-105649167D02*
X79656082Y-105649167D01*
X79656082Y-105649167D02*
X79501263Y-105610463D01*
X79501263Y-105610463D02*
X79423854Y-105571758D01*
X79423854Y-105571758D02*
X79385149Y-105533053D01*
X79385149Y-105533053D02*
X79346444Y-105455644D01*
X77480149Y-107390881D02*
X77441444Y-107468291D01*
X77441444Y-107468291D02*
X77441444Y-107584405D01*
X77441444Y-107584405D02*
X77480149Y-107700519D01*
X77480149Y-107700519D02*
X77557559Y-107777929D01*
X77557559Y-107777929D02*
X77634968Y-107816634D01*
X77634968Y-107816634D02*
X77789787Y-107855338D01*
X77789787Y-107855338D02*
X77905901Y-107855338D01*
X77905901Y-107855338D02*
X78060720Y-107816634D01*
X78060720Y-107816634D02*
X78138130Y-107777929D01*
X78138130Y-107777929D02*
X78215540Y-107700519D01*
X78215540Y-107700519D02*
X78254244Y-107584405D01*
X78254244Y-107584405D02*
X78254244Y-107506996D01*
X78254244Y-107506996D02*
X78215540Y-107390881D01*
X78215540Y-107390881D02*
X78176835Y-107352177D01*
X78176835Y-107352177D02*
X77905901Y-107352177D01*
X77905901Y-107352177D02*
X77905901Y-107506996D01*
X78254244Y-107003834D02*
X77441444Y-107003834D01*
X77441444Y-107003834D02*
X78254244Y-106539377D01*
X78254244Y-106539377D02*
X77441444Y-106539377D01*
X78254244Y-106152329D02*
X77441444Y-106152329D01*
X77441444Y-106152329D02*
X77441444Y-105958805D01*
X77441444Y-105958805D02*
X77480149Y-105842691D01*
X77480149Y-105842691D02*
X77557559Y-105765281D01*
X77557559Y-105765281D02*
X77634968Y-105726576D01*
X77634968Y-105726576D02*
X77789787Y-105687872D01*
X77789787Y-105687872D02*
X77905901Y-105687872D01*
X77905901Y-105687872D02*
X78060720Y-105726576D01*
X78060720Y-105726576D02*
X78138130Y-105765281D01*
X78138130Y-105765281D02*
X78215540Y-105842691D01*
X78215540Y-105842691D02*
X78254244Y-105958805D01*
X78254244Y-105958805D02*
X78254244Y-106152329D01*
D10*
X141794818Y-86736798D02*
X141722247Y-86664226D01*
X141722247Y-86664226D02*
X141649675Y-86446512D01*
X141649675Y-86446512D02*
X141649675Y-86301369D01*
X141649675Y-86301369D02*
X141722247Y-86083655D01*
X141722247Y-86083655D02*
X141867389Y-85938512D01*
X141867389Y-85938512D02*
X142012532Y-85865941D01*
X142012532Y-85865941D02*
X142302818Y-85793369D01*
X142302818Y-85793369D02*
X142520532Y-85793369D01*
X142520532Y-85793369D02*
X142810818Y-85865941D01*
X142810818Y-85865941D02*
X142955961Y-85938512D01*
X142955961Y-85938512D02*
X143101104Y-86083655D01*
X143101104Y-86083655D02*
X143173675Y-86301369D01*
X143173675Y-86301369D02*
X143173675Y-86446512D01*
X143173675Y-86446512D02*
X143101104Y-86664226D01*
X143101104Y-86664226D02*
X143028532Y-86736798D01*
X143173675Y-87680226D02*
X143173675Y-87970512D01*
X143173675Y-87970512D02*
X143101104Y-88115655D01*
X143101104Y-88115655D02*
X142955961Y-88260798D01*
X142955961Y-88260798D02*
X142665675Y-88333369D01*
X142665675Y-88333369D02*
X142157675Y-88333369D01*
X142157675Y-88333369D02*
X141867389Y-88260798D01*
X141867389Y-88260798D02*
X141722247Y-88115655D01*
X141722247Y-88115655D02*
X141649675Y-87970512D01*
X141649675Y-87970512D02*
X141649675Y-87680226D01*
X141649675Y-87680226D02*
X141722247Y-87535084D01*
X141722247Y-87535084D02*
X141867389Y-87389941D01*
X141867389Y-87389941D02*
X142157675Y-87317369D01*
X142157675Y-87317369D02*
X142665675Y-87317369D01*
X142665675Y-87317369D02*
X142955961Y-87389941D01*
X142955961Y-87389941D02*
X143101104Y-87535084D01*
X143101104Y-87535084D02*
X143173675Y-87680226D01*
X141649675Y-88986512D02*
X143173675Y-88986512D01*
X143173675Y-88986512D02*
X142085104Y-89494512D01*
X142085104Y-89494512D02*
X143173675Y-90002512D01*
X143173675Y-90002512D02*
X141649675Y-90002512D01*
D11*
X100581899Y-139067892D02*
X100310965Y-139067892D01*
X100310965Y-139493644D02*
X100310965Y-138680844D01*
X100310965Y-138680844D02*
X100698013Y-138680844D01*
X101472108Y-139416235D02*
X101433404Y-139454940D01*
X101433404Y-139454940D02*
X101317289Y-139493644D01*
X101317289Y-139493644D02*
X101239880Y-139493644D01*
X101239880Y-139493644D02*
X101123766Y-139454940D01*
X101123766Y-139454940D02*
X101046356Y-139377530D01*
X101046356Y-139377530D02*
X101007651Y-139300120D01*
X101007651Y-139300120D02*
X100968947Y-139145301D01*
X100968947Y-139145301D02*
X100968947Y-139029187D01*
X100968947Y-139029187D02*
X101007651Y-138874368D01*
X101007651Y-138874368D02*
X101046356Y-138796959D01*
X101046356Y-138796959D02*
X101123766Y-138719549D01*
X101123766Y-138719549D02*
X101239880Y-138680844D01*
X101239880Y-138680844D02*
X101317289Y-138680844D01*
X101317289Y-138680844D02*
X101433404Y-138719549D01*
X101433404Y-138719549D02*
X101472108Y-138758254D01*
X101781747Y-139261416D02*
X102168794Y-139261416D01*
X101704337Y-139493644D02*
X101975270Y-138680844D01*
X101975270Y-138680844D02*
X102246204Y-139493644D01*
D12*
X75167090Y-107735819D02*
X75167090Y-107169762D01*
X75167090Y-107169762D02*
X75515433Y-107474562D01*
X75515433Y-107474562D02*
X75515433Y-107343933D01*
X75515433Y-107343933D02*
X75558976Y-107256848D01*
X75558976Y-107256848D02*
X75602519Y-107213305D01*
X75602519Y-107213305D02*
X75689605Y-107169762D01*
X75689605Y-107169762D02*
X75907319Y-107169762D01*
X75907319Y-107169762D02*
X75994405Y-107213305D01*
X75994405Y-107213305D02*
X76037948Y-107256848D01*
X76037948Y-107256848D02*
X76081490Y-107343933D01*
X76081490Y-107343933D02*
X76081490Y-107605190D01*
X76081490Y-107605190D02*
X76037948Y-107692276D01*
X76037948Y-107692276D02*
X75994405Y-107735819D01*
X75167090Y-106908505D02*
X76081490Y-106603705D01*
X76081490Y-106603705D02*
X75167090Y-106298905D01*
X99712028Y-123160656D02*
X99373361Y-122676847D01*
X99131456Y-123160656D02*
X99131456Y-122144656D01*
X99131456Y-122144656D02*
X99518504Y-122144656D01*
X99518504Y-122144656D02*
X99615266Y-122193037D01*
X99615266Y-122193037D02*
X99663647Y-122241418D01*
X99663647Y-122241418D02*
X99712028Y-122338180D01*
X99712028Y-122338180D02*
X99712028Y-122483323D01*
X99712028Y-122483323D02*
X99663647Y-122580085D01*
X99663647Y-122580085D02*
X99615266Y-122628466D01*
X99615266Y-122628466D02*
X99518504Y-122676847D01*
X99518504Y-122676847D02*
X99131456Y-122676847D01*
X100147456Y-122628466D02*
X100486123Y-122628466D01*
X100631266Y-123160656D02*
X100147456Y-123160656D01*
X100147456Y-123160656D02*
X100147456Y-122144656D01*
X100147456Y-122144656D02*
X100631266Y-122144656D01*
X101018313Y-123112276D02*
X101163456Y-123160656D01*
X101163456Y-123160656D02*
X101405361Y-123160656D01*
X101405361Y-123160656D02*
X101502123Y-123112276D01*
X101502123Y-123112276D02*
X101550504Y-123063895D01*
X101550504Y-123063895D02*
X101598885Y-122967133D01*
X101598885Y-122967133D02*
X101598885Y-122870371D01*
X101598885Y-122870371D02*
X101550504Y-122773609D01*
X101550504Y-122773609D02*
X101502123Y-122725228D01*
X101502123Y-122725228D02*
X101405361Y-122676847D01*
X101405361Y-122676847D02*
X101211837Y-122628466D01*
X101211837Y-122628466D02*
X101115075Y-122580085D01*
X101115075Y-122580085D02*
X101066694Y-122531704D01*
X101066694Y-122531704D02*
X101018313Y-122434942D01*
X101018313Y-122434942D02*
X101018313Y-122338180D01*
X101018313Y-122338180D02*
X101066694Y-122241418D01*
X101066694Y-122241418D02*
X101115075Y-122193037D01*
X101115075Y-122193037D02*
X101211837Y-122144656D01*
X101211837Y-122144656D02*
X101453742Y-122144656D01*
X101453742Y-122144656D02*
X101598885Y-122193037D01*
X102034313Y-122628466D02*
X102372980Y-122628466D01*
X102518123Y-123160656D02*
X102034313Y-123160656D01*
X102034313Y-123160656D02*
X102034313Y-122144656D01*
X102034313Y-122144656D02*
X102518123Y-122144656D01*
X102808408Y-122144656D02*
X103388980Y-122144656D01*
X103098694Y-123160656D02*
X103098694Y-122144656D01*
D10*
X151784275Y-86381198D02*
X152509989Y-85873198D01*
X151784275Y-85510341D02*
X153308275Y-85510341D01*
X153308275Y-85510341D02*
X153308275Y-86090912D01*
X153308275Y-86090912D02*
X153235704Y-86236055D01*
X153235704Y-86236055D02*
X153163132Y-86308626D01*
X153163132Y-86308626D02*
X153017989Y-86381198D01*
X153017989Y-86381198D02*
X152800275Y-86381198D01*
X152800275Y-86381198D02*
X152655132Y-86308626D01*
X152655132Y-86308626D02*
X152582561Y-86236055D01*
X152582561Y-86236055D02*
X152509989Y-86090912D01*
X152509989Y-86090912D02*
X152509989Y-85510341D01*
D11*
X125244244Y-137743881D02*
X125244244Y-138208338D01*
X125244244Y-137976110D02*
X124431444Y-137976110D01*
X124431444Y-137976110D02*
X124547559Y-138053519D01*
X124547559Y-138053519D02*
X124624968Y-138130929D01*
X124624968Y-138130929D02*
X124663673Y-138208338D01*
X124508854Y-137434243D02*
X124470149Y-137395539D01*
X124470149Y-137395539D02*
X124431444Y-137318129D01*
X124431444Y-137318129D02*
X124431444Y-137124605D01*
X124431444Y-137124605D02*
X124470149Y-137047196D01*
X124470149Y-137047196D02*
X124508854Y-137008491D01*
X124508854Y-137008491D02*
X124586263Y-136969786D01*
X124586263Y-136969786D02*
X124663673Y-136969786D01*
X124663673Y-136969786D02*
X124779787Y-137008491D01*
X124779787Y-137008491D02*
X125244244Y-137472948D01*
X125244244Y-137472948D02*
X125244244Y-136969786D01*
X124431444Y-136737558D02*
X125244244Y-136466625D01*
X125244244Y-136466625D02*
X124431444Y-136195691D01*
D10*
X131896075Y-85611941D02*
X133420075Y-85611941D01*
X133420075Y-85611941D02*
X132331504Y-86119941D01*
X132331504Y-86119941D02*
X133420075Y-86627941D01*
X133420075Y-86627941D02*
X131896075Y-86627941D01*
X131750932Y-86990798D02*
X131750932Y-88151940D01*
X132041218Y-89385655D02*
X131968647Y-89313083D01*
X131968647Y-89313083D02*
X131896075Y-89095369D01*
X131896075Y-89095369D02*
X131896075Y-88950226D01*
X131896075Y-88950226D02*
X131968647Y-88732512D01*
X131968647Y-88732512D02*
X132113789Y-88587369D01*
X132113789Y-88587369D02*
X132258932Y-88514798D01*
X132258932Y-88514798D02*
X132549218Y-88442226D01*
X132549218Y-88442226D02*
X132766932Y-88442226D01*
X132766932Y-88442226D02*
X133057218Y-88514798D01*
X133057218Y-88514798D02*
X133202361Y-88587369D01*
X133202361Y-88587369D02*
X133347504Y-88732512D01*
X133347504Y-88732512D02*
X133420075Y-88950226D01*
X133420075Y-88950226D02*
X133420075Y-89095369D01*
X133420075Y-89095369D02*
X133347504Y-89313083D01*
X133347504Y-89313083D02*
X133274932Y-89385655D01*
X131896075Y-90764512D02*
X131896075Y-90038798D01*
X131896075Y-90038798D02*
X133420075Y-90038798D01*
X136645875Y-85611941D02*
X138169875Y-85611941D01*
X138169875Y-85611941D02*
X137081304Y-86119941D01*
X137081304Y-86119941D02*
X138169875Y-86627941D01*
X138169875Y-86627941D02*
X136645875Y-86627941D01*
X136500732Y-86990798D02*
X136500732Y-88151940D01*
X138169875Y-88805083D02*
X138169875Y-89095369D01*
X138169875Y-89095369D02*
X138097304Y-89240512D01*
X138097304Y-89240512D02*
X137952161Y-89385655D01*
X137952161Y-89385655D02*
X137661875Y-89458226D01*
X137661875Y-89458226D02*
X137153875Y-89458226D01*
X137153875Y-89458226D02*
X136863589Y-89385655D01*
X136863589Y-89385655D02*
X136718447Y-89240512D01*
X136718447Y-89240512D02*
X136645875Y-89095369D01*
X136645875Y-89095369D02*
X136645875Y-88805083D01*
X136645875Y-88805083D02*
X136718447Y-88659941D01*
X136718447Y-88659941D02*
X136863589Y-88514798D01*
X136863589Y-88514798D02*
X137153875Y-88442226D01*
X137153875Y-88442226D02*
X137661875Y-88442226D01*
X137661875Y-88442226D02*
X137952161Y-88514798D01*
X137952161Y-88514798D02*
X138097304Y-88659941D01*
X138097304Y-88659941D02*
X138169875Y-88805083D01*
X136645875Y-90111369D02*
X138169875Y-90111369D01*
X138169875Y-90111369D02*
X138169875Y-90691940D01*
X138169875Y-90691940D02*
X138097304Y-90837083D01*
X138097304Y-90837083D02*
X138024732Y-90909654D01*
X138024732Y-90909654D02*
X137879589Y-90982226D01*
X137879589Y-90982226D02*
X137661875Y-90982226D01*
X137661875Y-90982226D02*
X137516732Y-90909654D01*
X137516732Y-90909654D02*
X137444161Y-90837083D01*
X137444161Y-90837083D02*
X137371589Y-90691940D01*
X137371589Y-90691940D02*
X137371589Y-90111369D01*
D12*
X151431266Y-140089490D02*
X151431266Y-139175090D01*
X151431266Y-139175090D02*
X151648980Y-139175090D01*
X151648980Y-139175090D02*
X151779609Y-139218633D01*
X151779609Y-139218633D02*
X151866694Y-139305719D01*
X151866694Y-139305719D02*
X151910237Y-139392805D01*
X151910237Y-139392805D02*
X151953780Y-139566976D01*
X151953780Y-139566976D02*
X151953780Y-139697605D01*
X151953780Y-139697605D02*
X151910237Y-139871776D01*
X151910237Y-139871776D02*
X151866694Y-139958862D01*
X151866694Y-139958862D02*
X151779609Y-140045948D01*
X151779609Y-140045948D02*
X151648980Y-140089490D01*
X151648980Y-140089490D02*
X151431266Y-140089490D01*
X152824637Y-140089490D02*
X152302123Y-140089490D01*
X152563380Y-140089490D02*
X152563380Y-139175090D01*
X152563380Y-139175090D02*
X152476294Y-139305719D01*
X152476294Y-139305719D02*
X152389209Y-139392805D01*
X152389209Y-139392805D02*
X152302123Y-139436348D01*
D10*
X146649847Y-85564769D02*
X146577275Y-85782484D01*
X146577275Y-85782484D02*
X146577275Y-86145341D01*
X146577275Y-86145341D02*
X146649847Y-86290484D01*
X146649847Y-86290484D02*
X146722418Y-86363055D01*
X146722418Y-86363055D02*
X146867561Y-86435626D01*
X146867561Y-86435626D02*
X147012704Y-86435626D01*
X147012704Y-86435626D02*
X147157847Y-86363055D01*
X147157847Y-86363055D02*
X147230418Y-86290484D01*
X147230418Y-86290484D02*
X147302989Y-86145341D01*
X147302989Y-86145341D02*
X147375561Y-85855055D01*
X147375561Y-85855055D02*
X147448132Y-85709912D01*
X147448132Y-85709912D02*
X147520704Y-85637341D01*
X147520704Y-85637341D02*
X147665847Y-85564769D01*
X147665847Y-85564769D02*
X147810989Y-85564769D01*
X147810989Y-85564769D02*
X147956132Y-85637341D01*
X147956132Y-85637341D02*
X148028704Y-85709912D01*
X148028704Y-85709912D02*
X148101275Y-85855055D01*
X148101275Y-85855055D02*
X148101275Y-86217912D01*
X148101275Y-86217912D02*
X148028704Y-86435626D01*
X121805018Y-85974798D02*
X121732447Y-85902226D01*
X121732447Y-85902226D02*
X121659875Y-85684512D01*
X121659875Y-85684512D02*
X121659875Y-85539369D01*
X121659875Y-85539369D02*
X121732447Y-85321655D01*
X121732447Y-85321655D02*
X121877589Y-85176512D01*
X121877589Y-85176512D02*
X122022732Y-85103941D01*
X122022732Y-85103941D02*
X122313018Y-85031369D01*
X122313018Y-85031369D02*
X122530732Y-85031369D01*
X122530732Y-85031369D02*
X122821018Y-85103941D01*
X122821018Y-85103941D02*
X122966161Y-85176512D01*
X122966161Y-85176512D02*
X123111304Y-85321655D01*
X123111304Y-85321655D02*
X123183875Y-85539369D01*
X123183875Y-85539369D02*
X123183875Y-85684512D01*
X123183875Y-85684512D02*
X123111304Y-85902226D01*
X123111304Y-85902226D02*
X123038732Y-85974798D01*
X123038732Y-86555369D02*
X123111304Y-86627941D01*
X123111304Y-86627941D02*
X123183875Y-86773084D01*
X123183875Y-86773084D02*
X123183875Y-87135941D01*
X123183875Y-87135941D02*
X123111304Y-87281084D01*
X123111304Y-87281084D02*
X123038732Y-87353655D01*
X123038732Y-87353655D02*
X122893589Y-87426226D01*
X122893589Y-87426226D02*
X122748447Y-87426226D01*
X122748447Y-87426226D02*
X122530732Y-87353655D01*
X122530732Y-87353655D02*
X121659875Y-86482798D01*
X121659875Y-86482798D02*
X121659875Y-87426226D01*
D12*
X99470123Y-112976466D02*
X99615266Y-113024847D01*
X99615266Y-113024847D02*
X99663647Y-113073228D01*
X99663647Y-113073228D02*
X99712028Y-113169990D01*
X99712028Y-113169990D02*
X99712028Y-113315133D01*
X99712028Y-113315133D02*
X99663647Y-113411895D01*
X99663647Y-113411895D02*
X99615266Y-113460276D01*
X99615266Y-113460276D02*
X99518504Y-113508656D01*
X99518504Y-113508656D02*
X99131456Y-113508656D01*
X99131456Y-113508656D02*
X99131456Y-112492656D01*
X99131456Y-112492656D02*
X99470123Y-112492656D01*
X99470123Y-112492656D02*
X99566885Y-112541037D01*
X99566885Y-112541037D02*
X99615266Y-112589418D01*
X99615266Y-112589418D02*
X99663647Y-112686180D01*
X99663647Y-112686180D02*
X99663647Y-112782942D01*
X99663647Y-112782942D02*
X99615266Y-112879704D01*
X99615266Y-112879704D02*
X99566885Y-112928085D01*
X99566885Y-112928085D02*
X99470123Y-112976466D01*
X99470123Y-112976466D02*
X99131456Y-112976466D01*
X100340980Y-112492656D02*
X100534504Y-112492656D01*
X100534504Y-112492656D02*
X100631266Y-112541037D01*
X100631266Y-112541037D02*
X100728028Y-112637799D01*
X100728028Y-112637799D02*
X100776409Y-112831323D01*
X100776409Y-112831323D02*
X100776409Y-113169990D01*
X100776409Y-113169990D02*
X100728028Y-113363514D01*
X100728028Y-113363514D02*
X100631266Y-113460276D01*
X100631266Y-113460276D02*
X100534504Y-113508656D01*
X100534504Y-113508656D02*
X100340980Y-113508656D01*
X100340980Y-113508656D02*
X100244218Y-113460276D01*
X100244218Y-113460276D02*
X100147456Y-113363514D01*
X100147456Y-113363514D02*
X100099075Y-113169990D01*
X100099075Y-113169990D02*
X100099075Y-112831323D01*
X100099075Y-112831323D02*
X100147456Y-112637799D01*
X100147456Y-112637799D02*
X100244218Y-112541037D01*
X100244218Y-112541037D02*
X100340980Y-112492656D01*
X101405361Y-112492656D02*
X101598885Y-112492656D01*
X101598885Y-112492656D02*
X101695647Y-112541037D01*
X101695647Y-112541037D02*
X101792409Y-112637799D01*
X101792409Y-112637799D02*
X101840790Y-112831323D01*
X101840790Y-112831323D02*
X101840790Y-113169990D01*
X101840790Y-113169990D02*
X101792409Y-113363514D01*
X101792409Y-113363514D02*
X101695647Y-113460276D01*
X101695647Y-113460276D02*
X101598885Y-113508656D01*
X101598885Y-113508656D02*
X101405361Y-113508656D01*
X101405361Y-113508656D02*
X101308599Y-113460276D01*
X101308599Y-113460276D02*
X101211837Y-113363514D01*
X101211837Y-113363514D02*
X101163456Y-113169990D01*
X101163456Y-113169990D02*
X101163456Y-112831323D01*
X101163456Y-112831323D02*
X101211837Y-112637799D01*
X101211837Y-112637799D02*
X101308599Y-112541037D01*
X101308599Y-112541037D02*
X101405361Y-112492656D01*
X102131075Y-112492656D02*
X102711647Y-112492656D01*
X102421361Y-113508656D02*
X102421361Y-112492656D01*
D11*
X122227692Y-137941034D02*
X122227692Y-137670100D01*
X122653444Y-137553986D02*
X122653444Y-137941034D01*
X122653444Y-137941034D02*
X121840644Y-137941034D01*
X121840644Y-137941034D02*
X121840644Y-137553986D01*
X122653444Y-137205644D02*
X121840644Y-137205644D01*
X121840644Y-137205644D02*
X122653444Y-136741187D01*
X122653444Y-136741187D02*
X121840644Y-136741187D01*
X122576035Y-135889682D02*
X122614740Y-135928386D01*
X122614740Y-135928386D02*
X122653444Y-136044501D01*
X122653444Y-136044501D02*
X122653444Y-136121910D01*
X122653444Y-136121910D02*
X122614740Y-136238024D01*
X122614740Y-136238024D02*
X122537330Y-136315434D01*
X122537330Y-136315434D02*
X122459920Y-136354139D01*
X122459920Y-136354139D02*
X122305101Y-136392843D01*
X122305101Y-136392843D02*
X122188987Y-136392843D01*
X122188987Y-136392843D02*
X122034168Y-136354139D01*
X122034168Y-136354139D02*
X121956759Y-136315434D01*
X121956759Y-136315434D02*
X121879349Y-136238024D01*
X121879349Y-136238024D02*
X121840644Y-136121910D01*
X121840644Y-136121910D02*
X121840644Y-136044501D01*
X121840644Y-136044501D02*
X121879349Y-135928386D01*
X121879349Y-135928386D02*
X121918054Y-135889682D01*
X122227692Y-135270405D02*
X122266397Y-135154291D01*
X122266397Y-135154291D02*
X122305101Y-135115586D01*
X122305101Y-135115586D02*
X122382511Y-135076882D01*
X122382511Y-135076882D02*
X122498625Y-135076882D01*
X122498625Y-135076882D02*
X122576035Y-135115586D01*
X122576035Y-135115586D02*
X122614740Y-135154291D01*
X122614740Y-135154291D02*
X122653444Y-135231701D01*
X122653444Y-135231701D02*
X122653444Y-135541339D01*
X122653444Y-135541339D02*
X121840644Y-135541339D01*
X121840644Y-135541339D02*
X121840644Y-135270405D01*
X121840644Y-135270405D02*
X121879349Y-135192996D01*
X121879349Y-135192996D02*
X121918054Y-135154291D01*
X121918054Y-135154291D02*
X121995463Y-135115586D01*
X121995463Y-135115586D02*
X122072873Y-135115586D01*
X122072873Y-135115586D02*
X122150282Y-135154291D01*
X122150282Y-135154291D02*
X122188987Y-135192996D01*
X122188987Y-135192996D02*
X122227692Y-135270405D01*
X122227692Y-135270405D02*
X122227692Y-135541339D01*
D12*
X143807637Y-139175090D02*
X144112437Y-140089490D01*
X144112437Y-140089490D02*
X144417237Y-139175090D01*
X144591408Y-139175090D02*
X145113923Y-139175090D01*
X144852665Y-140089490D02*
X144852665Y-139175090D01*
X137276208Y-139315056D02*
X137614875Y-140331056D01*
X137614875Y-140331056D02*
X137953542Y-139315056D01*
X138147065Y-139315056D02*
X138727637Y-139315056D01*
X138437351Y-140331056D02*
X138437351Y-139315056D01*
D11*
X119517149Y-137616881D02*
X119478444Y-137694291D01*
X119478444Y-137694291D02*
X119478444Y-137810405D01*
X119478444Y-137810405D02*
X119517149Y-137926519D01*
X119517149Y-137926519D02*
X119594559Y-138003929D01*
X119594559Y-138003929D02*
X119671968Y-138042634D01*
X119671968Y-138042634D02*
X119826787Y-138081338D01*
X119826787Y-138081338D02*
X119942901Y-138081338D01*
X119942901Y-138081338D02*
X120097720Y-138042634D01*
X120097720Y-138042634D02*
X120175130Y-138003929D01*
X120175130Y-138003929D02*
X120252540Y-137926519D01*
X120252540Y-137926519D02*
X120291244Y-137810405D01*
X120291244Y-137810405D02*
X120291244Y-137732996D01*
X120291244Y-137732996D02*
X120252540Y-137616881D01*
X120252540Y-137616881D02*
X120213835Y-137578177D01*
X120213835Y-137578177D02*
X119942901Y-137578177D01*
X119942901Y-137578177D02*
X119942901Y-137732996D01*
X120291244Y-137229834D02*
X119478444Y-137229834D01*
X119478444Y-137229834D02*
X120291244Y-136765377D01*
X120291244Y-136765377D02*
X119478444Y-136765377D01*
X120291244Y-136378329D02*
X119478444Y-136378329D01*
X119478444Y-136378329D02*
X119478444Y-136184805D01*
X119478444Y-136184805D02*
X119517149Y-136068691D01*
X119517149Y-136068691D02*
X119594559Y-135991281D01*
X119594559Y-135991281D02*
X119671968Y-135952576D01*
X119671968Y-135952576D02*
X119826787Y-135913872D01*
X119826787Y-135913872D02*
X119942901Y-135913872D01*
X119942901Y-135913872D02*
X120097720Y-135952576D01*
X120097720Y-135952576D02*
X120175130Y-135991281D01*
X120175130Y-135991281D02*
X120252540Y-136068691D01*
X120252540Y-136068691D02*
X120291244Y-136184805D01*
X120291244Y-136184805D02*
X120291244Y-136378329D01*
D12*
X146351266Y-140089490D02*
X146351266Y-139175090D01*
X146351266Y-139175090D02*
X146568980Y-139175090D01*
X146568980Y-139175090D02*
X146699609Y-139218633D01*
X146699609Y-139218633D02*
X146786694Y-139305719D01*
X146786694Y-139305719D02*
X146830237Y-139392805D01*
X146830237Y-139392805D02*
X146873780Y-139566976D01*
X146873780Y-139566976D02*
X146873780Y-139697605D01*
X146873780Y-139697605D02*
X146830237Y-139871776D01*
X146830237Y-139871776D02*
X146786694Y-139958862D01*
X146786694Y-139958862D02*
X146699609Y-140045948D01*
X146699609Y-140045948D02*
X146568980Y-140089490D01*
X146568980Y-140089490D02*
X146351266Y-140089490D01*
X147178580Y-139175090D02*
X147744637Y-139175090D01*
X147744637Y-139175090D02*
X147439837Y-139523433D01*
X147439837Y-139523433D02*
X147570466Y-139523433D01*
X147570466Y-139523433D02*
X147657552Y-139566976D01*
X147657552Y-139566976D02*
X147701094Y-139610519D01*
X147701094Y-139610519D02*
X147744637Y-139697605D01*
X147744637Y-139697605D02*
X147744637Y-139915319D01*
X147744637Y-139915319D02*
X147701094Y-140002405D01*
X147701094Y-140002405D02*
X147657552Y-140045948D01*
X147657552Y-140045948D02*
X147570466Y-140089490D01*
X147570466Y-140089490D02*
X147309209Y-140089490D01*
X147309209Y-140089490D02*
X147222123Y-140045948D01*
X147222123Y-140045948D02*
X147178580Y-140002405D01*
X154098266Y-140089490D02*
X154098266Y-139175090D01*
X154098266Y-139175090D02*
X154315980Y-139175090D01*
X154315980Y-139175090D02*
X154446609Y-139218633D01*
X154446609Y-139218633D02*
X154533694Y-139305719D01*
X154533694Y-139305719D02*
X154577237Y-139392805D01*
X154577237Y-139392805D02*
X154620780Y-139566976D01*
X154620780Y-139566976D02*
X154620780Y-139697605D01*
X154620780Y-139697605D02*
X154577237Y-139871776D01*
X154577237Y-139871776D02*
X154533694Y-139958862D01*
X154533694Y-139958862D02*
X154446609Y-140045948D01*
X154446609Y-140045948D02*
X154315980Y-140089490D01*
X154315980Y-140089490D02*
X154098266Y-140089490D01*
X155186837Y-139175090D02*
X155273923Y-139175090D01*
X155273923Y-139175090D02*
X155361009Y-139218633D01*
X155361009Y-139218633D02*
X155404552Y-139262176D01*
X155404552Y-139262176D02*
X155448094Y-139349262D01*
X155448094Y-139349262D02*
X155491637Y-139523433D01*
X155491637Y-139523433D02*
X155491637Y-139741148D01*
X155491637Y-139741148D02*
X155448094Y-139915319D01*
X155448094Y-139915319D02*
X155404552Y-140002405D01*
X155404552Y-140002405D02*
X155361009Y-140045948D01*
X155361009Y-140045948D02*
X155273923Y-140089490D01*
X155273923Y-140089490D02*
X155186837Y-140089490D01*
X155186837Y-140089490D02*
X155099752Y-140045948D01*
X155099752Y-140045948D02*
X155056209Y-140002405D01*
X155056209Y-140002405D02*
X155012666Y-139915319D01*
X155012666Y-139915319D02*
X154969123Y-139741148D01*
X154969123Y-139741148D02*
X154969123Y-139523433D01*
X154969123Y-139523433D02*
X155012666Y-139349262D01*
X155012666Y-139349262D02*
X155056209Y-139262176D01*
X155056209Y-139262176D02*
X155099752Y-139218633D01*
X155099752Y-139218633D02*
X155186837Y-139175090D01*
X159530237Y-139091633D02*
X159443152Y-139048090D01*
X159443152Y-139048090D02*
X159312523Y-139048090D01*
X159312523Y-139048090D02*
X159181894Y-139091633D01*
X159181894Y-139091633D02*
X159094809Y-139178719D01*
X159094809Y-139178719D02*
X159051266Y-139265805D01*
X159051266Y-139265805D02*
X159007723Y-139439976D01*
X159007723Y-139439976D02*
X159007723Y-139570605D01*
X159007723Y-139570605D02*
X159051266Y-139744776D01*
X159051266Y-139744776D02*
X159094809Y-139831862D01*
X159094809Y-139831862D02*
X159181894Y-139918948D01*
X159181894Y-139918948D02*
X159312523Y-139962490D01*
X159312523Y-139962490D02*
X159399609Y-139962490D01*
X159399609Y-139962490D02*
X159530237Y-139918948D01*
X159530237Y-139918948D02*
X159573780Y-139875405D01*
X159573780Y-139875405D02*
X159573780Y-139570605D01*
X159573780Y-139570605D02*
X159399609Y-139570605D01*
X159965666Y-139962490D02*
X159965666Y-139048090D01*
X159965666Y-139048090D02*
X160488180Y-139962490D01*
X160488180Y-139962490D02*
X160488180Y-139048090D01*
X160923609Y-139962490D02*
X160923609Y-139048090D01*
X160923609Y-139048090D02*
X161141323Y-139048090D01*
X161141323Y-139048090D02*
X161271952Y-139091633D01*
X161271952Y-139091633D02*
X161359037Y-139178719D01*
X161359037Y-139178719D02*
X161402580Y-139265805D01*
X161402580Y-139265805D02*
X161446123Y-139439976D01*
X161446123Y-139439976D02*
X161446123Y-139570605D01*
X161446123Y-139570605D02*
X161402580Y-139744776D01*
X161402580Y-139744776D02*
X161359037Y-139831862D01*
X161359037Y-139831862D02*
X161271952Y-139918948D01*
X161271952Y-139918948D02*
X161141323Y-139962490D01*
X161141323Y-139962490D02*
X160923609Y-139962490D01*
D11*
X117249292Y-138068034D02*
X117249292Y-137797100D01*
X117675044Y-137680986D02*
X117675044Y-138068034D01*
X117675044Y-138068034D02*
X116862244Y-138068034D01*
X116862244Y-138068034D02*
X116862244Y-137680986D01*
X117675044Y-137332644D02*
X116862244Y-137332644D01*
X116862244Y-137332644D02*
X117675044Y-136868187D01*
X117675044Y-136868187D02*
X116862244Y-136868187D01*
X117597635Y-136016682D02*
X117636340Y-136055386D01*
X117636340Y-136055386D02*
X117675044Y-136171501D01*
X117675044Y-136171501D02*
X117675044Y-136248910D01*
X117675044Y-136248910D02*
X117636340Y-136365024D01*
X117636340Y-136365024D02*
X117558930Y-136442434D01*
X117558930Y-136442434D02*
X117481520Y-136481139D01*
X117481520Y-136481139D02*
X117326701Y-136519843D01*
X117326701Y-136519843D02*
X117210587Y-136519843D01*
X117210587Y-136519843D02*
X117055768Y-136481139D01*
X117055768Y-136481139D02*
X116978359Y-136442434D01*
X116978359Y-136442434D02*
X116900949Y-136365024D01*
X116900949Y-136365024D02*
X116862244Y-136248910D01*
X116862244Y-136248910D02*
X116862244Y-136171501D01*
X116862244Y-136171501D02*
X116900949Y-136055386D01*
X116900949Y-136055386D02*
X116939654Y-136016682D01*
X117442816Y-135707043D02*
X117442816Y-135319996D01*
X117675044Y-135784453D02*
X116862244Y-135513520D01*
X116862244Y-135513520D02*
X117675044Y-135242586D01*
D13*
X117721142Y-101038819D02*
X117387809Y-100562628D01*
X117149714Y-101038819D02*
X117149714Y-100038819D01*
X117149714Y-100038819D02*
X117530666Y-100038819D01*
X117530666Y-100038819D02*
X117625904Y-100086438D01*
X117625904Y-100086438D02*
X117673523Y-100134057D01*
X117673523Y-100134057D02*
X117721142Y-100229295D01*
X117721142Y-100229295D02*
X117721142Y-100372152D01*
X117721142Y-100372152D02*
X117673523Y-100467390D01*
X117673523Y-100467390D02*
X117625904Y-100515009D01*
X117625904Y-100515009D02*
X117530666Y-100562628D01*
X117530666Y-100562628D02*
X117149714Y-100562628D01*
X118102095Y-100134057D02*
X118149714Y-100086438D01*
X118149714Y-100086438D02*
X118244952Y-100038819D01*
X118244952Y-100038819D02*
X118483047Y-100038819D01*
X118483047Y-100038819D02*
X118578285Y-100086438D01*
X118578285Y-100086438D02*
X118625904Y-100134057D01*
X118625904Y-100134057D02*
X118673523Y-100229295D01*
X118673523Y-100229295D02*
X118673523Y-100324533D01*
X118673523Y-100324533D02*
X118625904Y-100467390D01*
X118625904Y-100467390D02*
X118054476Y-101038819D01*
X118054476Y-101038819D02*
X118673523Y-101038819D01*
X119625904Y-101038819D02*
X119054476Y-101038819D01*
X119340190Y-101038819D02*
X119340190Y-100038819D01*
X119340190Y-100038819D02*
X119244952Y-100181676D01*
X119244952Y-100181676D02*
X119149714Y-100276914D01*
X119149714Y-100276914D02*
X119054476Y-100324533D01*
X139914333Y-131347380D02*
X139866714Y-131395000D01*
X139866714Y-131395000D02*
X139723857Y-131442619D01*
X139723857Y-131442619D02*
X139628619Y-131442619D01*
X139628619Y-131442619D02*
X139485762Y-131395000D01*
X139485762Y-131395000D02*
X139390524Y-131299761D01*
X139390524Y-131299761D02*
X139342905Y-131204523D01*
X139342905Y-131204523D02*
X139295286Y-131014047D01*
X139295286Y-131014047D02*
X139295286Y-130871190D01*
X139295286Y-130871190D02*
X139342905Y-130680714D01*
X139342905Y-130680714D02*
X139390524Y-130585476D01*
X139390524Y-130585476D02*
X139485762Y-130490238D01*
X139485762Y-130490238D02*
X139628619Y-130442619D01*
X139628619Y-130442619D02*
X139723857Y-130442619D01*
X139723857Y-130442619D02*
X139866714Y-130490238D01*
X139866714Y-130490238D02*
X139914333Y-130537857D01*
X140247667Y-130442619D02*
X140866714Y-130442619D01*
X140866714Y-130442619D02*
X140533381Y-130823571D01*
X140533381Y-130823571D02*
X140676238Y-130823571D01*
X140676238Y-130823571D02*
X140771476Y-130871190D01*
X140771476Y-130871190D02*
X140819095Y-130918809D01*
X140819095Y-130918809D02*
X140866714Y-131014047D01*
X140866714Y-131014047D02*
X140866714Y-131252142D01*
X140866714Y-131252142D02*
X140819095Y-131347380D01*
X140819095Y-131347380D02*
X140771476Y-131395000D01*
X140771476Y-131395000D02*
X140676238Y-131442619D01*
X140676238Y-131442619D02*
X140390524Y-131442619D01*
X140390524Y-131442619D02*
X140295286Y-131395000D01*
X140295286Y-131395000D02*
X140247667Y-131347380D01*
X84909819Y-140755666D02*
X84433628Y-141088999D01*
X84909819Y-141327094D02*
X83909819Y-141327094D01*
X83909819Y-141327094D02*
X83909819Y-140946142D01*
X83909819Y-140946142D02*
X83957438Y-140850904D01*
X83957438Y-140850904D02*
X84005057Y-140803285D01*
X84005057Y-140803285D02*
X84100295Y-140755666D01*
X84100295Y-140755666D02*
X84243152Y-140755666D01*
X84243152Y-140755666D02*
X84338390Y-140803285D01*
X84338390Y-140803285D02*
X84386009Y-140850904D01*
X84386009Y-140850904D02*
X84433628Y-140946142D01*
X84433628Y-140946142D02*
X84433628Y-141327094D01*
X83909819Y-139898523D02*
X83909819Y-140088999D01*
X83909819Y-140088999D02*
X83957438Y-140184237D01*
X83957438Y-140184237D02*
X84005057Y-140231856D01*
X84005057Y-140231856D02*
X84147914Y-140327094D01*
X84147914Y-140327094D02*
X84338390Y-140374713D01*
X84338390Y-140374713D02*
X84719342Y-140374713D01*
X84719342Y-140374713D02*
X84814580Y-140327094D01*
X84814580Y-140327094D02*
X84862200Y-140279475D01*
X84862200Y-140279475D02*
X84909819Y-140184237D01*
X84909819Y-140184237D02*
X84909819Y-139993761D01*
X84909819Y-139993761D02*
X84862200Y-139898523D01*
X84862200Y-139898523D02*
X84814580Y-139850904D01*
X84814580Y-139850904D02*
X84719342Y-139803285D01*
X84719342Y-139803285D02*
X84481247Y-139803285D01*
X84481247Y-139803285D02*
X84386009Y-139850904D01*
X84386009Y-139850904D02*
X84338390Y-139898523D01*
X84338390Y-139898523D02*
X84290771Y-139993761D01*
X84290771Y-139993761D02*
X84290771Y-140184237D01*
X84290771Y-140184237D02*
X84338390Y-140279475D01*
X84338390Y-140279475D02*
X84386009Y-140327094D01*
X84386009Y-140327094D02*
X84481247Y-140374713D01*
X136802905Y-107388819D02*
X136802905Y-106388819D01*
X136802905Y-106388819D02*
X137041000Y-106388819D01*
X137041000Y-106388819D02*
X137183857Y-106436438D01*
X137183857Y-106436438D02*
X137279095Y-106531676D01*
X137279095Y-106531676D02*
X137326714Y-106626914D01*
X137326714Y-106626914D02*
X137374333Y-106817390D01*
X137374333Y-106817390D02*
X137374333Y-106960247D01*
X137374333Y-106960247D02*
X137326714Y-107150723D01*
X137326714Y-107150723D02*
X137279095Y-107245961D01*
X137279095Y-107245961D02*
X137183857Y-107341200D01*
X137183857Y-107341200D02*
X137041000Y-107388819D01*
X137041000Y-107388819D02*
X136802905Y-107388819D01*
X137755286Y-106484057D02*
X137802905Y-106436438D01*
X137802905Y-106436438D02*
X137898143Y-106388819D01*
X137898143Y-106388819D02*
X138136238Y-106388819D01*
X138136238Y-106388819D02*
X138231476Y-106436438D01*
X138231476Y-106436438D02*
X138279095Y-106484057D01*
X138279095Y-106484057D02*
X138326714Y-106579295D01*
X138326714Y-106579295D02*
X138326714Y-106674533D01*
X138326714Y-106674533D02*
X138279095Y-106817390D01*
X138279095Y-106817390D02*
X137707667Y-107388819D01*
X137707667Y-107388819D02*
X138326714Y-107388819D01*
X98512333Y-136300380D02*
X98464714Y-136348000D01*
X98464714Y-136348000D02*
X98321857Y-136395619D01*
X98321857Y-136395619D02*
X98226619Y-136395619D01*
X98226619Y-136395619D02*
X98083762Y-136348000D01*
X98083762Y-136348000D02*
X97988524Y-136252761D01*
X97988524Y-136252761D02*
X97940905Y-136157523D01*
X97940905Y-136157523D02*
X97893286Y-135967047D01*
X97893286Y-135967047D02*
X97893286Y-135824190D01*
X97893286Y-135824190D02*
X97940905Y-135633714D01*
X97940905Y-135633714D02*
X97988524Y-135538476D01*
X97988524Y-135538476D02*
X98083762Y-135443238D01*
X98083762Y-135443238D02*
X98226619Y-135395619D01*
X98226619Y-135395619D02*
X98321857Y-135395619D01*
X98321857Y-135395619D02*
X98464714Y-135443238D01*
X98464714Y-135443238D02*
X98512333Y-135490857D01*
X98845667Y-135395619D02*
X99512333Y-135395619D01*
X99512333Y-135395619D02*
X99083762Y-136395619D01*
X143343333Y-106753819D02*
X143010000Y-106277628D01*
X142771905Y-106753819D02*
X142771905Y-105753819D01*
X142771905Y-105753819D02*
X143152857Y-105753819D01*
X143152857Y-105753819D02*
X143248095Y-105801438D01*
X143248095Y-105801438D02*
X143295714Y-105849057D01*
X143295714Y-105849057D02*
X143343333Y-105944295D01*
X143343333Y-105944295D02*
X143343333Y-106087152D01*
X143343333Y-106087152D02*
X143295714Y-106182390D01*
X143295714Y-106182390D02*
X143248095Y-106230009D01*
X143248095Y-106230009D02*
X143152857Y-106277628D01*
X143152857Y-106277628D02*
X142771905Y-106277628D01*
X143676667Y-105753819D02*
X144295714Y-105753819D01*
X144295714Y-105753819D02*
X143962381Y-106134771D01*
X143962381Y-106134771D02*
X144105238Y-106134771D01*
X144105238Y-106134771D02*
X144200476Y-106182390D01*
X144200476Y-106182390D02*
X144248095Y-106230009D01*
X144248095Y-106230009D02*
X144295714Y-106325247D01*
X144295714Y-106325247D02*
X144295714Y-106563342D01*
X144295714Y-106563342D02*
X144248095Y-106658580D01*
X144248095Y-106658580D02*
X144200476Y-106706200D01*
X144200476Y-106706200D02*
X144105238Y-106753819D01*
X144105238Y-106753819D02*
X143819524Y-106753819D01*
X143819524Y-106753819D02*
X143724286Y-106706200D01*
X143724286Y-106706200D02*
X143676667Y-106658580D01*
X113097342Y-130172619D02*
X112764009Y-129696428D01*
X112525914Y-130172619D02*
X112525914Y-129172619D01*
X112525914Y-129172619D02*
X112906866Y-129172619D01*
X112906866Y-129172619D02*
X113002104Y-129220238D01*
X113002104Y-129220238D02*
X113049723Y-129267857D01*
X113049723Y-129267857D02*
X113097342Y-129363095D01*
X113097342Y-129363095D02*
X113097342Y-129505952D01*
X113097342Y-129505952D02*
X113049723Y-129601190D01*
X113049723Y-129601190D02*
X113002104Y-129648809D01*
X113002104Y-129648809D02*
X112906866Y-129696428D01*
X112906866Y-129696428D02*
X112525914Y-129696428D01*
X114049723Y-130172619D02*
X113478295Y-130172619D01*
X113764009Y-130172619D02*
X113764009Y-129172619D01*
X113764009Y-129172619D02*
X113668771Y-129315476D01*
X113668771Y-129315476D02*
X113573533Y-129410714D01*
X113573533Y-129410714D02*
X113478295Y-129458333D01*
X114906866Y-129172619D02*
X114716390Y-129172619D01*
X114716390Y-129172619D02*
X114621152Y-129220238D01*
X114621152Y-129220238D02*
X114573533Y-129267857D01*
X114573533Y-129267857D02*
X114478295Y-129410714D01*
X114478295Y-129410714D02*
X114430676Y-129601190D01*
X114430676Y-129601190D02*
X114430676Y-129982142D01*
X114430676Y-129982142D02*
X114478295Y-130077380D01*
X114478295Y-130077380D02*
X114525914Y-130125000D01*
X114525914Y-130125000D02*
X114621152Y-130172619D01*
X114621152Y-130172619D02*
X114811628Y-130172619D01*
X114811628Y-130172619D02*
X114906866Y-130125000D01*
X114906866Y-130125000D02*
X114954485Y-130077380D01*
X114954485Y-130077380D02*
X115002104Y-129982142D01*
X115002104Y-129982142D02*
X115002104Y-129744047D01*
X115002104Y-129744047D02*
X114954485Y-129648809D01*
X114954485Y-129648809D02*
X114906866Y-129601190D01*
X114906866Y-129601190D02*
X114811628Y-129553571D01*
X114811628Y-129553571D02*
X114621152Y-129553571D01*
X114621152Y-129553571D02*
X114525914Y-129601190D01*
X114525914Y-129601190D02*
X114478295Y-129648809D01*
X114478295Y-129648809D02*
X114430676Y-129744047D01*
X128084342Y-93114019D02*
X127751009Y-92637828D01*
X127512914Y-93114019D02*
X127512914Y-92114019D01*
X127512914Y-92114019D02*
X127893866Y-92114019D01*
X127893866Y-92114019D02*
X127989104Y-92161638D01*
X127989104Y-92161638D02*
X128036723Y-92209257D01*
X128036723Y-92209257D02*
X128084342Y-92304495D01*
X128084342Y-92304495D02*
X128084342Y-92447352D01*
X128084342Y-92447352D02*
X128036723Y-92542590D01*
X128036723Y-92542590D02*
X127989104Y-92590209D01*
X127989104Y-92590209D02*
X127893866Y-92637828D01*
X127893866Y-92637828D02*
X127512914Y-92637828D01*
X128465295Y-92209257D02*
X128512914Y-92161638D01*
X128512914Y-92161638D02*
X128608152Y-92114019D01*
X128608152Y-92114019D02*
X128846247Y-92114019D01*
X128846247Y-92114019D02*
X128941485Y-92161638D01*
X128941485Y-92161638D02*
X128989104Y-92209257D01*
X128989104Y-92209257D02*
X129036723Y-92304495D01*
X129036723Y-92304495D02*
X129036723Y-92399733D01*
X129036723Y-92399733D02*
X128989104Y-92542590D01*
X128989104Y-92542590D02*
X128417676Y-93114019D01*
X128417676Y-93114019D02*
X129036723Y-93114019D01*
X129608152Y-92542590D02*
X129512914Y-92494971D01*
X129512914Y-92494971D02*
X129465295Y-92447352D01*
X129465295Y-92447352D02*
X129417676Y-92352114D01*
X129417676Y-92352114D02*
X129417676Y-92304495D01*
X129417676Y-92304495D02*
X129465295Y-92209257D01*
X129465295Y-92209257D02*
X129512914Y-92161638D01*
X129512914Y-92161638D02*
X129608152Y-92114019D01*
X129608152Y-92114019D02*
X129798628Y-92114019D01*
X129798628Y-92114019D02*
X129893866Y-92161638D01*
X129893866Y-92161638D02*
X129941485Y-92209257D01*
X129941485Y-92209257D02*
X129989104Y-92304495D01*
X129989104Y-92304495D02*
X129989104Y-92352114D01*
X129989104Y-92352114D02*
X129941485Y-92447352D01*
X129941485Y-92447352D02*
X129893866Y-92494971D01*
X129893866Y-92494971D02*
X129798628Y-92542590D01*
X129798628Y-92542590D02*
X129608152Y-92542590D01*
X129608152Y-92542590D02*
X129512914Y-92590209D01*
X129512914Y-92590209D02*
X129465295Y-92637828D01*
X129465295Y-92637828D02*
X129417676Y-92733066D01*
X129417676Y-92733066D02*
X129417676Y-92923542D01*
X129417676Y-92923542D02*
X129465295Y-93018780D01*
X129465295Y-93018780D02*
X129512914Y-93066400D01*
X129512914Y-93066400D02*
X129608152Y-93114019D01*
X129608152Y-93114019D02*
X129798628Y-93114019D01*
X129798628Y-93114019D02*
X129893866Y-93066400D01*
X129893866Y-93066400D02*
X129941485Y-93018780D01*
X129941485Y-93018780D02*
X129989104Y-92923542D01*
X129989104Y-92923542D02*
X129989104Y-92733066D01*
X129989104Y-92733066D02*
X129941485Y-92637828D01*
X129941485Y-92637828D02*
X129893866Y-92590209D01*
X129893866Y-92590209D02*
X129798628Y-92542590D01*
X97482819Y-140755666D02*
X97006628Y-141088999D01*
X97482819Y-141327094D02*
X96482819Y-141327094D01*
X96482819Y-141327094D02*
X96482819Y-140946142D01*
X96482819Y-140946142D02*
X96530438Y-140850904D01*
X96530438Y-140850904D02*
X96578057Y-140803285D01*
X96578057Y-140803285D02*
X96673295Y-140755666D01*
X96673295Y-140755666D02*
X96816152Y-140755666D01*
X96816152Y-140755666D02*
X96911390Y-140803285D01*
X96911390Y-140803285D02*
X96959009Y-140850904D01*
X96959009Y-140850904D02*
X97006628Y-140946142D01*
X97006628Y-140946142D02*
X97006628Y-141327094D01*
X96482819Y-139850904D02*
X96482819Y-140327094D01*
X96482819Y-140327094D02*
X96959009Y-140374713D01*
X96959009Y-140374713D02*
X96911390Y-140327094D01*
X96911390Y-140327094D02*
X96863771Y-140231856D01*
X96863771Y-140231856D02*
X96863771Y-139993761D01*
X96863771Y-139993761D02*
X96911390Y-139898523D01*
X96911390Y-139898523D02*
X96959009Y-139850904D01*
X96959009Y-139850904D02*
X97054247Y-139803285D01*
X97054247Y-139803285D02*
X97292342Y-139803285D01*
X97292342Y-139803285D02*
X97387580Y-139850904D01*
X97387580Y-139850904D02*
X97435200Y-139898523D01*
X97435200Y-139898523D02*
X97482819Y-139993761D01*
X97482819Y-139993761D02*
X97482819Y-140231856D01*
X97482819Y-140231856D02*
X97435200Y-140327094D01*
X97435200Y-140327094D02*
X97387580Y-140374713D01*
X79335433Y-140815219D02*
X78859243Y-140815219D01*
X78859243Y-140815219D02*
X78859243Y-139815219D01*
X80192576Y-140815219D02*
X79621148Y-140815219D01*
X79906862Y-140815219D02*
X79906862Y-139815219D01*
X79906862Y-139815219D02*
X79811624Y-139958076D01*
X79811624Y-139958076D02*
X79716386Y-140053314D01*
X79716386Y-140053314D02*
X79621148Y-140100933D01*
X126611142Y-99768819D02*
X126277809Y-99292628D01*
X126039714Y-99768819D02*
X126039714Y-98768819D01*
X126039714Y-98768819D02*
X126420666Y-98768819D01*
X126420666Y-98768819D02*
X126515904Y-98816438D01*
X126515904Y-98816438D02*
X126563523Y-98864057D01*
X126563523Y-98864057D02*
X126611142Y-98959295D01*
X126611142Y-98959295D02*
X126611142Y-99102152D01*
X126611142Y-99102152D02*
X126563523Y-99197390D01*
X126563523Y-99197390D02*
X126515904Y-99245009D01*
X126515904Y-99245009D02*
X126420666Y-99292628D01*
X126420666Y-99292628D02*
X126039714Y-99292628D01*
X126992095Y-98864057D02*
X127039714Y-98816438D01*
X127039714Y-98816438D02*
X127134952Y-98768819D01*
X127134952Y-98768819D02*
X127373047Y-98768819D01*
X127373047Y-98768819D02*
X127468285Y-98816438D01*
X127468285Y-98816438D02*
X127515904Y-98864057D01*
X127515904Y-98864057D02*
X127563523Y-98959295D01*
X127563523Y-98959295D02*
X127563523Y-99054533D01*
X127563523Y-99054533D02*
X127515904Y-99197390D01*
X127515904Y-99197390D02*
X126944476Y-99768819D01*
X126944476Y-99768819D02*
X127563523Y-99768819D01*
X128420666Y-99102152D02*
X128420666Y-99768819D01*
X128182571Y-98721200D02*
X127944476Y-99435485D01*
X127944476Y-99435485D02*
X128563523Y-99435485D01*
X111015542Y-125295819D02*
X110682209Y-124819628D01*
X110444114Y-125295819D02*
X110444114Y-124295819D01*
X110444114Y-124295819D02*
X110825066Y-124295819D01*
X110825066Y-124295819D02*
X110920304Y-124343438D01*
X110920304Y-124343438D02*
X110967923Y-124391057D01*
X110967923Y-124391057D02*
X111015542Y-124486295D01*
X111015542Y-124486295D02*
X111015542Y-124629152D01*
X111015542Y-124629152D02*
X110967923Y-124724390D01*
X110967923Y-124724390D02*
X110920304Y-124772009D01*
X110920304Y-124772009D02*
X110825066Y-124819628D01*
X110825066Y-124819628D02*
X110444114Y-124819628D01*
X111396495Y-124391057D02*
X111444114Y-124343438D01*
X111444114Y-124343438D02*
X111539352Y-124295819D01*
X111539352Y-124295819D02*
X111777447Y-124295819D01*
X111777447Y-124295819D02*
X111872685Y-124343438D01*
X111872685Y-124343438D02*
X111920304Y-124391057D01*
X111920304Y-124391057D02*
X111967923Y-124486295D01*
X111967923Y-124486295D02*
X111967923Y-124581533D01*
X111967923Y-124581533D02*
X111920304Y-124724390D01*
X111920304Y-124724390D02*
X111348876Y-125295819D01*
X111348876Y-125295819D02*
X111967923Y-125295819D01*
X112586971Y-124295819D02*
X112682209Y-124295819D01*
X112682209Y-124295819D02*
X112777447Y-124343438D01*
X112777447Y-124343438D02*
X112825066Y-124391057D01*
X112825066Y-124391057D02*
X112872685Y-124486295D01*
X112872685Y-124486295D02*
X112920304Y-124676771D01*
X112920304Y-124676771D02*
X112920304Y-124914866D01*
X112920304Y-124914866D02*
X112872685Y-125105342D01*
X112872685Y-125105342D02*
X112825066Y-125200580D01*
X112825066Y-125200580D02*
X112777447Y-125248200D01*
X112777447Y-125248200D02*
X112682209Y-125295819D01*
X112682209Y-125295819D02*
X112586971Y-125295819D01*
X112586971Y-125295819D02*
X112491733Y-125248200D01*
X112491733Y-125248200D02*
X112444114Y-125200580D01*
X112444114Y-125200580D02*
X112396495Y-125105342D01*
X112396495Y-125105342D02*
X112348876Y-124914866D01*
X112348876Y-124914866D02*
X112348876Y-124676771D01*
X112348876Y-124676771D02*
X112396495Y-124486295D01*
X112396495Y-124486295D02*
X112444114Y-124391057D01*
X112444114Y-124391057D02*
X112491733Y-124343438D01*
X112491733Y-124343438D02*
X112586971Y-124295819D01*
X143470333Y-104975819D02*
X143137000Y-104499628D01*
X142898905Y-104975819D02*
X142898905Y-103975819D01*
X142898905Y-103975819D02*
X143279857Y-103975819D01*
X143279857Y-103975819D02*
X143375095Y-104023438D01*
X143375095Y-104023438D02*
X143422714Y-104071057D01*
X143422714Y-104071057D02*
X143470333Y-104166295D01*
X143470333Y-104166295D02*
X143470333Y-104309152D01*
X143470333Y-104309152D02*
X143422714Y-104404390D01*
X143422714Y-104404390D02*
X143375095Y-104452009D01*
X143375095Y-104452009D02*
X143279857Y-104499628D01*
X143279857Y-104499628D02*
X142898905Y-104499628D01*
X143851286Y-104071057D02*
X143898905Y-104023438D01*
X143898905Y-104023438D02*
X143994143Y-103975819D01*
X143994143Y-103975819D02*
X144232238Y-103975819D01*
X144232238Y-103975819D02*
X144327476Y-104023438D01*
X144327476Y-104023438D02*
X144375095Y-104071057D01*
X144375095Y-104071057D02*
X144422714Y-104166295D01*
X144422714Y-104166295D02*
X144422714Y-104261533D01*
X144422714Y-104261533D02*
X144375095Y-104404390D01*
X144375095Y-104404390D02*
X143803667Y-104975819D01*
X143803667Y-104975819D02*
X144422714Y-104975819D01*
X135286761Y-91812257D02*
X135191523Y-91764638D01*
X135191523Y-91764638D02*
X135096285Y-91669400D01*
X135096285Y-91669400D02*
X134953428Y-91526542D01*
X134953428Y-91526542D02*
X134858190Y-91478923D01*
X134858190Y-91478923D02*
X134762952Y-91478923D01*
X134810571Y-91717019D02*
X134715333Y-91669400D01*
X134715333Y-91669400D02*
X134620095Y-91574161D01*
X134620095Y-91574161D02*
X134572476Y-91383685D01*
X134572476Y-91383685D02*
X134572476Y-91050352D01*
X134572476Y-91050352D02*
X134620095Y-90859876D01*
X134620095Y-90859876D02*
X134715333Y-90764638D01*
X134715333Y-90764638D02*
X134810571Y-90717019D01*
X134810571Y-90717019D02*
X135001047Y-90717019D01*
X135001047Y-90717019D02*
X135096285Y-90764638D01*
X135096285Y-90764638D02*
X135191523Y-90859876D01*
X135191523Y-90859876D02*
X135239142Y-91050352D01*
X135239142Y-91050352D02*
X135239142Y-91383685D01*
X135239142Y-91383685D02*
X135191523Y-91574161D01*
X135191523Y-91574161D02*
X135096285Y-91669400D01*
X135096285Y-91669400D02*
X135001047Y-91717019D01*
X135001047Y-91717019D02*
X134810571Y-91717019D01*
X136191523Y-91717019D02*
X135620095Y-91717019D01*
X135905809Y-91717019D02*
X135905809Y-90717019D01*
X135905809Y-90717019D02*
X135810571Y-90859876D01*
X135810571Y-90859876D02*
X135715333Y-90955114D01*
X135715333Y-90955114D02*
X135620095Y-91002733D01*
X133062742Y-135930819D02*
X132729409Y-135454628D01*
X132491314Y-135930819D02*
X132491314Y-134930819D01*
X132491314Y-134930819D02*
X132872266Y-134930819D01*
X132872266Y-134930819D02*
X132967504Y-134978438D01*
X132967504Y-134978438D02*
X133015123Y-135026057D01*
X133015123Y-135026057D02*
X133062742Y-135121295D01*
X133062742Y-135121295D02*
X133062742Y-135264152D01*
X133062742Y-135264152D02*
X133015123Y-135359390D01*
X133015123Y-135359390D02*
X132967504Y-135407009D01*
X132967504Y-135407009D02*
X132872266Y-135454628D01*
X132872266Y-135454628D02*
X132491314Y-135454628D01*
X134015123Y-135930819D02*
X133443695Y-135930819D01*
X133729409Y-135930819D02*
X133729409Y-134930819D01*
X133729409Y-134930819D02*
X133634171Y-135073676D01*
X133634171Y-135073676D02*
X133538933Y-135168914D01*
X133538933Y-135168914D02*
X133443695Y-135216533D01*
X134919885Y-134930819D02*
X134443695Y-134930819D01*
X134443695Y-134930819D02*
X134396076Y-135407009D01*
X134396076Y-135407009D02*
X134443695Y-135359390D01*
X134443695Y-135359390D02*
X134538933Y-135311771D01*
X134538933Y-135311771D02*
X134777028Y-135311771D01*
X134777028Y-135311771D02*
X134872266Y-135359390D01*
X134872266Y-135359390D02*
X134919885Y-135407009D01*
X134919885Y-135407009D02*
X134967504Y-135502247D01*
X134967504Y-135502247D02*
X134967504Y-135740342D01*
X134967504Y-135740342D02*
X134919885Y-135835580D01*
X134919885Y-135835580D02*
X134872266Y-135883200D01*
X134872266Y-135883200D02*
X134777028Y-135930819D01*
X134777028Y-135930819D02*
X134538933Y-135930819D01*
X134538933Y-135930819D02*
X134443695Y-135883200D01*
X134443695Y-135883200D02*
X134396076Y-135835580D01*
X98195133Y-130706019D02*
X97861800Y-130229828D01*
X97623705Y-130706019D02*
X97623705Y-129706019D01*
X97623705Y-129706019D02*
X98004657Y-129706019D01*
X98004657Y-129706019D02*
X98099895Y-129753638D01*
X98099895Y-129753638D02*
X98147514Y-129801257D01*
X98147514Y-129801257D02*
X98195133Y-129896495D01*
X98195133Y-129896495D02*
X98195133Y-130039352D01*
X98195133Y-130039352D02*
X98147514Y-130134590D01*
X98147514Y-130134590D02*
X98099895Y-130182209D01*
X98099895Y-130182209D02*
X98004657Y-130229828D01*
X98004657Y-130229828D02*
X97623705Y-130229828D01*
X98766562Y-130134590D02*
X98671324Y-130086971D01*
X98671324Y-130086971D02*
X98623705Y-130039352D01*
X98623705Y-130039352D02*
X98576086Y-129944114D01*
X98576086Y-129944114D02*
X98576086Y-129896495D01*
X98576086Y-129896495D02*
X98623705Y-129801257D01*
X98623705Y-129801257D02*
X98671324Y-129753638D01*
X98671324Y-129753638D02*
X98766562Y-129706019D01*
X98766562Y-129706019D02*
X98957038Y-129706019D01*
X98957038Y-129706019D02*
X99052276Y-129753638D01*
X99052276Y-129753638D02*
X99099895Y-129801257D01*
X99099895Y-129801257D02*
X99147514Y-129896495D01*
X99147514Y-129896495D02*
X99147514Y-129944114D01*
X99147514Y-129944114D02*
X99099895Y-130039352D01*
X99099895Y-130039352D02*
X99052276Y-130086971D01*
X99052276Y-130086971D02*
X98957038Y-130134590D01*
X98957038Y-130134590D02*
X98766562Y-130134590D01*
X98766562Y-130134590D02*
X98671324Y-130182209D01*
X98671324Y-130182209D02*
X98623705Y-130229828D01*
X98623705Y-130229828D02*
X98576086Y-130325066D01*
X98576086Y-130325066D02*
X98576086Y-130515542D01*
X98576086Y-130515542D02*
X98623705Y-130610780D01*
X98623705Y-130610780D02*
X98671324Y-130658400D01*
X98671324Y-130658400D02*
X98766562Y-130706019D01*
X98766562Y-130706019D02*
X98957038Y-130706019D01*
X98957038Y-130706019D02*
X99052276Y-130658400D01*
X99052276Y-130658400D02*
X99099895Y-130610780D01*
X99099895Y-130610780D02*
X99147514Y-130515542D01*
X99147514Y-130515542D02*
X99147514Y-130325066D01*
X99147514Y-130325066D02*
X99099895Y-130229828D01*
X99099895Y-130229828D02*
X99052276Y-130182209D01*
X99052276Y-130182209D02*
X98957038Y-130134590D01*
X78613095Y-91910819D02*
X78613095Y-92720342D01*
X78613095Y-92720342D02*
X78660714Y-92815580D01*
X78660714Y-92815580D02*
X78708333Y-92863200D01*
X78708333Y-92863200D02*
X78803571Y-92910819D01*
X78803571Y-92910819D02*
X78994047Y-92910819D01*
X78994047Y-92910819D02*
X79089285Y-92863200D01*
X79089285Y-92863200D02*
X79136904Y-92815580D01*
X79136904Y-92815580D02*
X79184523Y-92720342D01*
X79184523Y-92720342D02*
X79184523Y-91910819D01*
X80089285Y-91910819D02*
X79898809Y-91910819D01*
X79898809Y-91910819D02*
X79803571Y-91958438D01*
X79803571Y-91958438D02*
X79755952Y-92006057D01*
X79755952Y-92006057D02*
X79660714Y-92148914D01*
X79660714Y-92148914D02*
X79613095Y-92339390D01*
X79613095Y-92339390D02*
X79613095Y-92720342D01*
X79613095Y-92720342D02*
X79660714Y-92815580D01*
X79660714Y-92815580D02*
X79708333Y-92863200D01*
X79708333Y-92863200D02*
X79803571Y-92910819D01*
X79803571Y-92910819D02*
X79994047Y-92910819D01*
X79994047Y-92910819D02*
X80089285Y-92863200D01*
X80089285Y-92863200D02*
X80136904Y-92815580D01*
X80136904Y-92815580D02*
X80184523Y-92720342D01*
X80184523Y-92720342D02*
X80184523Y-92482247D01*
X80184523Y-92482247D02*
X80136904Y-92387009D01*
X80136904Y-92387009D02*
X80089285Y-92339390D01*
X80089285Y-92339390D02*
X79994047Y-92291771D01*
X79994047Y-92291771D02*
X79803571Y-92291771D01*
X79803571Y-92291771D02*
X79708333Y-92339390D01*
X79708333Y-92339390D02*
X79660714Y-92387009D01*
X79660714Y-92387009D02*
X79613095Y-92482247D01*
X126255542Y-90783580D02*
X126207923Y-90831200D01*
X126207923Y-90831200D02*
X126065066Y-90878819D01*
X126065066Y-90878819D02*
X125969828Y-90878819D01*
X125969828Y-90878819D02*
X125826971Y-90831200D01*
X125826971Y-90831200D02*
X125731733Y-90735961D01*
X125731733Y-90735961D02*
X125684114Y-90640723D01*
X125684114Y-90640723D02*
X125636495Y-90450247D01*
X125636495Y-90450247D02*
X125636495Y-90307390D01*
X125636495Y-90307390D02*
X125684114Y-90116914D01*
X125684114Y-90116914D02*
X125731733Y-90021676D01*
X125731733Y-90021676D02*
X125826971Y-89926438D01*
X125826971Y-89926438D02*
X125969828Y-89878819D01*
X125969828Y-89878819D02*
X126065066Y-89878819D01*
X126065066Y-89878819D02*
X126207923Y-89926438D01*
X126207923Y-89926438D02*
X126255542Y-89974057D01*
X127207923Y-90878819D02*
X126636495Y-90878819D01*
X126922209Y-90878819D02*
X126922209Y-89878819D01*
X126922209Y-89878819D02*
X126826971Y-90021676D01*
X126826971Y-90021676D02*
X126731733Y-90116914D01*
X126731733Y-90116914D02*
X126636495Y-90164533D01*
X128112685Y-89878819D02*
X127636495Y-89878819D01*
X127636495Y-89878819D02*
X127588876Y-90355009D01*
X127588876Y-90355009D02*
X127636495Y-90307390D01*
X127636495Y-90307390D02*
X127731733Y-90259771D01*
X127731733Y-90259771D02*
X127969828Y-90259771D01*
X127969828Y-90259771D02*
X128065066Y-90307390D01*
X128065066Y-90307390D02*
X128112685Y-90355009D01*
X128112685Y-90355009D02*
X128160304Y-90450247D01*
X128160304Y-90450247D02*
X128160304Y-90688342D01*
X128160304Y-90688342D02*
X128112685Y-90783580D01*
X128112685Y-90783580D02*
X128065066Y-90831200D01*
X128065066Y-90831200D02*
X127969828Y-90878819D01*
X127969828Y-90878819D02*
X127731733Y-90878819D01*
X127731733Y-90878819D02*
X127636495Y-90831200D01*
X127636495Y-90831200D02*
X127588876Y-90783580D01*
X112718342Y-131849680D02*
X112670723Y-131897300D01*
X112670723Y-131897300D02*
X112527866Y-131944919D01*
X112527866Y-131944919D02*
X112432628Y-131944919D01*
X112432628Y-131944919D02*
X112289771Y-131897300D01*
X112289771Y-131897300D02*
X112194533Y-131802061D01*
X112194533Y-131802061D02*
X112146914Y-131706823D01*
X112146914Y-131706823D02*
X112099295Y-131516347D01*
X112099295Y-131516347D02*
X112099295Y-131373490D01*
X112099295Y-131373490D02*
X112146914Y-131183014D01*
X112146914Y-131183014D02*
X112194533Y-131087776D01*
X112194533Y-131087776D02*
X112289771Y-130992538D01*
X112289771Y-130992538D02*
X112432628Y-130944919D01*
X112432628Y-130944919D02*
X112527866Y-130944919D01*
X112527866Y-130944919D02*
X112670723Y-130992538D01*
X112670723Y-130992538D02*
X112718342Y-131040157D01*
X113670723Y-131944919D02*
X113099295Y-131944919D01*
X113385009Y-131944919D02*
X113385009Y-130944919D01*
X113385009Y-130944919D02*
X113289771Y-131087776D01*
X113289771Y-131087776D02*
X113194533Y-131183014D01*
X113194533Y-131183014D02*
X113099295Y-131230633D01*
X114051676Y-131040157D02*
X114099295Y-130992538D01*
X114099295Y-130992538D02*
X114194533Y-130944919D01*
X114194533Y-130944919D02*
X114432628Y-130944919D01*
X114432628Y-130944919D02*
X114527866Y-130992538D01*
X114527866Y-130992538D02*
X114575485Y-131040157D01*
X114575485Y-131040157D02*
X114623104Y-131135395D01*
X114623104Y-131135395D02*
X114623104Y-131230633D01*
X114623104Y-131230633D02*
X114575485Y-131373490D01*
X114575485Y-131373490D02*
X114004057Y-131944919D01*
X114004057Y-131944919D02*
X114623104Y-131944919D01*
X135001095Y-112181819D02*
X135001095Y-112991342D01*
X135001095Y-112991342D02*
X135048714Y-113086580D01*
X135048714Y-113086580D02*
X135096333Y-113134200D01*
X135096333Y-113134200D02*
X135191571Y-113181819D01*
X135191571Y-113181819D02*
X135382047Y-113181819D01*
X135382047Y-113181819D02*
X135477285Y-113134200D01*
X135477285Y-113134200D02*
X135524904Y-113086580D01*
X135524904Y-113086580D02*
X135572523Y-112991342D01*
X135572523Y-112991342D02*
X135572523Y-112181819D01*
X136001095Y-112277057D02*
X136048714Y-112229438D01*
X136048714Y-112229438D02*
X136143952Y-112181819D01*
X136143952Y-112181819D02*
X136382047Y-112181819D01*
X136382047Y-112181819D02*
X136477285Y-112229438D01*
X136477285Y-112229438D02*
X136524904Y-112277057D01*
X136524904Y-112277057D02*
X136572523Y-112372295D01*
X136572523Y-112372295D02*
X136572523Y-112467533D01*
X136572523Y-112467533D02*
X136524904Y-112610390D01*
X136524904Y-112610390D02*
X135953476Y-113181819D01*
X135953476Y-113181819D02*
X136572523Y-113181819D01*
X143321161Y-95476219D02*
X142987828Y-95000028D01*
X142749733Y-95476219D02*
X142749733Y-94476219D01*
X142749733Y-94476219D02*
X143130685Y-94476219D01*
X143130685Y-94476219D02*
X143225923Y-94523838D01*
X143225923Y-94523838D02*
X143273542Y-94571457D01*
X143273542Y-94571457D02*
X143321161Y-94666695D01*
X143321161Y-94666695D02*
X143321161Y-94809552D01*
X143321161Y-94809552D02*
X143273542Y-94904790D01*
X143273542Y-94904790D02*
X143225923Y-94952409D01*
X143225923Y-94952409D02*
X143130685Y-95000028D01*
X143130685Y-95000028D02*
X142749733Y-95000028D01*
X143606876Y-94476219D02*
X143940209Y-95476219D01*
X143940209Y-95476219D02*
X144273542Y-94476219D01*
X145130685Y-95476219D02*
X144559257Y-95476219D01*
X144844971Y-95476219D02*
X144844971Y-94476219D01*
X144844971Y-94476219D02*
X144749733Y-94619076D01*
X144749733Y-94619076D02*
X144654495Y-94714314D01*
X144654495Y-94714314D02*
X144559257Y-94761933D01*
X107547942Y-137945019D02*
X107214609Y-137468828D01*
X106976514Y-137945019D02*
X106976514Y-136945019D01*
X106976514Y-136945019D02*
X107357466Y-136945019D01*
X107357466Y-136945019D02*
X107452704Y-136992638D01*
X107452704Y-136992638D02*
X107500323Y-137040257D01*
X107500323Y-137040257D02*
X107547942Y-137135495D01*
X107547942Y-137135495D02*
X107547942Y-137278352D01*
X107547942Y-137278352D02*
X107500323Y-137373590D01*
X107500323Y-137373590D02*
X107452704Y-137421209D01*
X107452704Y-137421209D02*
X107357466Y-137468828D01*
X107357466Y-137468828D02*
X106976514Y-137468828D01*
X108500323Y-137945019D02*
X107928895Y-137945019D01*
X108214609Y-137945019D02*
X108214609Y-136945019D01*
X108214609Y-136945019D02*
X108119371Y-137087876D01*
X108119371Y-137087876D02*
X108024133Y-137183114D01*
X108024133Y-137183114D02*
X107928895Y-137230733D01*
X109119371Y-136945019D02*
X109214609Y-136945019D01*
X109214609Y-136945019D02*
X109309847Y-136992638D01*
X109309847Y-136992638D02*
X109357466Y-137040257D01*
X109357466Y-137040257D02*
X109405085Y-137135495D01*
X109405085Y-137135495D02*
X109452704Y-137325971D01*
X109452704Y-137325971D02*
X109452704Y-137564066D01*
X109452704Y-137564066D02*
X109405085Y-137754542D01*
X109405085Y-137754542D02*
X109357466Y-137849780D01*
X109357466Y-137849780D02*
X109309847Y-137897400D01*
X109309847Y-137897400D02*
X109214609Y-137945019D01*
X109214609Y-137945019D02*
X109119371Y-137945019D01*
X109119371Y-137945019D02*
X109024133Y-137897400D01*
X109024133Y-137897400D02*
X108976514Y-137849780D01*
X108976514Y-137849780D02*
X108928895Y-137754542D01*
X108928895Y-137754542D02*
X108881276Y-137564066D01*
X108881276Y-137564066D02*
X108881276Y-137325971D01*
X108881276Y-137325971D02*
X108928895Y-137135495D01*
X108928895Y-137135495D02*
X108976514Y-137040257D01*
X108976514Y-137040257D02*
X109024133Y-136992638D01*
X109024133Y-136992638D02*
X109119371Y-136945019D01*
X91184505Y-113230819D02*
X91184505Y-112230819D01*
X91184505Y-112230819D02*
X91422600Y-112230819D01*
X91422600Y-112230819D02*
X91565457Y-112278438D01*
X91565457Y-112278438D02*
X91660695Y-112373676D01*
X91660695Y-112373676D02*
X91708314Y-112468914D01*
X91708314Y-112468914D02*
X91755933Y-112659390D01*
X91755933Y-112659390D02*
X91755933Y-112802247D01*
X91755933Y-112802247D02*
X91708314Y-112992723D01*
X91708314Y-112992723D02*
X91660695Y-113087961D01*
X91660695Y-113087961D02*
X91565457Y-113183200D01*
X91565457Y-113183200D02*
X91422600Y-113230819D01*
X91422600Y-113230819D02*
X91184505Y-113230819D01*
X92708314Y-113230819D02*
X92136886Y-113230819D01*
X92422600Y-113230819D02*
X92422600Y-112230819D01*
X92422600Y-112230819D02*
X92327362Y-112373676D01*
X92327362Y-112373676D02*
X92232124Y-112468914D01*
X92232124Y-112468914D02*
X92136886Y-112516533D01*
X113150142Y-135076719D02*
X112816809Y-134600528D01*
X112578714Y-135076719D02*
X112578714Y-134076719D01*
X112578714Y-134076719D02*
X112959666Y-134076719D01*
X112959666Y-134076719D02*
X113054904Y-134124338D01*
X113054904Y-134124338D02*
X113102523Y-134171957D01*
X113102523Y-134171957D02*
X113150142Y-134267195D01*
X113150142Y-134267195D02*
X113150142Y-134410052D01*
X113150142Y-134410052D02*
X113102523Y-134505290D01*
X113102523Y-134505290D02*
X113054904Y-134552909D01*
X113054904Y-134552909D02*
X112959666Y-134600528D01*
X112959666Y-134600528D02*
X112578714Y-134600528D01*
X114102523Y-135076719D02*
X113531095Y-135076719D01*
X113816809Y-135076719D02*
X113816809Y-134076719D01*
X113816809Y-134076719D02*
X113721571Y-134219576D01*
X113721571Y-134219576D02*
X113626333Y-134314814D01*
X113626333Y-134314814D02*
X113531095Y-134362433D01*
X114483476Y-134171957D02*
X114531095Y-134124338D01*
X114531095Y-134124338D02*
X114626333Y-134076719D01*
X114626333Y-134076719D02*
X114864428Y-134076719D01*
X114864428Y-134076719D02*
X114959666Y-134124338D01*
X114959666Y-134124338D02*
X115007285Y-134171957D01*
X115007285Y-134171957D02*
X115054904Y-134267195D01*
X115054904Y-134267195D02*
X115054904Y-134362433D01*
X115054904Y-134362433D02*
X115007285Y-134505290D01*
X115007285Y-134505290D02*
X114435857Y-135076719D01*
X114435857Y-135076719D02*
X115054904Y-135076719D01*
X80757833Y-137316380D02*
X80710214Y-137364000D01*
X80710214Y-137364000D02*
X80567357Y-137411619D01*
X80567357Y-137411619D02*
X80472119Y-137411619D01*
X80472119Y-137411619D02*
X80329262Y-137364000D01*
X80329262Y-137364000D02*
X80234024Y-137268761D01*
X80234024Y-137268761D02*
X80186405Y-137173523D01*
X80186405Y-137173523D02*
X80138786Y-136983047D01*
X80138786Y-136983047D02*
X80138786Y-136840190D01*
X80138786Y-136840190D02*
X80186405Y-136649714D01*
X80186405Y-136649714D02*
X80234024Y-136554476D01*
X80234024Y-136554476D02*
X80329262Y-136459238D01*
X80329262Y-136459238D02*
X80472119Y-136411619D01*
X80472119Y-136411619D02*
X80567357Y-136411619D01*
X80567357Y-136411619D02*
X80710214Y-136459238D01*
X80710214Y-136459238D02*
X80757833Y-136506857D01*
X81662595Y-136411619D02*
X81186405Y-136411619D01*
X81186405Y-136411619D02*
X81138786Y-136887809D01*
X81138786Y-136887809D02*
X81186405Y-136840190D01*
X81186405Y-136840190D02*
X81281643Y-136792571D01*
X81281643Y-136792571D02*
X81519738Y-136792571D01*
X81519738Y-136792571D02*
X81614976Y-136840190D01*
X81614976Y-136840190D02*
X81662595Y-136887809D01*
X81662595Y-136887809D02*
X81710214Y-136983047D01*
X81710214Y-136983047D02*
X81710214Y-137221142D01*
X81710214Y-137221142D02*
X81662595Y-137316380D01*
X81662595Y-137316380D02*
X81614976Y-137364000D01*
X81614976Y-137364000D02*
X81519738Y-137411619D01*
X81519738Y-137411619D02*
X81281643Y-137411619D01*
X81281643Y-137411619D02*
X81186405Y-137364000D01*
X81186405Y-137364000D02*
X81138786Y-137316380D01*
X106698542Y-133621319D02*
X106365209Y-133145128D01*
X106127114Y-133621319D02*
X106127114Y-132621319D01*
X106127114Y-132621319D02*
X106508066Y-132621319D01*
X106508066Y-132621319D02*
X106603304Y-132668938D01*
X106603304Y-132668938D02*
X106650923Y-132716557D01*
X106650923Y-132716557D02*
X106698542Y-132811795D01*
X106698542Y-132811795D02*
X106698542Y-132954652D01*
X106698542Y-132954652D02*
X106650923Y-133049890D01*
X106650923Y-133049890D02*
X106603304Y-133097509D01*
X106603304Y-133097509D02*
X106508066Y-133145128D01*
X106508066Y-133145128D02*
X106127114Y-133145128D01*
X107650923Y-133621319D02*
X107079495Y-133621319D01*
X107365209Y-133621319D02*
X107365209Y-132621319D01*
X107365209Y-132621319D02*
X107269971Y-132764176D01*
X107269971Y-132764176D02*
X107174733Y-132859414D01*
X107174733Y-132859414D02*
X107079495Y-132907033D01*
X107984257Y-132621319D02*
X108603304Y-132621319D01*
X108603304Y-132621319D02*
X108269971Y-133002271D01*
X108269971Y-133002271D02*
X108412828Y-133002271D01*
X108412828Y-133002271D02*
X108508066Y-133049890D01*
X108508066Y-133049890D02*
X108555685Y-133097509D01*
X108555685Y-133097509D02*
X108603304Y-133192747D01*
X108603304Y-133192747D02*
X108603304Y-133430842D01*
X108603304Y-133430842D02*
X108555685Y-133526080D01*
X108555685Y-133526080D02*
X108508066Y-133573700D01*
X108508066Y-133573700D02*
X108412828Y-133621319D01*
X108412828Y-133621319D02*
X108127114Y-133621319D01*
X108127114Y-133621319D02*
X108031876Y-133573700D01*
X108031876Y-133573700D02*
X107984257Y-133526080D01*
X72356742Y-90040619D02*
X72023409Y-89564428D01*
X71785314Y-90040619D02*
X71785314Y-89040619D01*
X71785314Y-89040619D02*
X72166266Y-89040619D01*
X72166266Y-89040619D02*
X72261504Y-89088238D01*
X72261504Y-89088238D02*
X72309123Y-89135857D01*
X72309123Y-89135857D02*
X72356742Y-89231095D01*
X72356742Y-89231095D02*
X72356742Y-89373952D01*
X72356742Y-89373952D02*
X72309123Y-89469190D01*
X72309123Y-89469190D02*
X72261504Y-89516809D01*
X72261504Y-89516809D02*
X72166266Y-89564428D01*
X72166266Y-89564428D02*
X71785314Y-89564428D01*
X72737695Y-89135857D02*
X72785314Y-89088238D01*
X72785314Y-89088238D02*
X72880552Y-89040619D01*
X72880552Y-89040619D02*
X73118647Y-89040619D01*
X73118647Y-89040619D02*
X73213885Y-89088238D01*
X73213885Y-89088238D02*
X73261504Y-89135857D01*
X73261504Y-89135857D02*
X73309123Y-89231095D01*
X73309123Y-89231095D02*
X73309123Y-89326333D01*
X73309123Y-89326333D02*
X73261504Y-89469190D01*
X73261504Y-89469190D02*
X72690076Y-90040619D01*
X72690076Y-90040619D02*
X73309123Y-90040619D01*
X73690076Y-89135857D02*
X73737695Y-89088238D01*
X73737695Y-89088238D02*
X73832933Y-89040619D01*
X73832933Y-89040619D02*
X74071028Y-89040619D01*
X74071028Y-89040619D02*
X74166266Y-89088238D01*
X74166266Y-89088238D02*
X74213885Y-89135857D01*
X74213885Y-89135857D02*
X74261504Y-89231095D01*
X74261504Y-89231095D02*
X74261504Y-89326333D01*
X74261504Y-89326333D02*
X74213885Y-89469190D01*
X74213885Y-89469190D02*
X73642457Y-90040619D01*
X73642457Y-90040619D02*
X74261504Y-90040619D01*
X87250261Y-85680757D02*
X87155023Y-85633138D01*
X87155023Y-85633138D02*
X87059785Y-85537900D01*
X87059785Y-85537900D02*
X86916928Y-85395042D01*
X86916928Y-85395042D02*
X86821690Y-85347423D01*
X86821690Y-85347423D02*
X86726452Y-85347423D01*
X86774071Y-85585519D02*
X86678833Y-85537900D01*
X86678833Y-85537900D02*
X86583595Y-85442661D01*
X86583595Y-85442661D02*
X86535976Y-85252185D01*
X86535976Y-85252185D02*
X86535976Y-84918852D01*
X86535976Y-84918852D02*
X86583595Y-84728376D01*
X86583595Y-84728376D02*
X86678833Y-84633138D01*
X86678833Y-84633138D02*
X86774071Y-84585519D01*
X86774071Y-84585519D02*
X86964547Y-84585519D01*
X86964547Y-84585519D02*
X87059785Y-84633138D01*
X87059785Y-84633138D02*
X87155023Y-84728376D01*
X87155023Y-84728376D02*
X87202642Y-84918852D01*
X87202642Y-84918852D02*
X87202642Y-85252185D01*
X87202642Y-85252185D02*
X87155023Y-85442661D01*
X87155023Y-85442661D02*
X87059785Y-85537900D01*
X87059785Y-85537900D02*
X86964547Y-85585519D01*
X86964547Y-85585519D02*
X86774071Y-85585519D01*
X87583595Y-84680757D02*
X87631214Y-84633138D01*
X87631214Y-84633138D02*
X87726452Y-84585519D01*
X87726452Y-84585519D02*
X87964547Y-84585519D01*
X87964547Y-84585519D02*
X88059785Y-84633138D01*
X88059785Y-84633138D02*
X88107404Y-84680757D01*
X88107404Y-84680757D02*
X88155023Y-84775995D01*
X88155023Y-84775995D02*
X88155023Y-84871233D01*
X88155023Y-84871233D02*
X88107404Y-85014090D01*
X88107404Y-85014090D02*
X87535976Y-85585519D01*
X87535976Y-85585519D02*
X88155023Y-85585519D01*
X89177905Y-92910819D02*
X89177905Y-91910819D01*
X89177905Y-91910819D02*
X89416000Y-91910819D01*
X89416000Y-91910819D02*
X89558857Y-91958438D01*
X89558857Y-91958438D02*
X89654095Y-92053676D01*
X89654095Y-92053676D02*
X89701714Y-92148914D01*
X89701714Y-92148914D02*
X89749333Y-92339390D01*
X89749333Y-92339390D02*
X89749333Y-92482247D01*
X89749333Y-92482247D02*
X89701714Y-92672723D01*
X89701714Y-92672723D02*
X89654095Y-92767961D01*
X89654095Y-92767961D02*
X89558857Y-92863200D01*
X89558857Y-92863200D02*
X89416000Y-92910819D01*
X89416000Y-92910819D02*
X89177905Y-92910819D01*
X90606476Y-91910819D02*
X90416000Y-91910819D01*
X90416000Y-91910819D02*
X90320762Y-91958438D01*
X90320762Y-91958438D02*
X90273143Y-92006057D01*
X90273143Y-92006057D02*
X90177905Y-92148914D01*
X90177905Y-92148914D02*
X90130286Y-92339390D01*
X90130286Y-92339390D02*
X90130286Y-92720342D01*
X90130286Y-92720342D02*
X90177905Y-92815580D01*
X90177905Y-92815580D02*
X90225524Y-92863200D01*
X90225524Y-92863200D02*
X90320762Y-92910819D01*
X90320762Y-92910819D02*
X90511238Y-92910819D01*
X90511238Y-92910819D02*
X90606476Y-92863200D01*
X90606476Y-92863200D02*
X90654095Y-92815580D01*
X90654095Y-92815580D02*
X90701714Y-92720342D01*
X90701714Y-92720342D02*
X90701714Y-92482247D01*
X90701714Y-92482247D02*
X90654095Y-92387009D01*
X90654095Y-92387009D02*
X90606476Y-92339390D01*
X90606476Y-92339390D02*
X90511238Y-92291771D01*
X90511238Y-92291771D02*
X90320762Y-92291771D01*
X90320762Y-92291771D02*
X90225524Y-92339390D01*
X90225524Y-92339390D02*
X90177905Y-92387009D01*
X90177905Y-92387009D02*
X90130286Y-92482247D01*
X140987542Y-98981419D02*
X140654209Y-98505228D01*
X140416114Y-98981419D02*
X140416114Y-97981419D01*
X140416114Y-97981419D02*
X140797066Y-97981419D01*
X140797066Y-97981419D02*
X140892304Y-98029038D01*
X140892304Y-98029038D02*
X140939923Y-98076657D01*
X140939923Y-98076657D02*
X140987542Y-98171895D01*
X140987542Y-98171895D02*
X140987542Y-98314752D01*
X140987542Y-98314752D02*
X140939923Y-98409990D01*
X140939923Y-98409990D02*
X140892304Y-98457609D01*
X140892304Y-98457609D02*
X140797066Y-98505228D01*
X140797066Y-98505228D02*
X140416114Y-98505228D01*
X141368495Y-98076657D02*
X141416114Y-98029038D01*
X141416114Y-98029038D02*
X141511352Y-97981419D01*
X141511352Y-97981419D02*
X141749447Y-97981419D01*
X141749447Y-97981419D02*
X141844685Y-98029038D01*
X141844685Y-98029038D02*
X141892304Y-98076657D01*
X141892304Y-98076657D02*
X141939923Y-98171895D01*
X141939923Y-98171895D02*
X141939923Y-98267133D01*
X141939923Y-98267133D02*
X141892304Y-98409990D01*
X141892304Y-98409990D02*
X141320876Y-98981419D01*
X141320876Y-98981419D02*
X141939923Y-98981419D01*
X142844685Y-97981419D02*
X142368495Y-97981419D01*
X142368495Y-97981419D02*
X142320876Y-98457609D01*
X142320876Y-98457609D02*
X142368495Y-98409990D01*
X142368495Y-98409990D02*
X142463733Y-98362371D01*
X142463733Y-98362371D02*
X142701828Y-98362371D01*
X142701828Y-98362371D02*
X142797066Y-98409990D01*
X142797066Y-98409990D02*
X142844685Y-98457609D01*
X142844685Y-98457609D02*
X142892304Y-98552847D01*
X142892304Y-98552847D02*
X142892304Y-98790942D01*
X142892304Y-98790942D02*
X142844685Y-98886180D01*
X142844685Y-98886180D02*
X142797066Y-98933800D01*
X142797066Y-98933800D02*
X142701828Y-98981419D01*
X142701828Y-98981419D02*
X142463733Y-98981419D01*
X142463733Y-98981419D02*
X142368495Y-98933800D01*
X142368495Y-98933800D02*
X142320876Y-98886180D01*
X87298761Y-101733557D02*
X87203523Y-101685938D01*
X87203523Y-101685938D02*
X87108285Y-101590700D01*
X87108285Y-101590700D02*
X86965428Y-101447842D01*
X86965428Y-101447842D02*
X86870190Y-101400223D01*
X86870190Y-101400223D02*
X86774952Y-101400223D01*
X86822571Y-101638319D02*
X86727333Y-101590700D01*
X86727333Y-101590700D02*
X86632095Y-101495461D01*
X86632095Y-101495461D02*
X86584476Y-101304985D01*
X86584476Y-101304985D02*
X86584476Y-100971652D01*
X86584476Y-100971652D02*
X86632095Y-100781176D01*
X86632095Y-100781176D02*
X86727333Y-100685938D01*
X86727333Y-100685938D02*
X86822571Y-100638319D01*
X86822571Y-100638319D02*
X87013047Y-100638319D01*
X87013047Y-100638319D02*
X87108285Y-100685938D01*
X87108285Y-100685938D02*
X87203523Y-100781176D01*
X87203523Y-100781176D02*
X87251142Y-100971652D01*
X87251142Y-100971652D02*
X87251142Y-101304985D01*
X87251142Y-101304985D02*
X87203523Y-101495461D01*
X87203523Y-101495461D02*
X87108285Y-101590700D01*
X87108285Y-101590700D02*
X87013047Y-101638319D01*
X87013047Y-101638319D02*
X86822571Y-101638319D01*
X87584476Y-100638319D02*
X88203523Y-100638319D01*
X88203523Y-100638319D02*
X87870190Y-101019271D01*
X87870190Y-101019271D02*
X88013047Y-101019271D01*
X88013047Y-101019271D02*
X88108285Y-101066890D01*
X88108285Y-101066890D02*
X88155904Y-101114509D01*
X88155904Y-101114509D02*
X88203523Y-101209747D01*
X88203523Y-101209747D02*
X88203523Y-101447842D01*
X88203523Y-101447842D02*
X88155904Y-101543080D01*
X88155904Y-101543080D02*
X88108285Y-101590700D01*
X88108285Y-101590700D02*
X88013047Y-101638319D01*
X88013047Y-101638319D02*
X87727333Y-101638319D01*
X87727333Y-101638319D02*
X87632095Y-101590700D01*
X87632095Y-101590700D02*
X87584476Y-101543080D01*
X105027667Y-124486200D02*
X105170524Y-124533819D01*
X105170524Y-124533819D02*
X105408619Y-124533819D01*
X105408619Y-124533819D02*
X105503857Y-124486200D01*
X105503857Y-124486200D02*
X105551476Y-124438580D01*
X105551476Y-124438580D02*
X105599095Y-124343342D01*
X105599095Y-124343342D02*
X105599095Y-124248104D01*
X105599095Y-124248104D02*
X105551476Y-124152866D01*
X105551476Y-124152866D02*
X105503857Y-124105247D01*
X105503857Y-124105247D02*
X105408619Y-124057628D01*
X105408619Y-124057628D02*
X105218143Y-124010009D01*
X105218143Y-124010009D02*
X105122905Y-123962390D01*
X105122905Y-123962390D02*
X105075286Y-123914771D01*
X105075286Y-123914771D02*
X105027667Y-123819533D01*
X105027667Y-123819533D02*
X105027667Y-123724295D01*
X105027667Y-123724295D02*
X105075286Y-123629057D01*
X105075286Y-123629057D02*
X105122905Y-123581438D01*
X105122905Y-123581438D02*
X105218143Y-123533819D01*
X105218143Y-123533819D02*
X105456238Y-123533819D01*
X105456238Y-123533819D02*
X105599095Y-123581438D01*
X105932429Y-123533819D02*
X106170524Y-124533819D01*
X106170524Y-124533819D02*
X106361000Y-123819533D01*
X106361000Y-123819533D02*
X106551476Y-124533819D01*
X106551476Y-124533819D02*
X106789572Y-123533819D01*
X107122905Y-123629057D02*
X107170524Y-123581438D01*
X107170524Y-123581438D02*
X107265762Y-123533819D01*
X107265762Y-123533819D02*
X107503857Y-123533819D01*
X107503857Y-123533819D02*
X107599095Y-123581438D01*
X107599095Y-123581438D02*
X107646714Y-123629057D01*
X107646714Y-123629057D02*
X107694333Y-123724295D01*
X107694333Y-123724295D02*
X107694333Y-123819533D01*
X107694333Y-123819533D02*
X107646714Y-123962390D01*
X107646714Y-123962390D02*
X107075286Y-124533819D01*
X107075286Y-124533819D02*
X107694333Y-124533819D01*
X133845467Y-138913400D02*
X133988324Y-138961019D01*
X133988324Y-138961019D02*
X134226419Y-138961019D01*
X134226419Y-138961019D02*
X134321657Y-138913400D01*
X134321657Y-138913400D02*
X134369276Y-138865780D01*
X134369276Y-138865780D02*
X134416895Y-138770542D01*
X134416895Y-138770542D02*
X134416895Y-138675304D01*
X134416895Y-138675304D02*
X134369276Y-138580066D01*
X134369276Y-138580066D02*
X134321657Y-138532447D01*
X134321657Y-138532447D02*
X134226419Y-138484828D01*
X134226419Y-138484828D02*
X134035943Y-138437209D01*
X134035943Y-138437209D02*
X133940705Y-138389590D01*
X133940705Y-138389590D02*
X133893086Y-138341971D01*
X133893086Y-138341971D02*
X133845467Y-138246733D01*
X133845467Y-138246733D02*
X133845467Y-138151495D01*
X133845467Y-138151495D02*
X133893086Y-138056257D01*
X133893086Y-138056257D02*
X133940705Y-138008638D01*
X133940705Y-138008638D02*
X134035943Y-137961019D01*
X134035943Y-137961019D02*
X134274038Y-137961019D01*
X134274038Y-137961019D02*
X134416895Y-138008638D01*
X134750229Y-137961019D02*
X134988324Y-138961019D01*
X134988324Y-138961019D02*
X135178800Y-138246733D01*
X135178800Y-138246733D02*
X135369276Y-138961019D01*
X135369276Y-138961019D02*
X135607372Y-137961019D01*
X135893086Y-137961019D02*
X136512133Y-137961019D01*
X136512133Y-137961019D02*
X136178800Y-138341971D01*
X136178800Y-138341971D02*
X136321657Y-138341971D01*
X136321657Y-138341971D02*
X136416895Y-138389590D01*
X136416895Y-138389590D02*
X136464514Y-138437209D01*
X136464514Y-138437209D02*
X136512133Y-138532447D01*
X136512133Y-138532447D02*
X136512133Y-138770542D01*
X136512133Y-138770542D02*
X136464514Y-138865780D01*
X136464514Y-138865780D02*
X136416895Y-138913400D01*
X136416895Y-138913400D02*
X136321657Y-138961019D01*
X136321657Y-138961019D02*
X136035943Y-138961019D01*
X136035943Y-138961019D02*
X135940705Y-138913400D01*
X135940705Y-138913400D02*
X135893086Y-138865780D01*
X141017666Y-123629009D02*
X140684333Y-123629009D01*
X140684333Y-124152819D02*
X140684333Y-123152819D01*
X140684333Y-123152819D02*
X141160523Y-123152819D01*
X141493857Y-123248057D02*
X141541476Y-123200438D01*
X141541476Y-123200438D02*
X141636714Y-123152819D01*
X141636714Y-123152819D02*
X141874809Y-123152819D01*
X141874809Y-123152819D02*
X141970047Y-123200438D01*
X141970047Y-123200438D02*
X142017666Y-123248057D01*
X142017666Y-123248057D02*
X142065285Y-123343295D01*
X142065285Y-123343295D02*
X142065285Y-123438533D01*
X142065285Y-123438533D02*
X142017666Y-123581390D01*
X142017666Y-123581390D02*
X141446238Y-124152819D01*
X141446238Y-124152819D02*
X142065285Y-124152819D01*
X89190533Y-110005019D02*
X88857200Y-109528828D01*
X88619105Y-110005019D02*
X88619105Y-109005019D01*
X88619105Y-109005019D02*
X89000057Y-109005019D01*
X89000057Y-109005019D02*
X89095295Y-109052638D01*
X89095295Y-109052638D02*
X89142914Y-109100257D01*
X89142914Y-109100257D02*
X89190533Y-109195495D01*
X89190533Y-109195495D02*
X89190533Y-109338352D01*
X89190533Y-109338352D02*
X89142914Y-109433590D01*
X89142914Y-109433590D02*
X89095295Y-109481209D01*
X89095295Y-109481209D02*
X89000057Y-109528828D01*
X89000057Y-109528828D02*
X88619105Y-109528828D01*
X90142914Y-110005019D02*
X89571486Y-110005019D01*
X89857200Y-110005019D02*
X89857200Y-109005019D01*
X89857200Y-109005019D02*
X89761962Y-109147876D01*
X89761962Y-109147876D02*
X89666724Y-109243114D01*
X89666724Y-109243114D02*
X89571486Y-109290733D01*
X140168333Y-121739819D02*
X139835000Y-121263628D01*
X139596905Y-121739819D02*
X139596905Y-120739819D01*
X139596905Y-120739819D02*
X139977857Y-120739819D01*
X139977857Y-120739819D02*
X140073095Y-120787438D01*
X140073095Y-120787438D02*
X140120714Y-120835057D01*
X140120714Y-120835057D02*
X140168333Y-120930295D01*
X140168333Y-120930295D02*
X140168333Y-121073152D01*
X140168333Y-121073152D02*
X140120714Y-121168390D01*
X140120714Y-121168390D02*
X140073095Y-121216009D01*
X140073095Y-121216009D02*
X139977857Y-121263628D01*
X139977857Y-121263628D02*
X139596905Y-121263628D01*
X140501667Y-120739819D02*
X141168333Y-120739819D01*
X141168333Y-120739819D02*
X140739762Y-121739819D01*
X70993095Y-134782819D02*
X70993095Y-135592342D01*
X70993095Y-135592342D02*
X71040714Y-135687580D01*
X71040714Y-135687580D02*
X71088333Y-135735200D01*
X71088333Y-135735200D02*
X71183571Y-135782819D01*
X71183571Y-135782819D02*
X71374047Y-135782819D01*
X71374047Y-135782819D02*
X71469285Y-135735200D01*
X71469285Y-135735200D02*
X71516904Y-135687580D01*
X71516904Y-135687580D02*
X71564523Y-135592342D01*
X71564523Y-135592342D02*
X71564523Y-134782819D01*
X72564523Y-135782819D02*
X71993095Y-135782819D01*
X72278809Y-135782819D02*
X72278809Y-134782819D01*
X72278809Y-134782819D02*
X72183571Y-134925676D01*
X72183571Y-134925676D02*
X72088333Y-135020914D01*
X72088333Y-135020914D02*
X71993095Y-135068533D01*
X132421333Y-110563819D02*
X132088000Y-110087628D01*
X131849905Y-110563819D02*
X131849905Y-109563819D01*
X131849905Y-109563819D02*
X132230857Y-109563819D01*
X132230857Y-109563819D02*
X132326095Y-109611438D01*
X132326095Y-109611438D02*
X132373714Y-109659057D01*
X132373714Y-109659057D02*
X132421333Y-109754295D01*
X132421333Y-109754295D02*
X132421333Y-109897152D01*
X132421333Y-109897152D02*
X132373714Y-109992390D01*
X132373714Y-109992390D02*
X132326095Y-110040009D01*
X132326095Y-110040009D02*
X132230857Y-110087628D01*
X132230857Y-110087628D02*
X131849905Y-110087628D01*
X133278476Y-109897152D02*
X133278476Y-110563819D01*
X133040381Y-109516200D02*
X132802286Y-110230485D01*
X132802286Y-110230485D02*
X133421333Y-110230485D01*
X126611142Y-118336219D02*
X126277809Y-117860028D01*
X126039714Y-118336219D02*
X126039714Y-117336219D01*
X126039714Y-117336219D02*
X126420666Y-117336219D01*
X126420666Y-117336219D02*
X126515904Y-117383838D01*
X126515904Y-117383838D02*
X126563523Y-117431457D01*
X126563523Y-117431457D02*
X126611142Y-117526695D01*
X126611142Y-117526695D02*
X126611142Y-117669552D01*
X126611142Y-117669552D02*
X126563523Y-117764790D01*
X126563523Y-117764790D02*
X126515904Y-117812409D01*
X126515904Y-117812409D02*
X126420666Y-117860028D01*
X126420666Y-117860028D02*
X126039714Y-117860028D01*
X127563523Y-118336219D02*
X126992095Y-118336219D01*
X127277809Y-118336219D02*
X127277809Y-117336219D01*
X127277809Y-117336219D02*
X127182571Y-117479076D01*
X127182571Y-117479076D02*
X127087333Y-117574314D01*
X127087333Y-117574314D02*
X126992095Y-117621933D01*
X128515904Y-118336219D02*
X127944476Y-118336219D01*
X128230190Y-118336219D02*
X128230190Y-117336219D01*
X128230190Y-117336219D02*
X128134952Y-117479076D01*
X128134952Y-117479076D02*
X128039714Y-117574314D01*
X128039714Y-117574314D02*
X127944476Y-117621933D01*
X106531942Y-128699419D02*
X106198609Y-128223228D01*
X105960514Y-128699419D02*
X105960514Y-127699419D01*
X105960514Y-127699419D02*
X106341466Y-127699419D01*
X106341466Y-127699419D02*
X106436704Y-127747038D01*
X106436704Y-127747038D02*
X106484323Y-127794657D01*
X106484323Y-127794657D02*
X106531942Y-127889895D01*
X106531942Y-127889895D02*
X106531942Y-128032752D01*
X106531942Y-128032752D02*
X106484323Y-128127990D01*
X106484323Y-128127990D02*
X106436704Y-128175609D01*
X106436704Y-128175609D02*
X106341466Y-128223228D01*
X106341466Y-128223228D02*
X105960514Y-128223228D01*
X107484323Y-128699419D02*
X106912895Y-128699419D01*
X107198609Y-128699419D02*
X107198609Y-127699419D01*
X107198609Y-127699419D02*
X107103371Y-127842276D01*
X107103371Y-127842276D02*
X107008133Y-127937514D01*
X107008133Y-127937514D02*
X106912895Y-127985133D01*
X107817657Y-127699419D02*
X108484323Y-127699419D01*
X108484323Y-127699419D02*
X108055752Y-128699419D01*
X161536142Y-137773580D02*
X161488523Y-137821200D01*
X161488523Y-137821200D02*
X161345666Y-137868819D01*
X161345666Y-137868819D02*
X161250428Y-137868819D01*
X161250428Y-137868819D02*
X161107571Y-137821200D01*
X161107571Y-137821200D02*
X161012333Y-137725961D01*
X161012333Y-137725961D02*
X160964714Y-137630723D01*
X160964714Y-137630723D02*
X160917095Y-137440247D01*
X160917095Y-137440247D02*
X160917095Y-137297390D01*
X160917095Y-137297390D02*
X160964714Y-137106914D01*
X160964714Y-137106914D02*
X161012333Y-137011676D01*
X161012333Y-137011676D02*
X161107571Y-136916438D01*
X161107571Y-136916438D02*
X161250428Y-136868819D01*
X161250428Y-136868819D02*
X161345666Y-136868819D01*
X161345666Y-136868819D02*
X161488523Y-136916438D01*
X161488523Y-136916438D02*
X161536142Y-136964057D01*
X162488523Y-137868819D02*
X161917095Y-137868819D01*
X162202809Y-137868819D02*
X162202809Y-136868819D01*
X162202809Y-136868819D02*
X162107571Y-137011676D01*
X162107571Y-137011676D02*
X162012333Y-137106914D01*
X162012333Y-137106914D02*
X161917095Y-137154533D01*
X163440904Y-137868819D02*
X162869476Y-137868819D01*
X163155190Y-137868819D02*
X163155190Y-136868819D01*
X163155190Y-136868819D02*
X163059952Y-137011676D01*
X163059952Y-137011676D02*
X162964714Y-137106914D01*
X162964714Y-137106914D02*
X162869476Y-137154533D01*
X121734342Y-132896780D02*
X121686723Y-132944400D01*
X121686723Y-132944400D02*
X121543866Y-132992019D01*
X121543866Y-132992019D02*
X121448628Y-132992019D01*
X121448628Y-132992019D02*
X121305771Y-132944400D01*
X121305771Y-132944400D02*
X121210533Y-132849161D01*
X121210533Y-132849161D02*
X121162914Y-132753923D01*
X121162914Y-132753923D02*
X121115295Y-132563447D01*
X121115295Y-132563447D02*
X121115295Y-132420590D01*
X121115295Y-132420590D02*
X121162914Y-132230114D01*
X121162914Y-132230114D02*
X121210533Y-132134876D01*
X121210533Y-132134876D02*
X121305771Y-132039638D01*
X121305771Y-132039638D02*
X121448628Y-131992019D01*
X121448628Y-131992019D02*
X121543866Y-131992019D01*
X121543866Y-131992019D02*
X121686723Y-132039638D01*
X121686723Y-132039638D02*
X121734342Y-132087257D01*
X122686723Y-132992019D02*
X122115295Y-132992019D01*
X122401009Y-132992019D02*
X122401009Y-131992019D01*
X122401009Y-131992019D02*
X122305771Y-132134876D01*
X122305771Y-132134876D02*
X122210533Y-132230114D01*
X122210533Y-132230114D02*
X122115295Y-132277733D01*
X123543866Y-132325352D02*
X123543866Y-132992019D01*
X123305771Y-131944400D02*
X123067676Y-132658685D01*
X123067676Y-132658685D02*
X123686723Y-132658685D01*
X146098419Y-103296885D02*
X145098419Y-103296885D01*
X145098419Y-103296885D02*
X145098419Y-102915933D01*
X145098419Y-102915933D02*
X145146038Y-102820695D01*
X145146038Y-102820695D02*
X145193657Y-102773076D01*
X145193657Y-102773076D02*
X145288895Y-102725457D01*
X145288895Y-102725457D02*
X145431752Y-102725457D01*
X145431752Y-102725457D02*
X145526990Y-102773076D01*
X145526990Y-102773076D02*
X145574609Y-102820695D01*
X145574609Y-102820695D02*
X145622228Y-102915933D01*
X145622228Y-102915933D02*
X145622228Y-103296885D01*
X146050800Y-102344504D02*
X146098419Y-102201647D01*
X146098419Y-102201647D02*
X146098419Y-101963552D01*
X146098419Y-101963552D02*
X146050800Y-101868314D01*
X146050800Y-101868314D02*
X146003180Y-101820695D01*
X146003180Y-101820695D02*
X145907942Y-101773076D01*
X145907942Y-101773076D02*
X145812704Y-101773076D01*
X145812704Y-101773076D02*
X145717466Y-101820695D01*
X145717466Y-101820695D02*
X145669847Y-101868314D01*
X145669847Y-101868314D02*
X145622228Y-101963552D01*
X145622228Y-101963552D02*
X145574609Y-102154028D01*
X145574609Y-102154028D02*
X145526990Y-102249266D01*
X145526990Y-102249266D02*
X145479371Y-102296885D01*
X145479371Y-102296885D02*
X145384133Y-102344504D01*
X145384133Y-102344504D02*
X145288895Y-102344504D01*
X145288895Y-102344504D02*
X145193657Y-102296885D01*
X145193657Y-102296885D02*
X145146038Y-102249266D01*
X145146038Y-102249266D02*
X145098419Y-102154028D01*
X145098419Y-102154028D02*
X145098419Y-101915933D01*
X145098419Y-101915933D02*
X145146038Y-101773076D01*
X146098419Y-100820695D02*
X146098419Y-101392123D01*
X146098419Y-101106409D02*
X145098419Y-101106409D01*
X145098419Y-101106409D02*
X145241276Y-101201647D01*
X145241276Y-101201647D02*
X145336514Y-101296885D01*
X145336514Y-101296885D02*
X145384133Y-101392123D01*
X98537733Y-137995819D02*
X98204400Y-137519628D01*
X97966305Y-137995819D02*
X97966305Y-136995819D01*
X97966305Y-136995819D02*
X98347257Y-136995819D01*
X98347257Y-136995819D02*
X98442495Y-137043438D01*
X98442495Y-137043438D02*
X98490114Y-137091057D01*
X98490114Y-137091057D02*
X98537733Y-137186295D01*
X98537733Y-137186295D02*
X98537733Y-137329152D01*
X98537733Y-137329152D02*
X98490114Y-137424390D01*
X98490114Y-137424390D02*
X98442495Y-137472009D01*
X98442495Y-137472009D02*
X98347257Y-137519628D01*
X98347257Y-137519628D02*
X97966305Y-137519628D01*
X99013924Y-137995819D02*
X99204400Y-137995819D01*
X99204400Y-137995819D02*
X99299638Y-137948200D01*
X99299638Y-137948200D02*
X99347257Y-137900580D01*
X99347257Y-137900580D02*
X99442495Y-137757723D01*
X99442495Y-137757723D02*
X99490114Y-137567247D01*
X99490114Y-137567247D02*
X99490114Y-137186295D01*
X99490114Y-137186295D02*
X99442495Y-137091057D01*
X99442495Y-137091057D02*
X99394876Y-137043438D01*
X99394876Y-137043438D02*
X99299638Y-136995819D01*
X99299638Y-136995819D02*
X99109162Y-136995819D01*
X99109162Y-136995819D02*
X99013924Y-137043438D01*
X99013924Y-137043438D02*
X98966305Y-137091057D01*
X98966305Y-137091057D02*
X98918686Y-137186295D01*
X98918686Y-137186295D02*
X98918686Y-137424390D01*
X98918686Y-137424390D02*
X98966305Y-137519628D01*
X98966305Y-137519628D02*
X99013924Y-137567247D01*
X99013924Y-137567247D02*
X99109162Y-137614866D01*
X99109162Y-137614866D02*
X99299638Y-137614866D01*
X99299638Y-137614866D02*
X99394876Y-137567247D01*
X99394876Y-137567247D02*
X99442495Y-137519628D01*
X99442495Y-137519628D02*
X99490114Y-137424390D01*
X158528609Y-85905933D02*
X158528609Y-86239266D01*
X159052419Y-86239266D02*
X158052419Y-86239266D01*
X158052419Y-86239266D02*
X158052419Y-85763076D01*
X159052419Y-84858314D02*
X159052419Y-85429742D01*
X159052419Y-85144028D02*
X158052419Y-85144028D01*
X158052419Y-85144028D02*
X158195276Y-85239266D01*
X158195276Y-85239266D02*
X158290514Y-85334504D01*
X158290514Y-85334504D02*
X158338133Y-85429742D01*
X83996666Y-137054819D02*
X83996666Y-137769104D01*
X83996666Y-137769104D02*
X83949047Y-137911961D01*
X83949047Y-137911961D02*
X83853809Y-138007200D01*
X83853809Y-138007200D02*
X83710952Y-138054819D01*
X83710952Y-138054819D02*
X83615714Y-138054819D01*
X84996666Y-138054819D02*
X84425238Y-138054819D01*
X84710952Y-138054819D02*
X84710952Y-137054819D01*
X84710952Y-137054819D02*
X84615714Y-137197676D01*
X84615714Y-137197676D02*
X84520476Y-137292914D01*
X84520476Y-137292914D02*
X84425238Y-137340533D01*
X123571095Y-122517819D02*
X123571095Y-123327342D01*
X123571095Y-123327342D02*
X123618714Y-123422580D01*
X123618714Y-123422580D02*
X123666333Y-123470200D01*
X123666333Y-123470200D02*
X123761571Y-123517819D01*
X123761571Y-123517819D02*
X123952047Y-123517819D01*
X123952047Y-123517819D02*
X124047285Y-123470200D01*
X124047285Y-123470200D02*
X124094904Y-123422580D01*
X124094904Y-123422580D02*
X124142523Y-123327342D01*
X124142523Y-123327342D02*
X124142523Y-122517819D01*
X124523476Y-122517819D02*
X125142523Y-122517819D01*
X125142523Y-122517819D02*
X124809190Y-122898771D01*
X124809190Y-122898771D02*
X124952047Y-122898771D01*
X124952047Y-122898771D02*
X125047285Y-122946390D01*
X125047285Y-122946390D02*
X125094904Y-122994009D01*
X125094904Y-122994009D02*
X125142523Y-123089247D01*
X125142523Y-123089247D02*
X125142523Y-123327342D01*
X125142523Y-123327342D02*
X125094904Y-123422580D01*
X125094904Y-123422580D02*
X125047285Y-123470200D01*
X125047285Y-123470200D02*
X124952047Y-123517819D01*
X124952047Y-123517819D02*
X124666333Y-123517819D01*
X124666333Y-123517819D02*
X124571095Y-123470200D01*
X124571095Y-123470200D02*
X124523476Y-123422580D01*
X144130733Y-92866380D02*
X144083114Y-92914000D01*
X144083114Y-92914000D02*
X143940257Y-92961619D01*
X143940257Y-92961619D02*
X143845019Y-92961619D01*
X143845019Y-92961619D02*
X143702162Y-92914000D01*
X143702162Y-92914000D02*
X143606924Y-92818761D01*
X143606924Y-92818761D02*
X143559305Y-92723523D01*
X143559305Y-92723523D02*
X143511686Y-92533047D01*
X143511686Y-92533047D02*
X143511686Y-92390190D01*
X143511686Y-92390190D02*
X143559305Y-92199714D01*
X143559305Y-92199714D02*
X143606924Y-92104476D01*
X143606924Y-92104476D02*
X143702162Y-92009238D01*
X143702162Y-92009238D02*
X143845019Y-91961619D01*
X143845019Y-91961619D02*
X143940257Y-91961619D01*
X143940257Y-91961619D02*
X144083114Y-92009238D01*
X144083114Y-92009238D02*
X144130733Y-92056857D01*
X145083114Y-92961619D02*
X144511686Y-92961619D01*
X144797400Y-92961619D02*
X144797400Y-91961619D01*
X144797400Y-91961619D02*
X144702162Y-92104476D01*
X144702162Y-92104476D02*
X144606924Y-92199714D01*
X144606924Y-92199714D02*
X144511686Y-92247333D01*
X101179333Y-119739580D02*
X101131714Y-119787200D01*
X101131714Y-119787200D02*
X100988857Y-119834819D01*
X100988857Y-119834819D02*
X100893619Y-119834819D01*
X100893619Y-119834819D02*
X100750762Y-119787200D01*
X100750762Y-119787200D02*
X100655524Y-119691961D01*
X100655524Y-119691961D02*
X100607905Y-119596723D01*
X100607905Y-119596723D02*
X100560286Y-119406247D01*
X100560286Y-119406247D02*
X100560286Y-119263390D01*
X100560286Y-119263390D02*
X100607905Y-119072914D01*
X100607905Y-119072914D02*
X100655524Y-118977676D01*
X100655524Y-118977676D02*
X100750762Y-118882438D01*
X100750762Y-118882438D02*
X100893619Y-118834819D01*
X100893619Y-118834819D02*
X100988857Y-118834819D01*
X100988857Y-118834819D02*
X101131714Y-118882438D01*
X101131714Y-118882438D02*
X101179333Y-118930057D01*
X101560286Y-118930057D02*
X101607905Y-118882438D01*
X101607905Y-118882438D02*
X101703143Y-118834819D01*
X101703143Y-118834819D02*
X101941238Y-118834819D01*
X101941238Y-118834819D02*
X102036476Y-118882438D01*
X102036476Y-118882438D02*
X102084095Y-118930057D01*
X102084095Y-118930057D02*
X102131714Y-119025295D01*
X102131714Y-119025295D02*
X102131714Y-119120533D01*
X102131714Y-119120533D02*
X102084095Y-119263390D01*
X102084095Y-119263390D02*
X101512667Y-119834819D01*
X101512667Y-119834819D02*
X102131714Y-119834819D01*
X112736333Y-120628580D02*
X112688714Y-120676200D01*
X112688714Y-120676200D02*
X112545857Y-120723819D01*
X112545857Y-120723819D02*
X112450619Y-120723819D01*
X112450619Y-120723819D02*
X112307762Y-120676200D01*
X112307762Y-120676200D02*
X112212524Y-120580961D01*
X112212524Y-120580961D02*
X112164905Y-120485723D01*
X112164905Y-120485723D02*
X112117286Y-120295247D01*
X112117286Y-120295247D02*
X112117286Y-120152390D01*
X112117286Y-120152390D02*
X112164905Y-119961914D01*
X112164905Y-119961914D02*
X112212524Y-119866676D01*
X112212524Y-119866676D02*
X112307762Y-119771438D01*
X112307762Y-119771438D02*
X112450619Y-119723819D01*
X112450619Y-119723819D02*
X112545857Y-119723819D01*
X112545857Y-119723819D02*
X112688714Y-119771438D01*
X112688714Y-119771438D02*
X112736333Y-119819057D01*
X113212524Y-120723819D02*
X113403000Y-120723819D01*
X113403000Y-120723819D02*
X113498238Y-120676200D01*
X113498238Y-120676200D02*
X113545857Y-120628580D01*
X113545857Y-120628580D02*
X113641095Y-120485723D01*
X113641095Y-120485723D02*
X113688714Y-120295247D01*
X113688714Y-120295247D02*
X113688714Y-119914295D01*
X113688714Y-119914295D02*
X113641095Y-119819057D01*
X113641095Y-119819057D02*
X113593476Y-119771438D01*
X113593476Y-119771438D02*
X113498238Y-119723819D01*
X113498238Y-119723819D02*
X113307762Y-119723819D01*
X113307762Y-119723819D02*
X113212524Y-119771438D01*
X113212524Y-119771438D02*
X113164905Y-119819057D01*
X113164905Y-119819057D02*
X113117286Y-119914295D01*
X113117286Y-119914295D02*
X113117286Y-120152390D01*
X113117286Y-120152390D02*
X113164905Y-120247628D01*
X113164905Y-120247628D02*
X113212524Y-120295247D01*
X113212524Y-120295247D02*
X113307762Y-120342866D01*
X113307762Y-120342866D02*
X113498238Y-120342866D01*
X113498238Y-120342866D02*
X113593476Y-120295247D01*
X113593476Y-120295247D02*
X113641095Y-120247628D01*
X113641095Y-120247628D02*
X113688714Y-120152390D01*
X72509142Y-93799819D02*
X72175809Y-93323628D01*
X71937714Y-93799819D02*
X71937714Y-92799819D01*
X71937714Y-92799819D02*
X72318666Y-92799819D01*
X72318666Y-92799819D02*
X72413904Y-92847438D01*
X72413904Y-92847438D02*
X72461523Y-92895057D01*
X72461523Y-92895057D02*
X72509142Y-92990295D01*
X72509142Y-92990295D02*
X72509142Y-93133152D01*
X72509142Y-93133152D02*
X72461523Y-93228390D01*
X72461523Y-93228390D02*
X72413904Y-93276009D01*
X72413904Y-93276009D02*
X72318666Y-93323628D01*
X72318666Y-93323628D02*
X71937714Y-93323628D01*
X72890095Y-92895057D02*
X72937714Y-92847438D01*
X72937714Y-92847438D02*
X73032952Y-92799819D01*
X73032952Y-92799819D02*
X73271047Y-92799819D01*
X73271047Y-92799819D02*
X73366285Y-92847438D01*
X73366285Y-92847438D02*
X73413904Y-92895057D01*
X73413904Y-92895057D02*
X73461523Y-92990295D01*
X73461523Y-92990295D02*
X73461523Y-93085533D01*
X73461523Y-93085533D02*
X73413904Y-93228390D01*
X73413904Y-93228390D02*
X72842476Y-93799819D01*
X72842476Y-93799819D02*
X73461523Y-93799819D01*
X73794857Y-92799819D02*
X74413904Y-92799819D01*
X74413904Y-92799819D02*
X74080571Y-93180771D01*
X74080571Y-93180771D02*
X74223428Y-93180771D01*
X74223428Y-93180771D02*
X74318666Y-93228390D01*
X74318666Y-93228390D02*
X74366285Y-93276009D01*
X74366285Y-93276009D02*
X74413904Y-93371247D01*
X74413904Y-93371247D02*
X74413904Y-93609342D01*
X74413904Y-93609342D02*
X74366285Y-93704580D01*
X74366285Y-93704580D02*
X74318666Y-93752200D01*
X74318666Y-93752200D02*
X74223428Y-93799819D01*
X74223428Y-93799819D02*
X73937714Y-93799819D01*
X73937714Y-93799819D02*
X73842476Y-93752200D01*
X73842476Y-93752200D02*
X73794857Y-93704580D01*
X110783019Y-142192333D02*
X111497304Y-142192333D01*
X111497304Y-142192333D02*
X111640161Y-142239952D01*
X111640161Y-142239952D02*
X111735400Y-142335190D01*
X111735400Y-142335190D02*
X111783019Y-142478047D01*
X111783019Y-142478047D02*
X111783019Y-142573285D01*
X111116352Y-141287571D02*
X111783019Y-141287571D01*
X110735400Y-141525666D02*
X111449685Y-141763761D01*
X111449685Y-141763761D02*
X111449685Y-141144714D01*
X161600819Y-142446333D02*
X162315104Y-142446333D01*
X162315104Y-142446333D02*
X162457961Y-142493952D01*
X162457961Y-142493952D02*
X162553200Y-142589190D01*
X162553200Y-142589190D02*
X162600819Y-142732047D01*
X162600819Y-142732047D02*
X162600819Y-142827285D01*
X161600819Y-141541571D02*
X161600819Y-141732047D01*
X161600819Y-141732047D02*
X161648438Y-141827285D01*
X161648438Y-141827285D02*
X161696057Y-141874904D01*
X161696057Y-141874904D02*
X161838914Y-141970142D01*
X161838914Y-141970142D02*
X162029390Y-142017761D01*
X162029390Y-142017761D02*
X162410342Y-142017761D01*
X162410342Y-142017761D02*
X162505580Y-141970142D01*
X162505580Y-141970142D02*
X162553200Y-141922523D01*
X162553200Y-141922523D02*
X162600819Y-141827285D01*
X162600819Y-141827285D02*
X162600819Y-141636809D01*
X162600819Y-141636809D02*
X162553200Y-141541571D01*
X162553200Y-141541571D02*
X162505580Y-141493952D01*
X162505580Y-141493952D02*
X162410342Y-141446333D01*
X162410342Y-141446333D02*
X162172247Y-141446333D01*
X162172247Y-141446333D02*
X162077009Y-141493952D01*
X162077009Y-141493952D02*
X162029390Y-141541571D01*
X162029390Y-141541571D02*
X161981771Y-141636809D01*
X161981771Y-141636809D02*
X161981771Y-141827285D01*
X161981771Y-141827285D02*
X162029390Y-141922523D01*
X162029390Y-141922523D02*
X162077009Y-141970142D01*
X162077009Y-141970142D02*
X162172247Y-142017761D01*
X112495105Y-83589019D02*
X112495105Y-82589019D01*
X113066533Y-83589019D02*
X112637962Y-83017590D01*
X113066533Y-82589019D02*
X112495105Y-83160447D01*
X114018914Y-83589019D02*
X113447486Y-83589019D01*
X113733200Y-83589019D02*
X113733200Y-82589019D01*
X113733200Y-82589019D02*
X113637962Y-82731876D01*
X113637962Y-82731876D02*
X113542724Y-82827114D01*
X113542724Y-82827114D02*
X113447486Y-82874733D01*
X107167942Y-136325780D02*
X107120323Y-136373400D01*
X107120323Y-136373400D02*
X106977466Y-136421019D01*
X106977466Y-136421019D02*
X106882228Y-136421019D01*
X106882228Y-136421019D02*
X106739371Y-136373400D01*
X106739371Y-136373400D02*
X106644133Y-136278161D01*
X106644133Y-136278161D02*
X106596514Y-136182923D01*
X106596514Y-136182923D02*
X106548895Y-135992447D01*
X106548895Y-135992447D02*
X106548895Y-135849590D01*
X106548895Y-135849590D02*
X106596514Y-135659114D01*
X106596514Y-135659114D02*
X106644133Y-135563876D01*
X106644133Y-135563876D02*
X106739371Y-135468638D01*
X106739371Y-135468638D02*
X106882228Y-135421019D01*
X106882228Y-135421019D02*
X106977466Y-135421019D01*
X106977466Y-135421019D02*
X107120323Y-135468638D01*
X107120323Y-135468638D02*
X107167942Y-135516257D01*
X108120323Y-136421019D02*
X107548895Y-136421019D01*
X107834609Y-136421019D02*
X107834609Y-135421019D01*
X107834609Y-135421019D02*
X107739371Y-135563876D01*
X107739371Y-135563876D02*
X107644133Y-135659114D01*
X107644133Y-135659114D02*
X107548895Y-135706733D01*
X108739371Y-135421019D02*
X108834609Y-135421019D01*
X108834609Y-135421019D02*
X108929847Y-135468638D01*
X108929847Y-135468638D02*
X108977466Y-135516257D01*
X108977466Y-135516257D02*
X109025085Y-135611495D01*
X109025085Y-135611495D02*
X109072704Y-135801971D01*
X109072704Y-135801971D02*
X109072704Y-136040066D01*
X109072704Y-136040066D02*
X109025085Y-136230542D01*
X109025085Y-136230542D02*
X108977466Y-136325780D01*
X108977466Y-136325780D02*
X108929847Y-136373400D01*
X108929847Y-136373400D02*
X108834609Y-136421019D01*
X108834609Y-136421019D02*
X108739371Y-136421019D01*
X108739371Y-136421019D02*
X108644133Y-136373400D01*
X108644133Y-136373400D02*
X108596514Y-136325780D01*
X108596514Y-136325780D02*
X108548895Y-136230542D01*
X108548895Y-136230542D02*
X108501276Y-136040066D01*
X108501276Y-136040066D02*
X108501276Y-135801971D01*
X108501276Y-135801971D02*
X108548895Y-135611495D01*
X108548895Y-135611495D02*
X108596514Y-135516257D01*
X108596514Y-135516257D02*
X108644133Y-135468638D01*
X108644133Y-135468638D02*
X108739371Y-135421019D01*
X114139742Y-125194219D02*
X113806409Y-124718028D01*
X113568314Y-125194219D02*
X113568314Y-124194219D01*
X113568314Y-124194219D02*
X113949266Y-124194219D01*
X113949266Y-124194219D02*
X114044504Y-124241838D01*
X114044504Y-124241838D02*
X114092123Y-124289457D01*
X114092123Y-124289457D02*
X114139742Y-124384695D01*
X114139742Y-124384695D02*
X114139742Y-124527552D01*
X114139742Y-124527552D02*
X114092123Y-124622790D01*
X114092123Y-124622790D02*
X114044504Y-124670409D01*
X114044504Y-124670409D02*
X113949266Y-124718028D01*
X113949266Y-124718028D02*
X113568314Y-124718028D01*
X115092123Y-125194219D02*
X114520695Y-125194219D01*
X114806409Y-125194219D02*
X114806409Y-124194219D01*
X114806409Y-124194219D02*
X114711171Y-124337076D01*
X114711171Y-124337076D02*
X114615933Y-124432314D01*
X114615933Y-124432314D02*
X114520695Y-124479933D01*
X115663552Y-124622790D02*
X115568314Y-124575171D01*
X115568314Y-124575171D02*
X115520695Y-124527552D01*
X115520695Y-124527552D02*
X115473076Y-124432314D01*
X115473076Y-124432314D02*
X115473076Y-124384695D01*
X115473076Y-124384695D02*
X115520695Y-124289457D01*
X115520695Y-124289457D02*
X115568314Y-124241838D01*
X115568314Y-124241838D02*
X115663552Y-124194219D01*
X115663552Y-124194219D02*
X115854028Y-124194219D01*
X115854028Y-124194219D02*
X115949266Y-124241838D01*
X115949266Y-124241838D02*
X115996885Y-124289457D01*
X115996885Y-124289457D02*
X116044504Y-124384695D01*
X116044504Y-124384695D02*
X116044504Y-124432314D01*
X116044504Y-124432314D02*
X115996885Y-124527552D01*
X115996885Y-124527552D02*
X115949266Y-124575171D01*
X115949266Y-124575171D02*
X115854028Y-124622790D01*
X115854028Y-124622790D02*
X115663552Y-124622790D01*
X115663552Y-124622790D02*
X115568314Y-124670409D01*
X115568314Y-124670409D02*
X115520695Y-124718028D01*
X115520695Y-124718028D02*
X115473076Y-124813266D01*
X115473076Y-124813266D02*
X115473076Y-125003742D01*
X115473076Y-125003742D02*
X115520695Y-125098980D01*
X115520695Y-125098980D02*
X115568314Y-125146600D01*
X115568314Y-125146600D02*
X115663552Y-125194219D01*
X115663552Y-125194219D02*
X115854028Y-125194219D01*
X115854028Y-125194219D02*
X115949266Y-125146600D01*
X115949266Y-125146600D02*
X115996885Y-125098980D01*
X115996885Y-125098980D02*
X116044504Y-125003742D01*
X116044504Y-125003742D02*
X116044504Y-124813266D01*
X116044504Y-124813266D02*
X115996885Y-124718028D01*
X115996885Y-124718028D02*
X115949266Y-124670409D01*
X115949266Y-124670409D02*
X115854028Y-124622790D01*
X79335333Y-139246780D02*
X79287714Y-139294400D01*
X79287714Y-139294400D02*
X79144857Y-139342019D01*
X79144857Y-139342019D02*
X79049619Y-139342019D01*
X79049619Y-139342019D02*
X78906762Y-139294400D01*
X78906762Y-139294400D02*
X78811524Y-139199161D01*
X78811524Y-139199161D02*
X78763905Y-139103923D01*
X78763905Y-139103923D02*
X78716286Y-138913447D01*
X78716286Y-138913447D02*
X78716286Y-138770590D01*
X78716286Y-138770590D02*
X78763905Y-138580114D01*
X78763905Y-138580114D02*
X78811524Y-138484876D01*
X78811524Y-138484876D02*
X78906762Y-138389638D01*
X78906762Y-138389638D02*
X79049619Y-138342019D01*
X79049619Y-138342019D02*
X79144857Y-138342019D01*
X79144857Y-138342019D02*
X79287714Y-138389638D01*
X79287714Y-138389638D02*
X79335333Y-138437257D01*
X80192476Y-138675352D02*
X80192476Y-139342019D01*
X79954381Y-138294400D02*
X79716286Y-139008685D01*
X79716286Y-139008685D02*
X80335333Y-139008685D01*
X136269505Y-134033419D02*
X136269505Y-133033419D01*
X136269505Y-133033419D02*
X136507600Y-133033419D01*
X136507600Y-133033419D02*
X136650457Y-133081038D01*
X136650457Y-133081038D02*
X136745695Y-133176276D01*
X136745695Y-133176276D02*
X136793314Y-133271514D01*
X136793314Y-133271514D02*
X136840933Y-133461990D01*
X136840933Y-133461990D02*
X136840933Y-133604847D01*
X136840933Y-133604847D02*
X136793314Y-133795323D01*
X136793314Y-133795323D02*
X136745695Y-133890561D01*
X136745695Y-133890561D02*
X136650457Y-133985800D01*
X136650457Y-133985800D02*
X136507600Y-134033419D01*
X136507600Y-134033419D02*
X136269505Y-134033419D01*
X137174267Y-133033419D02*
X137793314Y-133033419D01*
X137793314Y-133033419D02*
X137459981Y-133414371D01*
X137459981Y-133414371D02*
X137602838Y-133414371D01*
X137602838Y-133414371D02*
X137698076Y-133461990D01*
X137698076Y-133461990D02*
X137745695Y-133509609D01*
X137745695Y-133509609D02*
X137793314Y-133604847D01*
X137793314Y-133604847D02*
X137793314Y-133842942D01*
X137793314Y-133842942D02*
X137745695Y-133938180D01*
X137745695Y-133938180D02*
X137698076Y-133985800D01*
X137698076Y-133985800D02*
X137602838Y-134033419D01*
X137602838Y-134033419D02*
X137317124Y-134033419D01*
X137317124Y-134033419D02*
X137221886Y-133985800D01*
X137221886Y-133985800D02*
X137174267Y-133938180D01*
X112672905Y-98346419D02*
X112672905Y-97346419D01*
X113244333Y-98346419D02*
X112815762Y-97774990D01*
X113244333Y-97346419D02*
X112672905Y-97917847D01*
X113625286Y-97441657D02*
X113672905Y-97394038D01*
X113672905Y-97394038D02*
X113768143Y-97346419D01*
X113768143Y-97346419D02*
X114006238Y-97346419D01*
X114006238Y-97346419D02*
X114101476Y-97394038D01*
X114101476Y-97394038D02*
X114149095Y-97441657D01*
X114149095Y-97441657D02*
X114196714Y-97536895D01*
X114196714Y-97536895D02*
X114196714Y-97632133D01*
X114196714Y-97632133D02*
X114149095Y-97774990D01*
X114149095Y-97774990D02*
X113577667Y-98346419D01*
X113577667Y-98346419D02*
X114196714Y-98346419D01*
X89324905Y-76413819D02*
X89324905Y-75413819D01*
X89324905Y-75413819D02*
X89563000Y-75413819D01*
X89563000Y-75413819D02*
X89705857Y-75461438D01*
X89705857Y-75461438D02*
X89801095Y-75556676D01*
X89801095Y-75556676D02*
X89848714Y-75651914D01*
X89848714Y-75651914D02*
X89896333Y-75842390D01*
X89896333Y-75842390D02*
X89896333Y-75985247D01*
X89896333Y-75985247D02*
X89848714Y-76175723D01*
X89848714Y-76175723D02*
X89801095Y-76270961D01*
X89801095Y-76270961D02*
X89705857Y-76366200D01*
X89705857Y-76366200D02*
X89563000Y-76413819D01*
X89563000Y-76413819D02*
X89324905Y-76413819D01*
X90801095Y-75413819D02*
X90324905Y-75413819D01*
X90324905Y-75413819D02*
X90277286Y-75890009D01*
X90277286Y-75890009D02*
X90324905Y-75842390D01*
X90324905Y-75842390D02*
X90420143Y-75794771D01*
X90420143Y-75794771D02*
X90658238Y-75794771D01*
X90658238Y-75794771D02*
X90753476Y-75842390D01*
X90753476Y-75842390D02*
X90801095Y-75890009D01*
X90801095Y-75890009D02*
X90848714Y-75985247D01*
X90848714Y-75985247D02*
X90848714Y-76223342D01*
X90848714Y-76223342D02*
X90801095Y-76318580D01*
X90801095Y-76318580D02*
X90753476Y-76366200D01*
X90753476Y-76366200D02*
X90658238Y-76413819D01*
X90658238Y-76413819D02*
X90420143Y-76413819D01*
X90420143Y-76413819D02*
X90324905Y-76366200D01*
X90324905Y-76366200D02*
X90277286Y-76318580D01*
X112717342Y-126856180D02*
X112669723Y-126903800D01*
X112669723Y-126903800D02*
X112526866Y-126951419D01*
X112526866Y-126951419D02*
X112431628Y-126951419D01*
X112431628Y-126951419D02*
X112288771Y-126903800D01*
X112288771Y-126903800D02*
X112193533Y-126808561D01*
X112193533Y-126808561D02*
X112145914Y-126713323D01*
X112145914Y-126713323D02*
X112098295Y-126522847D01*
X112098295Y-126522847D02*
X112098295Y-126379990D01*
X112098295Y-126379990D02*
X112145914Y-126189514D01*
X112145914Y-126189514D02*
X112193533Y-126094276D01*
X112193533Y-126094276D02*
X112288771Y-125999038D01*
X112288771Y-125999038D02*
X112431628Y-125951419D01*
X112431628Y-125951419D02*
X112526866Y-125951419D01*
X112526866Y-125951419D02*
X112669723Y-125999038D01*
X112669723Y-125999038D02*
X112717342Y-126046657D01*
X113669723Y-126951419D02*
X113098295Y-126951419D01*
X113384009Y-126951419D02*
X113384009Y-125951419D01*
X113384009Y-125951419D02*
X113288771Y-126094276D01*
X113288771Y-126094276D02*
X113193533Y-126189514D01*
X113193533Y-126189514D02*
X113098295Y-126237133D01*
X114003057Y-125951419D02*
X114622104Y-125951419D01*
X114622104Y-125951419D02*
X114288771Y-126332371D01*
X114288771Y-126332371D02*
X114431628Y-126332371D01*
X114431628Y-126332371D02*
X114526866Y-126379990D01*
X114526866Y-126379990D02*
X114574485Y-126427609D01*
X114574485Y-126427609D02*
X114622104Y-126522847D01*
X114622104Y-126522847D02*
X114622104Y-126760942D01*
X114622104Y-126760942D02*
X114574485Y-126856180D01*
X114574485Y-126856180D02*
X114526866Y-126903800D01*
X114526866Y-126903800D02*
X114431628Y-126951419D01*
X114431628Y-126951419D02*
X114145914Y-126951419D01*
X114145914Y-126951419D02*
X114050676Y-126903800D01*
X114050676Y-126903800D02*
X114003057Y-126856180D01*
X80772095Y-75737819D02*
X80772095Y-76547342D01*
X80772095Y-76547342D02*
X80819714Y-76642580D01*
X80819714Y-76642580D02*
X80867333Y-76690200D01*
X80867333Y-76690200D02*
X80962571Y-76737819D01*
X80962571Y-76737819D02*
X81153047Y-76737819D01*
X81153047Y-76737819D02*
X81248285Y-76690200D01*
X81248285Y-76690200D02*
X81295904Y-76642580D01*
X81295904Y-76642580D02*
X81343523Y-76547342D01*
X81343523Y-76547342D02*
X81343523Y-75737819D01*
X82295904Y-75737819D02*
X81819714Y-75737819D01*
X81819714Y-75737819D02*
X81772095Y-76214009D01*
X81772095Y-76214009D02*
X81819714Y-76166390D01*
X81819714Y-76166390D02*
X81914952Y-76118771D01*
X81914952Y-76118771D02*
X82153047Y-76118771D01*
X82153047Y-76118771D02*
X82248285Y-76166390D01*
X82248285Y-76166390D02*
X82295904Y-76214009D01*
X82295904Y-76214009D02*
X82343523Y-76309247D01*
X82343523Y-76309247D02*
X82343523Y-76547342D01*
X82343523Y-76547342D02*
X82295904Y-76642580D01*
X82295904Y-76642580D02*
X82248285Y-76690200D01*
X82248285Y-76690200D02*
X82153047Y-76737819D01*
X82153047Y-76737819D02*
X81914952Y-76737819D01*
X81914952Y-76737819D02*
X81819714Y-76690200D01*
X81819714Y-76690200D02*
X81772095Y-76642580D01*
X105281667Y-114808800D02*
X105424524Y-114856419D01*
X105424524Y-114856419D02*
X105662619Y-114856419D01*
X105662619Y-114856419D02*
X105757857Y-114808800D01*
X105757857Y-114808800D02*
X105805476Y-114761180D01*
X105805476Y-114761180D02*
X105853095Y-114665942D01*
X105853095Y-114665942D02*
X105853095Y-114570704D01*
X105853095Y-114570704D02*
X105805476Y-114475466D01*
X105805476Y-114475466D02*
X105757857Y-114427847D01*
X105757857Y-114427847D02*
X105662619Y-114380228D01*
X105662619Y-114380228D02*
X105472143Y-114332609D01*
X105472143Y-114332609D02*
X105376905Y-114284990D01*
X105376905Y-114284990D02*
X105329286Y-114237371D01*
X105329286Y-114237371D02*
X105281667Y-114142133D01*
X105281667Y-114142133D02*
X105281667Y-114046895D01*
X105281667Y-114046895D02*
X105329286Y-113951657D01*
X105329286Y-113951657D02*
X105376905Y-113904038D01*
X105376905Y-113904038D02*
X105472143Y-113856419D01*
X105472143Y-113856419D02*
X105710238Y-113856419D01*
X105710238Y-113856419D02*
X105853095Y-113904038D01*
X106186429Y-113856419D02*
X106424524Y-114856419D01*
X106424524Y-114856419D02*
X106615000Y-114142133D01*
X106615000Y-114142133D02*
X106805476Y-114856419D01*
X106805476Y-114856419D02*
X107043572Y-113856419D01*
X107948333Y-114856419D02*
X107376905Y-114856419D01*
X107662619Y-114856419D02*
X107662619Y-113856419D01*
X107662619Y-113856419D02*
X107567381Y-113999276D01*
X107567381Y-113999276D02*
X107472143Y-114094514D01*
X107472143Y-114094514D02*
X107376905Y-114142133D01*
X81907142Y-84147819D02*
X81573809Y-83671628D01*
X81335714Y-84147819D02*
X81335714Y-83147819D01*
X81335714Y-83147819D02*
X81716666Y-83147819D01*
X81716666Y-83147819D02*
X81811904Y-83195438D01*
X81811904Y-83195438D02*
X81859523Y-83243057D01*
X81859523Y-83243057D02*
X81907142Y-83338295D01*
X81907142Y-83338295D02*
X81907142Y-83481152D01*
X81907142Y-83481152D02*
X81859523Y-83576390D01*
X81859523Y-83576390D02*
X81811904Y-83624009D01*
X81811904Y-83624009D02*
X81716666Y-83671628D01*
X81716666Y-83671628D02*
X81335714Y-83671628D01*
X82288095Y-83243057D02*
X82335714Y-83195438D01*
X82335714Y-83195438D02*
X82430952Y-83147819D01*
X82430952Y-83147819D02*
X82669047Y-83147819D01*
X82669047Y-83147819D02*
X82764285Y-83195438D01*
X82764285Y-83195438D02*
X82811904Y-83243057D01*
X82811904Y-83243057D02*
X82859523Y-83338295D01*
X82859523Y-83338295D02*
X82859523Y-83433533D01*
X82859523Y-83433533D02*
X82811904Y-83576390D01*
X82811904Y-83576390D02*
X82240476Y-84147819D01*
X82240476Y-84147819D02*
X82859523Y-84147819D01*
X83716666Y-83147819D02*
X83526190Y-83147819D01*
X83526190Y-83147819D02*
X83430952Y-83195438D01*
X83430952Y-83195438D02*
X83383333Y-83243057D01*
X83383333Y-83243057D02*
X83288095Y-83385914D01*
X83288095Y-83385914D02*
X83240476Y-83576390D01*
X83240476Y-83576390D02*
X83240476Y-83957342D01*
X83240476Y-83957342D02*
X83288095Y-84052580D01*
X83288095Y-84052580D02*
X83335714Y-84100200D01*
X83335714Y-84100200D02*
X83430952Y-84147819D01*
X83430952Y-84147819D02*
X83621428Y-84147819D01*
X83621428Y-84147819D02*
X83716666Y-84100200D01*
X83716666Y-84100200D02*
X83764285Y-84052580D01*
X83764285Y-84052580D02*
X83811904Y-83957342D01*
X83811904Y-83957342D02*
X83811904Y-83719247D01*
X83811904Y-83719247D02*
X83764285Y-83624009D01*
X83764285Y-83624009D02*
X83716666Y-83576390D01*
X83716666Y-83576390D02*
X83621428Y-83528771D01*
X83621428Y-83528771D02*
X83430952Y-83528771D01*
X83430952Y-83528771D02*
X83335714Y-83576390D01*
X83335714Y-83576390D02*
X83288095Y-83624009D01*
X83288095Y-83624009D02*
X83240476Y-83719247D01*
X120777095Y-99403819D02*
X120777095Y-100213342D01*
X120777095Y-100213342D02*
X120824714Y-100308580D01*
X120824714Y-100308580D02*
X120872333Y-100356200D01*
X120872333Y-100356200D02*
X120967571Y-100403819D01*
X120967571Y-100403819D02*
X121158047Y-100403819D01*
X121158047Y-100403819D02*
X121253285Y-100356200D01*
X121253285Y-100356200D02*
X121300904Y-100308580D01*
X121300904Y-100308580D02*
X121348523Y-100213342D01*
X121348523Y-100213342D02*
X121348523Y-99403819D01*
X122253285Y-99737152D02*
X122253285Y-100403819D01*
X122015190Y-99356200D02*
X121777095Y-100070485D01*
X121777095Y-100070485D02*
X122396142Y-100070485D01*
X129601933Y-132820580D02*
X129554314Y-132868200D01*
X129554314Y-132868200D02*
X129411457Y-132915819D01*
X129411457Y-132915819D02*
X129316219Y-132915819D01*
X129316219Y-132915819D02*
X129173362Y-132868200D01*
X129173362Y-132868200D02*
X129078124Y-132772961D01*
X129078124Y-132772961D02*
X129030505Y-132677723D01*
X129030505Y-132677723D02*
X128982886Y-132487247D01*
X128982886Y-132487247D02*
X128982886Y-132344390D01*
X128982886Y-132344390D02*
X129030505Y-132153914D01*
X129030505Y-132153914D02*
X129078124Y-132058676D01*
X129078124Y-132058676D02*
X129173362Y-131963438D01*
X129173362Y-131963438D02*
X129316219Y-131915819D01*
X129316219Y-131915819D02*
X129411457Y-131915819D01*
X129411457Y-131915819D02*
X129554314Y-131963438D01*
X129554314Y-131963438D02*
X129601933Y-132011057D01*
X130173362Y-132344390D02*
X130078124Y-132296771D01*
X130078124Y-132296771D02*
X130030505Y-132249152D01*
X130030505Y-132249152D02*
X129982886Y-132153914D01*
X129982886Y-132153914D02*
X129982886Y-132106295D01*
X129982886Y-132106295D02*
X130030505Y-132011057D01*
X130030505Y-132011057D02*
X130078124Y-131963438D01*
X130078124Y-131963438D02*
X130173362Y-131915819D01*
X130173362Y-131915819D02*
X130363838Y-131915819D01*
X130363838Y-131915819D02*
X130459076Y-131963438D01*
X130459076Y-131963438D02*
X130506695Y-132011057D01*
X130506695Y-132011057D02*
X130554314Y-132106295D01*
X130554314Y-132106295D02*
X130554314Y-132153914D01*
X130554314Y-132153914D02*
X130506695Y-132249152D01*
X130506695Y-132249152D02*
X130459076Y-132296771D01*
X130459076Y-132296771D02*
X130363838Y-132344390D01*
X130363838Y-132344390D02*
X130173362Y-132344390D01*
X130173362Y-132344390D02*
X130078124Y-132392009D01*
X130078124Y-132392009D02*
X130030505Y-132439628D01*
X130030505Y-132439628D02*
X129982886Y-132534866D01*
X129982886Y-132534866D02*
X129982886Y-132725342D01*
X129982886Y-132725342D02*
X130030505Y-132820580D01*
X130030505Y-132820580D02*
X130078124Y-132868200D01*
X130078124Y-132868200D02*
X130173362Y-132915819D01*
X130173362Y-132915819D02*
X130363838Y-132915819D01*
X130363838Y-132915819D02*
X130459076Y-132868200D01*
X130459076Y-132868200D02*
X130506695Y-132820580D01*
X130506695Y-132820580D02*
X130554314Y-132725342D01*
X130554314Y-132725342D02*
X130554314Y-132534866D01*
X130554314Y-132534866D02*
X130506695Y-132439628D01*
X130506695Y-132439628D02*
X130459076Y-132392009D01*
X130459076Y-132392009D02*
X130363838Y-132344390D01*
X111816142Y-122247819D02*
X111482809Y-121771628D01*
X111244714Y-122247819D02*
X111244714Y-121247819D01*
X111244714Y-121247819D02*
X111625666Y-121247819D01*
X111625666Y-121247819D02*
X111720904Y-121295438D01*
X111720904Y-121295438D02*
X111768523Y-121343057D01*
X111768523Y-121343057D02*
X111816142Y-121438295D01*
X111816142Y-121438295D02*
X111816142Y-121581152D01*
X111816142Y-121581152D02*
X111768523Y-121676390D01*
X111768523Y-121676390D02*
X111720904Y-121724009D01*
X111720904Y-121724009D02*
X111625666Y-121771628D01*
X111625666Y-121771628D02*
X111244714Y-121771628D01*
X112768523Y-122247819D02*
X112197095Y-122247819D01*
X112482809Y-122247819D02*
X112482809Y-121247819D01*
X112482809Y-121247819D02*
X112387571Y-121390676D01*
X112387571Y-121390676D02*
X112292333Y-121485914D01*
X112292333Y-121485914D02*
X112197095Y-121533533D01*
X113244714Y-122247819D02*
X113435190Y-122247819D01*
X113435190Y-122247819D02*
X113530428Y-122200200D01*
X113530428Y-122200200D02*
X113578047Y-122152580D01*
X113578047Y-122152580D02*
X113673285Y-122009723D01*
X113673285Y-122009723D02*
X113720904Y-121819247D01*
X113720904Y-121819247D02*
X113720904Y-121438295D01*
X113720904Y-121438295D02*
X113673285Y-121343057D01*
X113673285Y-121343057D02*
X113625666Y-121295438D01*
X113625666Y-121295438D02*
X113530428Y-121247819D01*
X113530428Y-121247819D02*
X113339952Y-121247819D01*
X113339952Y-121247819D02*
X113244714Y-121295438D01*
X113244714Y-121295438D02*
X113197095Y-121343057D01*
X113197095Y-121343057D02*
X113149476Y-121438295D01*
X113149476Y-121438295D02*
X113149476Y-121676390D01*
X113149476Y-121676390D02*
X113197095Y-121771628D01*
X113197095Y-121771628D02*
X113244714Y-121819247D01*
X113244714Y-121819247D02*
X113339952Y-121866866D01*
X113339952Y-121866866D02*
X113530428Y-121866866D01*
X113530428Y-121866866D02*
X113625666Y-121819247D01*
X113625666Y-121819247D02*
X113673285Y-121771628D01*
X113673285Y-121771628D02*
X113720904Y-121676390D01*
X126071333Y-110436819D02*
X125595143Y-110436819D01*
X125595143Y-110436819D02*
X125595143Y-109436819D01*
X126357048Y-109532057D02*
X126404667Y-109484438D01*
X126404667Y-109484438D02*
X126499905Y-109436819D01*
X126499905Y-109436819D02*
X126738000Y-109436819D01*
X126738000Y-109436819D02*
X126833238Y-109484438D01*
X126833238Y-109484438D02*
X126880857Y-109532057D01*
X126880857Y-109532057D02*
X126928476Y-109627295D01*
X126928476Y-109627295D02*
X126928476Y-109722533D01*
X126928476Y-109722533D02*
X126880857Y-109865390D01*
X126880857Y-109865390D02*
X126309429Y-110436819D01*
X126309429Y-110436819D02*
X126928476Y-110436819D01*
X101230133Y-130610780D02*
X101182514Y-130658400D01*
X101182514Y-130658400D02*
X101039657Y-130706019D01*
X101039657Y-130706019D02*
X100944419Y-130706019D01*
X100944419Y-130706019D02*
X100801562Y-130658400D01*
X100801562Y-130658400D02*
X100706324Y-130563161D01*
X100706324Y-130563161D02*
X100658705Y-130467923D01*
X100658705Y-130467923D02*
X100611086Y-130277447D01*
X100611086Y-130277447D02*
X100611086Y-130134590D01*
X100611086Y-130134590D02*
X100658705Y-129944114D01*
X100658705Y-129944114D02*
X100706324Y-129848876D01*
X100706324Y-129848876D02*
X100801562Y-129753638D01*
X100801562Y-129753638D02*
X100944419Y-129706019D01*
X100944419Y-129706019D02*
X101039657Y-129706019D01*
X101039657Y-129706019D02*
X101182514Y-129753638D01*
X101182514Y-129753638D02*
X101230133Y-129801257D01*
X102087276Y-129706019D02*
X101896800Y-129706019D01*
X101896800Y-129706019D02*
X101801562Y-129753638D01*
X101801562Y-129753638D02*
X101753943Y-129801257D01*
X101753943Y-129801257D02*
X101658705Y-129944114D01*
X101658705Y-129944114D02*
X101611086Y-130134590D01*
X101611086Y-130134590D02*
X101611086Y-130515542D01*
X101611086Y-130515542D02*
X101658705Y-130610780D01*
X101658705Y-130610780D02*
X101706324Y-130658400D01*
X101706324Y-130658400D02*
X101801562Y-130706019D01*
X101801562Y-130706019D02*
X101992038Y-130706019D01*
X101992038Y-130706019D02*
X102087276Y-130658400D01*
X102087276Y-130658400D02*
X102134895Y-130610780D01*
X102134895Y-130610780D02*
X102182514Y-130515542D01*
X102182514Y-130515542D02*
X102182514Y-130277447D01*
X102182514Y-130277447D02*
X102134895Y-130182209D01*
X102134895Y-130182209D02*
X102087276Y-130134590D01*
X102087276Y-130134590D02*
X101992038Y-130086971D01*
X101992038Y-130086971D02*
X101801562Y-130086971D01*
X101801562Y-130086971D02*
X101706324Y-130134590D01*
X101706324Y-130134590D02*
X101658705Y-130182209D01*
X101658705Y-130182209D02*
X101611086Y-130277447D01*
X114450905Y-115516819D02*
X114450905Y-114516819D01*
X114450905Y-114516819D02*
X114689000Y-114516819D01*
X114689000Y-114516819D02*
X114831857Y-114564438D01*
X114831857Y-114564438D02*
X114927095Y-114659676D01*
X114927095Y-114659676D02*
X114974714Y-114754914D01*
X114974714Y-114754914D02*
X115022333Y-114945390D01*
X115022333Y-114945390D02*
X115022333Y-115088247D01*
X115022333Y-115088247D02*
X114974714Y-115278723D01*
X114974714Y-115278723D02*
X114927095Y-115373961D01*
X114927095Y-115373961D02*
X114831857Y-115469200D01*
X114831857Y-115469200D02*
X114689000Y-115516819D01*
X114689000Y-115516819D02*
X114450905Y-115516819D01*
X115879476Y-114850152D02*
X115879476Y-115516819D01*
X115641381Y-114469200D02*
X115403286Y-115183485D01*
X115403286Y-115183485D02*
X116022333Y-115183485D01*
X82034142Y-100149819D02*
X81700809Y-99673628D01*
X81462714Y-100149819D02*
X81462714Y-99149819D01*
X81462714Y-99149819D02*
X81843666Y-99149819D01*
X81843666Y-99149819D02*
X81938904Y-99197438D01*
X81938904Y-99197438D02*
X81986523Y-99245057D01*
X81986523Y-99245057D02*
X82034142Y-99340295D01*
X82034142Y-99340295D02*
X82034142Y-99483152D01*
X82034142Y-99483152D02*
X81986523Y-99578390D01*
X81986523Y-99578390D02*
X81938904Y-99626009D01*
X81938904Y-99626009D02*
X81843666Y-99673628D01*
X81843666Y-99673628D02*
X81462714Y-99673628D01*
X82415095Y-99245057D02*
X82462714Y-99197438D01*
X82462714Y-99197438D02*
X82557952Y-99149819D01*
X82557952Y-99149819D02*
X82796047Y-99149819D01*
X82796047Y-99149819D02*
X82891285Y-99197438D01*
X82891285Y-99197438D02*
X82938904Y-99245057D01*
X82938904Y-99245057D02*
X82986523Y-99340295D01*
X82986523Y-99340295D02*
X82986523Y-99435533D01*
X82986523Y-99435533D02*
X82938904Y-99578390D01*
X82938904Y-99578390D02*
X82367476Y-100149819D01*
X82367476Y-100149819D02*
X82986523Y-100149819D01*
X83319857Y-99149819D02*
X83986523Y-99149819D01*
X83986523Y-99149819D02*
X83557952Y-100149819D01*
X118124666Y-79083819D02*
X118124666Y-79798104D01*
X118124666Y-79798104D02*
X118077047Y-79940961D01*
X118077047Y-79940961D02*
X117981809Y-80036200D01*
X117981809Y-80036200D02*
X117838952Y-80083819D01*
X117838952Y-80083819D02*
X117743714Y-80083819D01*
X118553238Y-79179057D02*
X118600857Y-79131438D01*
X118600857Y-79131438D02*
X118696095Y-79083819D01*
X118696095Y-79083819D02*
X118934190Y-79083819D01*
X118934190Y-79083819D02*
X119029428Y-79131438D01*
X119029428Y-79131438D02*
X119077047Y-79179057D01*
X119077047Y-79179057D02*
X119124666Y-79274295D01*
X119124666Y-79274295D02*
X119124666Y-79369533D01*
X119124666Y-79369533D02*
X119077047Y-79512390D01*
X119077047Y-79512390D02*
X118505619Y-80083819D01*
X118505619Y-80083819D02*
X119124666Y-80083819D01*
X85010666Y-110071819D02*
X85010666Y-110786104D01*
X85010666Y-110786104D02*
X84963047Y-110928961D01*
X84963047Y-110928961D02*
X84867809Y-111024200D01*
X84867809Y-111024200D02*
X84724952Y-111071819D01*
X84724952Y-111071819D02*
X84629714Y-111071819D01*
X85391619Y-110071819D02*
X86010666Y-110071819D01*
X86010666Y-110071819D02*
X85677333Y-110452771D01*
X85677333Y-110452771D02*
X85820190Y-110452771D01*
X85820190Y-110452771D02*
X85915428Y-110500390D01*
X85915428Y-110500390D02*
X85963047Y-110548009D01*
X85963047Y-110548009D02*
X86010666Y-110643247D01*
X86010666Y-110643247D02*
X86010666Y-110881342D01*
X86010666Y-110881342D02*
X85963047Y-110976580D01*
X85963047Y-110976580D02*
X85915428Y-111024200D01*
X85915428Y-111024200D02*
X85820190Y-111071819D01*
X85820190Y-111071819D02*
X85534476Y-111071819D01*
X85534476Y-111071819D02*
X85439238Y-111024200D01*
X85439238Y-111024200D02*
X85391619Y-110976580D01*
X127061819Y-142267333D02*
X127776104Y-142267333D01*
X127776104Y-142267333D02*
X127918961Y-142314952D01*
X127918961Y-142314952D02*
X128014200Y-142410190D01*
X128014200Y-142410190D02*
X128061819Y-142553047D01*
X128061819Y-142553047D02*
X128061819Y-142648285D01*
X127061819Y-141314952D02*
X127061819Y-141791142D01*
X127061819Y-141791142D02*
X127538009Y-141838761D01*
X127538009Y-141838761D02*
X127490390Y-141791142D01*
X127490390Y-141791142D02*
X127442771Y-141695904D01*
X127442771Y-141695904D02*
X127442771Y-141457809D01*
X127442771Y-141457809D02*
X127490390Y-141362571D01*
X127490390Y-141362571D02*
X127538009Y-141314952D01*
X127538009Y-141314952D02*
X127633247Y-141267333D01*
X127633247Y-141267333D02*
X127871342Y-141267333D01*
X127871342Y-141267333D02*
X127966580Y-141314952D01*
X127966580Y-141314952D02*
X128014200Y-141362571D01*
X128014200Y-141362571D02*
X128061819Y-141457809D01*
X128061819Y-141457809D02*
X128061819Y-141695904D01*
X128061819Y-141695904D02*
X128014200Y-141791142D01*
X128014200Y-141791142D02*
X127966580Y-141838761D01*
X142663942Y-132712619D02*
X142330609Y-132236428D01*
X142092514Y-132712619D02*
X142092514Y-131712619D01*
X142092514Y-131712619D02*
X142473466Y-131712619D01*
X142473466Y-131712619D02*
X142568704Y-131760238D01*
X142568704Y-131760238D02*
X142616323Y-131807857D01*
X142616323Y-131807857D02*
X142663942Y-131903095D01*
X142663942Y-131903095D02*
X142663942Y-132045952D01*
X142663942Y-132045952D02*
X142616323Y-132141190D01*
X142616323Y-132141190D02*
X142568704Y-132188809D01*
X142568704Y-132188809D02*
X142473466Y-132236428D01*
X142473466Y-132236428D02*
X142092514Y-132236428D01*
X143616323Y-132712619D02*
X143044895Y-132712619D01*
X143330609Y-132712619D02*
X143330609Y-131712619D01*
X143330609Y-131712619D02*
X143235371Y-131855476D01*
X143235371Y-131855476D02*
X143140133Y-131950714D01*
X143140133Y-131950714D02*
X143044895Y-131998333D01*
X144473466Y-132045952D02*
X144473466Y-132712619D01*
X144235371Y-131665000D02*
X143997276Y-132379285D01*
X143997276Y-132379285D02*
X144616323Y-132379285D01*
D14*
%TO.C,R21*%
X118109276Y-101585500D02*
X118618724Y-101585500D01*
X118109276Y-102630500D02*
X118618724Y-102630500D01*
%TO.C,C3*%
X131845000Y-125670437D02*
X131845000Y-131426000D01*
X131845000Y-131426000D02*
X134195000Y-131426000D01*
X132909437Y-124606000D02*
X131845000Y-125670437D01*
X132909437Y-124606000D02*
X134195000Y-124606000D01*
X137102500Y-123578500D02*
X137102500Y-124366000D01*
X137496250Y-123972250D02*
X136708750Y-123972250D01*
X137600563Y-124606000D02*
X136315000Y-124606000D01*
X137600563Y-124606000D02*
X138665000Y-125670437D01*
X138665000Y-125670437D02*
X138665000Y-131426000D01*
X138665000Y-131426000D02*
X136315000Y-131426000D01*
%TO.C,R6*%
X83932500Y-142764742D02*
X83932500Y-143239258D01*
X84977500Y-142764742D02*
X84977500Y-143239258D01*
%TO.C,D2*%
X138262000Y-107736000D02*
X138262000Y-108236000D01*
X138262000Y-109436000D02*
X138262000Y-111036000D01*
X138262000Y-112736000D02*
X138262000Y-111936000D01*
X142662000Y-107736000D02*
X138262000Y-107736000D01*
X142662000Y-108536000D02*
X142662000Y-107736000D01*
X142662000Y-109436000D02*
X142662000Y-111036000D01*
X142662000Y-111936000D02*
X142662000Y-112736000D01*
X142662000Y-112736000D02*
X138262000Y-112736000D01*
X137562000Y-108236000D02*
X137322000Y-107906000D01*
X137802000Y-107906000D01*
X137562000Y-108236000D01*
G36*
X137562000Y-108236000D02*
G01*
X137322000Y-107906000D01*
X137802000Y-107906000D01*
X137562000Y-108236000D01*
G37*
%TO.C,C7*%
X101066220Y-135481600D02*
X101347380Y-135481600D01*
X101066220Y-136501600D02*
X101347380Y-136501600D01*
%TO.C,R3*%
X140732742Y-105776500D02*
X141207258Y-105776500D01*
X140732742Y-106821500D02*
X141207258Y-106821500D01*
%TO.C,R16*%
X113889058Y-127569700D02*
X113414542Y-127569700D01*
X113889058Y-128614700D02*
X113414542Y-128614700D01*
%TO.C,R28*%
X117899000Y-95885000D02*
X118009000Y-95885000D01*
X130259000Y-95885000D02*
X130149000Y-95885000D01*
X118009000Y-93515000D02*
X130149000Y-93515000D01*
X130149000Y-98255000D01*
X118009000Y-98255000D01*
X118009000Y-93515000D01*
%TO.C,R5*%
X96505500Y-142764742D02*
X96505500Y-143239258D01*
X97550500Y-142764742D02*
X97550500Y-143239258D01*
%TO.C,L1*%
X77099379Y-139850400D02*
X76773821Y-139850400D01*
X77099379Y-140870400D02*
X76773821Y-140870400D01*
%TO.C,R24*%
X129793276Y-98791500D02*
X130302724Y-98791500D01*
X129793276Y-99836500D02*
X130302724Y-99836500D01*
%TO.C,R20*%
X112030742Y-122667500D02*
X112505258Y-122667500D01*
X112030742Y-123712500D02*
X112505258Y-123712500D01*
%TO.C,R2*%
X140732742Y-103998500D02*
X141207258Y-103998500D01*
X140732742Y-105043500D02*
X141207258Y-105043500D01*
%TO.C,Q1*%
X134469000Y-92299000D02*
X139089000Y-92299000D01*
X134469000Y-102519000D02*
X134469000Y-92299000D01*
X137709000Y-92299000D02*
X137709000Y-102519000D01*
X139089000Y-92299000D02*
X139089000Y-102519000D01*
X139089000Y-95559000D02*
X137709000Y-95559000D01*
X139089000Y-99259000D02*
X137709000Y-99259000D01*
X139089000Y-102519000D02*
X134469000Y-102519000D01*
%TO.C,R15*%
X133620742Y-136383500D02*
X134095258Y-136383500D01*
X133620742Y-137428500D02*
X134095258Y-137428500D01*
%TO.C,R8*%
X98111542Y-128204700D02*
X98586058Y-128204700D01*
X98111542Y-129249700D02*
X98586058Y-129249700D01*
%TO.C,U6*%
X78426000Y-93412000D02*
X78426000Y-98612000D01*
X78426000Y-98612000D02*
X84896000Y-98612000D01*
X80661000Y-93412000D02*
X78426000Y-93412000D01*
X84896000Y-93412000D02*
X82661000Y-93412000D01*
X84896000Y-98612000D02*
X84896000Y-93412000D01*
X82661000Y-93412000D02*
G75*
G02*
X80661000Y-93412000I-1000000J0D01*
G01*
%TO.C,C15*%
X116272000Y-87804000D02*
X124012000Y-87804000D01*
X116272000Y-89190000D02*
X116272000Y-87804000D01*
X116272000Y-93044000D02*
X116272000Y-91658000D01*
X124012000Y-87804000D02*
X124012000Y-89190000D01*
X124012000Y-91658000D02*
X124012000Y-93044000D01*
X124012000Y-93044000D02*
X116272000Y-93044000D01*
%TO.C,C12*%
X110529980Y-131005500D02*
X110248820Y-131005500D01*
X110529980Y-132025500D02*
X110248820Y-132025500D01*
%TO.C,U2*%
X132528000Y-113727000D02*
X132528000Y-118927000D01*
X132528000Y-118927000D02*
X138998000Y-118927000D01*
X134763000Y-113727000D02*
X132528000Y-113727000D01*
X138998000Y-113727000D02*
X136763000Y-113727000D01*
X138998000Y-118927000D02*
X138998000Y-113727000D01*
X136763000Y-113727000D02*
G75*
G02*
X134763000Y-113727000I-1000000J0D01*
G01*
D13*
%TO.C,RV1*%
X145485600Y-98546200D02*
X145485600Y-94646200D01*
X157485600Y-94646200D02*
X145485600Y-94646200D01*
X157485600Y-98546200D02*
X145485600Y-98546200D01*
X157485600Y-98546200D02*
X157485600Y-94646200D01*
D14*
%TO.C,R10*%
X105444058Y-136967700D02*
X104969542Y-136967700D01*
X105444058Y-138012700D02*
X104969542Y-138012700D01*
%TO.C,D1*%
X87590600Y-111794400D02*
X87590600Y-113714400D01*
X87590600Y-113714400D02*
X90275600Y-113714400D01*
X90275600Y-111794400D02*
X87590600Y-111794400D01*
%TO.C,R12*%
X113712258Y-132669400D02*
X113237742Y-132669400D01*
X113712258Y-133714400D02*
X113237742Y-133714400D01*
%TO.C,C5*%
X75150000Y-135874800D02*
X75150000Y-137784800D01*
X75150000Y-137784800D02*
X79070000Y-137784800D01*
X79070000Y-135874800D02*
X75150000Y-135874800D01*
%TO.C,R13*%
X110613458Y-132644000D02*
X110138942Y-132644000D01*
X110613458Y-133689000D02*
X110138942Y-133689000D01*
%TO.C,R22*%
X74016324Y-90460300D02*
X73506876Y-90460300D01*
X74016324Y-91505300D02*
X73506876Y-91505300D01*
%TO.C,Q2*%
X84584000Y-84876200D02*
X86104000Y-84876200D01*
X84584000Y-84926200D02*
X84584000Y-84876200D01*
X84584000Y-86826200D02*
X84584000Y-86046200D01*
X84584000Y-87996200D02*
X84584000Y-87946200D01*
X86104000Y-84876200D02*
X86104000Y-85876200D01*
X86104000Y-86996200D02*
X86104000Y-87996200D01*
X86104000Y-87996200D02*
X84584000Y-87996200D01*
X84284000Y-86386200D02*
X83804000Y-86386200D01*
X84044000Y-86056200D01*
X84284000Y-86386200D01*
G36*
X84284000Y-86386200D02*
G01*
X83804000Y-86386200D01*
X84044000Y-86056200D01*
X84284000Y-86386200D01*
G37*
%TO.C,D6*%
X88266000Y-93264000D02*
X88266000Y-98774000D01*
X91566000Y-93264000D02*
X88266000Y-93264000D01*
X91566000Y-93264000D02*
X91566000Y-98774000D01*
%TO.C,R25*%
X141578876Y-99477300D02*
X142088324Y-99477300D01*
X141578876Y-100522300D02*
X142088324Y-100522300D01*
%TO.C,Q3*%
X84711000Y-101056000D02*
X86231000Y-101056000D01*
X84711000Y-101106000D02*
X84711000Y-101056000D01*
X84711000Y-103006000D02*
X84711000Y-102226000D01*
X84711000Y-104176000D02*
X84711000Y-104126000D01*
X86231000Y-101056000D02*
X86231000Y-102056000D01*
X86231000Y-103176000D02*
X86231000Y-104176000D01*
X86231000Y-104176000D02*
X84711000Y-104176000D01*
X84411000Y-102566000D02*
X83931000Y-102566000D01*
X84171000Y-102236000D01*
X84411000Y-102566000D01*
G36*
X84411000Y-102566000D02*
G01*
X83931000Y-102566000D01*
X84171000Y-102236000D01*
X84411000Y-102566000D01*
G37*
%TO.C,SW2*%
X98146000Y-123603000D02*
X98146000Y-124803000D01*
X98146000Y-126403000D02*
X98146000Y-127603000D01*
X98146000Y-127603000D02*
X104546000Y-127603000D01*
X104546000Y-123603000D02*
X98146000Y-123603000D01*
X104546000Y-124803000D02*
X104546000Y-123603000D01*
X104546000Y-127603000D02*
X104546000Y-126403000D01*
%TO.C,SW3*%
X137135000Y-134906000D02*
X137135000Y-136106000D01*
X137135000Y-137706000D02*
X137135000Y-138906000D01*
X137135000Y-138906000D02*
X143535000Y-138906000D01*
X143535000Y-134906000D02*
X137135000Y-134906000D01*
X143535000Y-136106000D02*
X143535000Y-134906000D01*
X143535000Y-138906000D02*
X143535000Y-137706000D01*
%TO.C,F2*%
X142371578Y-124639000D02*
X141854422Y-124639000D01*
X142371578Y-126059000D02*
X141854422Y-126059000D01*
%TO.C,R1*%
X89594458Y-110373900D02*
X89119942Y-110373900D01*
X89594458Y-111418900D02*
X89119942Y-111418900D01*
%TO.C,R7*%
X142637742Y-120889500D02*
X143112258Y-120889500D01*
X142637742Y-121934500D02*
X143112258Y-121934500D01*
%TO.C,U1*%
X67163000Y-115628000D02*
X73363000Y-115628000D01*
X67163000Y-134028000D02*
X67163000Y-115628000D01*
X67163000Y-134028000D02*
X73363000Y-134028000D01*
X92013000Y-134028000D02*
X93013000Y-134028000D01*
X93013000Y-115628000D02*
X92013000Y-115628000D01*
X93013000Y-115628000D02*
X93013000Y-117128000D01*
X93013000Y-134028000D02*
X93013000Y-132528000D01*
X74038000Y-134528000D02*
X73538000Y-134028000D01*
X74038000Y-134028000D01*
X74038000Y-134528000D01*
G36*
X74038000Y-134528000D02*
G01*
X73538000Y-134028000D01*
X74038000Y-134028000D01*
X74038000Y-134528000D01*
G37*
%TO.C,R4*%
X132985742Y-110983500D02*
X133460258Y-110983500D01*
X132985742Y-112028500D02*
X133460258Y-112028500D01*
%TO.C,R11*%
X127016742Y-118730500D02*
X127491258Y-118730500D01*
X127016742Y-119775500D02*
X127491258Y-119775500D01*
%TO.C,R17*%
X110600258Y-127599700D02*
X110125742Y-127599700D01*
X110600258Y-128644700D02*
X110125742Y-128644700D01*
%TO.C,C11*%
X156303000Y-136459000D02*
X156303000Y-138369000D01*
X156303000Y-138369000D02*
X160223000Y-138369000D01*
X160223000Y-136459000D02*
X156303000Y-136459000D01*
%TO.C,C14*%
X116249400Y-125594237D02*
X116249400Y-131349800D01*
X116249400Y-131349800D02*
X118599400Y-131349800D01*
X117313837Y-124529800D02*
X116249400Y-125594237D01*
X117313837Y-124529800D02*
X118599400Y-124529800D01*
X121506900Y-123502300D02*
X121506900Y-124289800D01*
X121900650Y-123896050D02*
X121113150Y-123896050D01*
X122004963Y-124529800D02*
X120719400Y-124529800D01*
X122004963Y-124529800D02*
X123069400Y-125594237D01*
X123069400Y-125594237D02*
X123069400Y-131349800D01*
X123069400Y-131349800D02*
X120719400Y-131349800D01*
D12*
%TO.C,PS1*%
X146591000Y-100888000D02*
X146591000Y-134888000D01*
X146591000Y-134888000D02*
X166591000Y-134888000D01*
X166591000Y-100888000D02*
X146591000Y-100888000D01*
X166591000Y-134888000D02*
X166591000Y-100888000D01*
D15*
X159391000Y-99437800D02*
G75*
G02*
X159191000Y-99437800I-100000J0D01*
G01*
X159191000Y-99437800D02*
G75*
G02*
X159391000Y-99437800I100000J0D01*
G01*
D14*
%TO.C,R9*%
X101444058Y-136993100D02*
X100969542Y-136993100D01*
X101444058Y-138038100D02*
X100969542Y-138038100D01*
%TO.C,F1*%
X159706000Y-77472000D02*
X160706000Y-77472000D01*
X159706000Y-81472000D02*
X159706000Y-77472000D01*
X159706000Y-81472000D02*
X160706000Y-81472000D01*
X159706000Y-92772000D02*
X159706000Y-96772000D01*
X159706000Y-92772000D02*
X161106000Y-92772000D01*
X159806000Y-92772000D02*
X159806000Y-81472000D01*
X161106000Y-96772000D02*
X159706000Y-96772000D01*
X163506000Y-96772000D02*
X164906000Y-96772000D01*
X164806000Y-92772000D02*
X164806000Y-81472000D01*
X164906000Y-77472000D02*
X163906000Y-77472000D01*
X164906000Y-81472000D02*
X163906000Y-81472000D01*
X164906000Y-81472000D02*
X164906000Y-77472000D01*
X164906000Y-92772000D02*
X163506000Y-92772000D01*
X164906000Y-96772000D02*
X164906000Y-92772000D01*
%TO.C,J1*%
X86008000Y-141505000D02*
X86008000Y-139805000D01*
X95348000Y-141505000D02*
X95348000Y-139805000D01*
%TO.C,U3*%
X119798000Y-116947000D02*
X123918000Y-116947000D01*
X119798000Y-117042000D02*
X119798000Y-116947000D01*
X119798000Y-122067000D02*
X119798000Y-121972000D01*
X123918000Y-116947000D02*
X123918000Y-117042000D01*
X123918000Y-121972000D02*
X123918000Y-122067000D01*
X123918000Y-122067000D02*
X119798000Y-122067000D01*
X119258000Y-117037000D02*
X119018000Y-116707000D01*
X119498000Y-116707000D01*
X119258000Y-117037000D01*
G36*
X119258000Y-117037000D02*
G01*
X119018000Y-116707000D01*
X119498000Y-116707000D01*
X119258000Y-117037000D01*
G37*
%TO.C,C1*%
X145480600Y-87829400D02*
X156220600Y-87829400D01*
X145480600Y-93069400D02*
X145480600Y-87829400D01*
X156220600Y-87829400D02*
X156220600Y-93069400D01*
X156220600Y-93069400D02*
X145480600Y-93069400D01*
%TO.C,C2*%
X98157420Y-118870000D02*
X98438580Y-118870000D01*
X98157420Y-119890000D02*
X98438580Y-119890000D01*
%TO.C,C9*%
X115583580Y-119632000D02*
X115302420Y-119632000D01*
X115583580Y-120652000D02*
X115302420Y-120652000D01*
%TO.C,R23*%
X74041724Y-94219500D02*
X73532276Y-94219500D01*
X74041724Y-95264500D02*
X73532276Y-95264500D01*
%TO.C,J4*%
X99666200Y-139749000D02*
X99666200Y-140999000D01*
X99966200Y-141359000D02*
X100576200Y-141359000D01*
X99966200Y-142659000D02*
X100576200Y-142659000D01*
X100576200Y-140659000D02*
X100576200Y-144159000D01*
X100576200Y-144159000D02*
X109476200Y-144159000D01*
X100916200Y-139749000D02*
X99666200Y-139749000D01*
X101426200Y-139849000D02*
X101426200Y-140049000D01*
X101726200Y-139849000D02*
X101426200Y-139849000D01*
X101726200Y-139949000D02*
X101426200Y-139949000D01*
X101726200Y-140049000D02*
X101726200Y-139849000D01*
X102526200Y-140049000D02*
X102526200Y-140659000D01*
X102526200Y-140659000D02*
X100576200Y-140659000D01*
X102926200Y-143659000D02*
X103126200Y-143659000D01*
X102926200Y-144159000D02*
X102926200Y-143659000D01*
X103026200Y-144159000D02*
X103026200Y-143659000D01*
X103126200Y-143659000D02*
X103126200Y-144159000D01*
X104926200Y-143659000D02*
X105126200Y-143659000D01*
X104926200Y-144159000D02*
X104926200Y-143659000D01*
X105026200Y-144159000D02*
X105026200Y-143659000D01*
X105126200Y-143659000D02*
X105126200Y-144159000D01*
X106926200Y-143659000D02*
X107126200Y-143659000D01*
X106926200Y-144159000D02*
X106926200Y-143659000D01*
X107026200Y-144159000D02*
X107026200Y-143659000D01*
X107126200Y-143659000D02*
X107126200Y-144159000D01*
X107526200Y-140659000D02*
X107526200Y-140049000D01*
X109476200Y-140659000D02*
X107526200Y-140659000D01*
X109476200Y-144159000D02*
X109476200Y-140659000D01*
X110086200Y-141359000D02*
X109476200Y-141359000D01*
X110086200Y-142659000D02*
X109476200Y-142659000D01*
X99966200Y-140049000D02*
X110086200Y-140049000D01*
X110086200Y-144769000D01*
X99966200Y-144769000D01*
X99966200Y-140049000D01*
%TO.C,J6*%
X143146000Y-140733000D02*
X143146000Y-143493000D01*
X158496000Y-140733000D02*
X143146000Y-140733000D01*
X158496000Y-140733000D02*
X158496000Y-143493000D01*
X158496000Y-143493000D02*
X143146000Y-143493000D01*
X159766000Y-140733000D02*
X161146000Y-140733000D01*
X161146000Y-140733000D02*
X161146000Y-142113000D01*
%TO.C,K1*%
X92081000Y-76909000D02*
X92081000Y-83509000D01*
X92081000Y-76909000D02*
X111881000Y-76909000D01*
X92081000Y-85909000D02*
X92081000Y-92509000D01*
X96131000Y-84759000D02*
X95331000Y-84759000D01*
X96131000Y-84759000D02*
X96131000Y-88359000D01*
X97031000Y-90759000D02*
X99531000Y-90759000D01*
X97531000Y-82959000D02*
X101531000Y-82959000D01*
X97531000Y-86559000D02*
X97531000Y-82959000D01*
X99531000Y-78759000D02*
X97031000Y-78759000D01*
X99531000Y-78759000D02*
X99531000Y-82959000D01*
X99531000Y-86559000D02*
X99531000Y-90759000D01*
X101531000Y-82959000D02*
X101531000Y-86559000D01*
X101531000Y-86559000D02*
X97531000Y-82959000D01*
X101531000Y-86559000D02*
X97531000Y-86559000D01*
X102931000Y-84759000D02*
X102931000Y-88359000D01*
X102931000Y-84759000D02*
X104431000Y-84759000D01*
X102931000Y-88359000D02*
X96131000Y-88359000D01*
X104431000Y-84759000D02*
X109031000Y-82259000D01*
X107631000Y-80509000D02*
X107631000Y-83009000D01*
X107631000Y-88909000D02*
X107631000Y-86459000D01*
X111881000Y-76909000D02*
X111881000Y-92509000D01*
X111881000Y-92509000D02*
X92081000Y-92509000D01*
%TO.C,C10*%
X105066220Y-135456200D02*
X105347380Y-135456200D01*
X105066220Y-136476200D02*
X105347380Y-136476200D01*
%TO.C,R18*%
X115680258Y-122667500D02*
X115205742Y-122667500D01*
X115680258Y-123712500D02*
X115205742Y-123712500D01*
%TO.C,C4*%
X76795920Y-138250200D02*
X77077080Y-138250200D01*
X76795920Y-139270200D02*
X77077080Y-139270200D01*
%TO.C,D3*%
X138094500Y-132771000D02*
X138094500Y-134691000D01*
X138094500Y-134691000D02*
X140779500Y-134691000D01*
X140779500Y-132771000D02*
X138094500Y-132771000D01*
%TO.C,K2*%
X92081000Y-92911000D02*
X92081000Y-99511000D01*
X92081000Y-92911000D02*
X111881000Y-92911000D01*
X92081000Y-101911000D02*
X92081000Y-108511000D01*
X96131000Y-100761000D02*
X95331000Y-100761000D01*
X96131000Y-100761000D02*
X96131000Y-104361000D01*
X97031000Y-106761000D02*
X99531000Y-106761000D01*
X97531000Y-98961000D02*
X101531000Y-98961000D01*
X97531000Y-102561000D02*
X97531000Y-98961000D01*
X99531000Y-94761000D02*
X97031000Y-94761000D01*
X99531000Y-94761000D02*
X99531000Y-98961000D01*
X99531000Y-102561000D02*
X99531000Y-106761000D01*
X101531000Y-98961000D02*
X101531000Y-102561000D01*
X101531000Y-102561000D02*
X97531000Y-98961000D01*
X101531000Y-102561000D02*
X97531000Y-102561000D01*
X102931000Y-100761000D02*
X102931000Y-104361000D01*
X102931000Y-100761000D02*
X104431000Y-100761000D01*
X102931000Y-104361000D02*
X96131000Y-104361000D01*
X104431000Y-100761000D02*
X109031000Y-98261000D01*
X107631000Y-96511000D02*
X107631000Y-99011000D01*
X107631000Y-104911000D02*
X107631000Y-102461000D01*
X111881000Y-92911000D02*
X111881000Y-108511000D01*
X111881000Y-108511000D02*
X92081000Y-108511000D01*
%TO.C,D5*%
X88266000Y-77135000D02*
X88266000Y-82645000D01*
X91566000Y-77135000D02*
X88266000Y-77135000D01*
X91566000Y-77135000D02*
X91566000Y-82645000D01*
%TO.C,C13*%
X110503580Y-125935800D02*
X110222420Y-125935800D01*
X110503580Y-126955800D02*
X110222420Y-126955800D01*
%TO.C,U5*%
X78299000Y-77283000D02*
X78299000Y-82483000D01*
X78299000Y-82483000D02*
X84769000Y-82483000D01*
X80534000Y-77283000D02*
X78299000Y-77283000D01*
X84769000Y-77283000D02*
X82534000Y-77283000D01*
X84769000Y-82483000D02*
X84769000Y-77283000D01*
X82534000Y-77283000D02*
G75*
G02*
X80534000Y-77283000I-1000000J0D01*
G01*
%TO.C,SW1*%
X98273000Y-114052600D02*
X98273000Y-115252600D01*
X98273000Y-116852600D02*
X98273000Y-118052600D01*
X98273000Y-118052600D02*
X104673000Y-118052600D01*
X104673000Y-114052600D02*
X98273000Y-114052600D01*
X104673000Y-115252600D02*
X104673000Y-114052600D01*
X104673000Y-118052600D02*
X104673000Y-116852600D01*
%TO.C,R26*%
X85598724Y-83043500D02*
X85089276Y-83043500D01*
X85598724Y-84088500D02*
X85089276Y-84088500D01*
%TO.C,U4*%
X123099000Y-100778000D02*
X123099000Y-108518000D01*
X123099000Y-108518000D02*
X127599000Y-108518000D01*
X124349000Y-100778000D02*
X123099000Y-100778000D01*
X127599000Y-100778000D02*
X126349000Y-100778000D01*
X127599000Y-108518000D02*
X127599000Y-100778000D01*
X126349000Y-100778000D02*
G75*
G02*
X124349000Y-100778000I-1000000J0D01*
G01*
%TO.C,C8*%
X123971000Y-125670437D02*
X123971000Y-131426000D01*
X123971000Y-131426000D02*
X126321000Y-131426000D01*
X125035437Y-124606000D02*
X123971000Y-125670437D01*
X125035437Y-124606000D02*
X126321000Y-124606000D01*
X129228500Y-123578500D02*
X129228500Y-124366000D01*
X129622250Y-123972250D02*
X128834750Y-123972250D01*
X129726563Y-124606000D02*
X128441000Y-124606000D01*
X129726563Y-124606000D02*
X130791000Y-125670437D01*
X130791000Y-125670437D02*
X130791000Y-131426000D01*
X130791000Y-131426000D02*
X128441000Y-131426000D01*
%TO.C,R19*%
X115205742Y-121143500D02*
X115680258Y-121143500D01*
X115205742Y-122188500D02*
X115680258Y-122188500D01*
%TO.C,L2*%
X118331000Y-109366000D02*
X125001000Y-109366000D01*
X118331000Y-110766000D02*
X118331000Y-109366000D01*
X118331000Y-116186000D02*
X118331000Y-114786000D01*
X125001000Y-109366000D02*
X125001000Y-110766000D01*
X125001000Y-114786000D02*
X125001000Y-116186000D01*
X125001000Y-116186000D02*
X118331000Y-116186000D01*
%TO.C,C6*%
X101256220Y-128217200D02*
X101537380Y-128217200D01*
X101256220Y-129237200D02*
X101537380Y-129237200D01*
%TO.C,D4*%
X116794000Y-115825000D02*
X111284000Y-115825000D01*
X116794000Y-119125000D02*
X111284000Y-119125000D01*
X116794000Y-119125000D02*
X116794000Y-115825000D01*
%TO.C,R27*%
X85725724Y-99172500D02*
X85216276Y-99172500D01*
X85725724Y-100217500D02*
X85216276Y-100217500D01*
%TO.C,J2*%
X119747000Y-75582000D02*
X152067000Y-75582000D01*
X119747000Y-83622000D02*
X119747000Y-75582000D01*
X120555000Y-79002000D02*
X119747000Y-79002000D01*
X120555000Y-80002000D02*
X119747000Y-80002000D01*
X121824000Y-77702000D02*
X119747000Y-77702000D01*
X125555000Y-79002000D02*
X124179000Y-79002000D01*
X125555000Y-80002000D02*
X124179000Y-80002000D01*
X126824000Y-77702000D02*
X122910000Y-77702000D01*
X130555000Y-79002000D02*
X129179000Y-79002000D01*
X130555000Y-80002000D02*
X129179000Y-80002000D01*
X131824000Y-77702000D02*
X127910000Y-77702000D01*
X135555000Y-79002000D02*
X134179000Y-79002000D01*
X135555000Y-80002000D02*
X134179000Y-80002000D01*
X136824000Y-77702000D02*
X132910000Y-77702000D01*
X140555000Y-79002000D02*
X139179000Y-79002000D01*
X140555000Y-80002000D02*
X139179000Y-80002000D01*
X141824000Y-77702000D02*
X137910000Y-77702000D01*
X145555000Y-79002000D02*
X144179000Y-79002000D01*
X145555000Y-80002000D02*
X144179000Y-80002000D01*
X146824000Y-77702000D02*
X142910000Y-77702000D01*
X150487000Y-77702000D02*
X147910000Y-77702000D01*
X150487000Y-79002000D02*
X149179000Y-79002000D01*
X150487000Y-80002000D02*
X149179000Y-80002000D01*
X152667000Y-75582000D02*
X155487000Y-75582000D01*
X155487000Y-75582000D02*
X155487000Y-83622000D01*
X155487000Y-77702000D02*
X154247000Y-77702000D01*
X155487000Y-79002000D02*
X154247000Y-79002000D01*
X155487000Y-80002000D02*
X154247000Y-80002000D01*
X155487000Y-83622000D02*
X119747000Y-83622000D01*
X152367000Y-75582000D02*
X151927000Y-74972000D01*
X152807000Y-74972000D01*
X152367000Y-75582000D01*
G36*
X152367000Y-75582000D02*
G01*
X151927000Y-74972000D01*
X152807000Y-74972000D01*
X152367000Y-75582000D01*
G37*
%TO.C,J3*%
X73428000Y-108253000D02*
X73428000Y-109503000D01*
X73728000Y-109863000D02*
X74338000Y-109863000D01*
X73728000Y-111163000D02*
X74338000Y-111163000D01*
X74338000Y-109163000D02*
X74338000Y-112663000D01*
X74338000Y-112663000D02*
X83238000Y-112663000D01*
X74678000Y-108253000D02*
X73428000Y-108253000D01*
X75188000Y-108353000D02*
X75188000Y-108553000D01*
X75488000Y-108353000D02*
X75188000Y-108353000D01*
X75488000Y-108453000D02*
X75188000Y-108453000D01*
X75488000Y-108553000D02*
X75488000Y-108353000D01*
X76288000Y-108553000D02*
X76288000Y-109163000D01*
X76288000Y-109163000D02*
X74338000Y-109163000D01*
X76688000Y-112163000D02*
X76888000Y-112163000D01*
X76688000Y-112663000D02*
X76688000Y-112163000D01*
X76788000Y-112663000D02*
X76788000Y-112163000D01*
X76888000Y-112163000D02*
X76888000Y-112663000D01*
X78688000Y-112163000D02*
X78888000Y-112163000D01*
X78688000Y-112663000D02*
X78688000Y-112163000D01*
X78788000Y-112663000D02*
X78788000Y-112163000D01*
X78888000Y-112163000D02*
X78888000Y-112663000D01*
X80688000Y-112163000D02*
X80888000Y-112163000D01*
X80688000Y-112663000D02*
X80688000Y-112163000D01*
X80788000Y-112663000D02*
X80788000Y-112163000D01*
X80888000Y-112163000D02*
X80888000Y-112663000D01*
X81288000Y-109163000D02*
X81288000Y-108553000D01*
X83238000Y-109163000D02*
X81288000Y-109163000D01*
X83238000Y-112663000D02*
X83238000Y-109163000D01*
X83848000Y-109863000D02*
X83238000Y-109863000D01*
X83848000Y-111163000D02*
X83238000Y-111163000D01*
X73728000Y-108553000D02*
X83848000Y-108553000D01*
X83848000Y-113273000D01*
X73728000Y-113273000D01*
X73728000Y-108553000D01*
%TO.C,J5*%
X115678000Y-139879000D02*
X115678000Y-143879000D01*
X116548000Y-138849000D02*
X116548000Y-139449000D01*
X116548000Y-139449000D02*
X118148000Y-139449000D01*
X117348000Y-143869000D02*
X117598000Y-143339000D01*
X117348000Y-143869000D02*
X124968000Y-143869000D01*
X117348000Y-144869000D02*
X117348000Y-143869000D01*
X117598000Y-143339000D02*
X124718000Y-143339000D01*
X117598000Y-144869000D02*
X117598000Y-143869000D01*
X118148000Y-139449000D02*
X118148000Y-138849000D01*
X119088000Y-138849000D02*
X119088000Y-139449000D01*
X119088000Y-139449000D02*
X120688000Y-139449000D01*
X120688000Y-139449000D02*
X120688000Y-138849000D01*
X121628000Y-138849000D02*
X121628000Y-139449000D01*
X121628000Y-139449000D02*
X123228000Y-139449000D01*
X123228000Y-139449000D02*
X123228000Y-138849000D01*
X124168000Y-138849000D02*
X124168000Y-139449000D01*
X124168000Y-139449000D02*
X125768000Y-139449000D01*
X124718000Y-143339000D02*
X124968000Y-143869000D01*
X124718000Y-144869000D02*
X124718000Y-143869000D01*
X124968000Y-143869000D02*
X124968000Y-144869000D01*
X125768000Y-139449000D02*
X125768000Y-138849000D01*
X115968000Y-138849000D02*
X126348000Y-138849000D01*
X126348000Y-144869000D01*
X115968000Y-144869000D01*
X115968000Y-138849000D01*
%TO.C,R14*%
X143082742Y-133208500D02*
X143557258Y-133208500D01*
X143082742Y-134253500D02*
X143557258Y-134253500D01*
%TD*%
%LPC*%
D16*
%TO.C,R21*%
X117451500Y-102108000D03*
X119276500Y-102108000D03*
%TD*%
D17*
%TO.C,C3*%
X135255000Y-125316000D03*
X135255000Y-130716000D03*
%TD*%
D18*
%TO.C,R6*%
X84455000Y-142177000D03*
X84455000Y-143827000D03*
%TD*%
D19*
%TO.C,D2*%
X137387000Y-108966000D03*
X137387000Y-111506000D03*
X143537000Y-111506000D03*
X143537000Y-108966000D03*
%TD*%
D20*
%TO.C,C7*%
X100431800Y-135991600D03*
X101981800Y-135991600D03*
%TD*%
D21*
%TO.C,R3*%
X140145000Y-106299000D03*
X141795000Y-106299000D03*
%TD*%
D22*
%TO.C,R16*%
X114476800Y-128092200D03*
X112826800Y-128092200D03*
%TD*%
D23*
%TO.C,R28*%
X116459000Y-95885000D03*
X131699000Y-95885000D03*
%TD*%
D18*
%TO.C,R5*%
X97028000Y-142177000D03*
X97028000Y-143827000D03*
%TD*%
D24*
%TO.C,L1*%
X77724100Y-140360400D03*
X76149100Y-140360400D03*
%TD*%
D16*
%TO.C,R24*%
X129135500Y-99314000D03*
X130960500Y-99314000D03*
%TD*%
D21*
%TO.C,R20*%
X111443000Y-123190000D03*
X113093000Y-123190000D03*
%TD*%
%TO.C,R2*%
X140145000Y-104521000D03*
X141795000Y-104521000D03*
%TD*%
D25*
%TO.C,Q1*%
X135829000Y-94869000D03*
D26*
X135829000Y-97409000D03*
X135829000Y-99949000D03*
%TD*%
D21*
%TO.C,R15*%
X133033000Y-136906000D03*
X134683000Y-136906000D03*
%TD*%
%TO.C,R8*%
X97523800Y-128727200D03*
X99173800Y-128727200D03*
%TD*%
D27*
%TO.C,U6*%
X76896000Y-94742000D03*
X76896000Y-97282000D03*
X86426000Y-97282000D03*
X86426000Y-94742000D03*
%TD*%
D28*
%TO.C,C15*%
X116392000Y-90424000D03*
X123892000Y-90424000D03*
%TD*%
D29*
%TO.C,C12*%
X111164400Y-131515500D03*
X109614400Y-131515500D03*
%TD*%
D27*
%TO.C,U2*%
X130998000Y-115057000D03*
X130998000Y-117597000D03*
X140528000Y-117597000D03*
X140528000Y-115057000D03*
%TD*%
D30*
%TO.C,RV1*%
X155235600Y-97296200D03*
X147735600Y-95896200D03*
%TD*%
D22*
%TO.C,R10*%
X106031800Y-137490200D03*
X104381800Y-137490200D03*
%TD*%
D31*
%TO.C,D1*%
X88338100Y-112754400D03*
X90213100Y-112754400D03*
%TD*%
D22*
%TO.C,R12*%
X114300000Y-133191900D03*
X112650000Y-133191900D03*
%TD*%
D32*
%TO.C,C5*%
X76117500Y-136829800D03*
X78822500Y-136829800D03*
%TD*%
D22*
%TO.C,R13*%
X111201200Y-133166500D03*
X109551200Y-133166500D03*
%TD*%
D33*
%TO.C,R22*%
X74674100Y-90982800D03*
X72849100Y-90982800D03*
%TD*%
D34*
%TO.C,Q2*%
X84406500Y-85486200D03*
X84406500Y-87386200D03*
X86281500Y-86436200D03*
%TD*%
D35*
%TO.C,D6*%
X89916000Y-94774000D03*
X89916000Y-98774000D03*
%TD*%
D16*
%TO.C,R25*%
X140921100Y-99999800D03*
X142746100Y-99999800D03*
%TD*%
D34*
%TO.C,Q3*%
X84533500Y-101666000D03*
X84533500Y-103566000D03*
X86408500Y-102616000D03*
%TD*%
D36*
%TO.C,SW2*%
X97471000Y-125603000D03*
X105221000Y-125603000D03*
%TD*%
%TO.C,SW3*%
X136460000Y-136906000D03*
X144210000Y-136906000D03*
%TD*%
D37*
%TO.C,F2*%
X143050500Y-125349000D03*
X141175500Y-125349000D03*
%TD*%
D22*
%TO.C,R1*%
X90182200Y-110896400D03*
X88532200Y-110896400D03*
%TD*%
D21*
%TO.C,R7*%
X142050000Y-121412000D03*
X143700000Y-121412000D03*
%TD*%
D38*
%TO.C,U1*%
X74803000Y-133578000D03*
X76073000Y-133578000D03*
X77343000Y-133578000D03*
X78613000Y-133578000D03*
X79883000Y-133578000D03*
X81153000Y-133578000D03*
X82423000Y-133578000D03*
X83693000Y-133578000D03*
X84963000Y-133578000D03*
X86233000Y-133578000D03*
X87503000Y-133578000D03*
X88773000Y-133578000D03*
X90043000Y-133578000D03*
X91313000Y-133578000D03*
D39*
X92563000Y-131813000D03*
X92563000Y-130543000D03*
X92563000Y-129273000D03*
X92563000Y-128003000D03*
X92563000Y-126733000D03*
X92563000Y-125463000D03*
X92563000Y-124193000D03*
X92563000Y-122923000D03*
X92563000Y-121653000D03*
X92563000Y-120383000D03*
X92563000Y-119113000D03*
X92563000Y-117843000D03*
D38*
X91313000Y-116078000D03*
X90043000Y-116078000D03*
X88773000Y-116078000D03*
X87503000Y-116078000D03*
X86233000Y-116078000D03*
X84963000Y-116078000D03*
X83693000Y-116078000D03*
X82423000Y-116078000D03*
X81153000Y-116078000D03*
X79883000Y-116078000D03*
X78613000Y-116078000D03*
X77343000Y-116078000D03*
X76073000Y-116078000D03*
X74803000Y-116078000D03*
D40*
X81823000Y-127728000D03*
X83223000Y-127728000D03*
X81123000Y-127028000D03*
X82523000Y-127028000D03*
X83923000Y-127028000D03*
X81823000Y-126328000D03*
D41*
X82523000Y-126328000D03*
D40*
X83223000Y-126328000D03*
X81123000Y-125628000D03*
X82523000Y-125628000D03*
X83923000Y-125628000D03*
X81823000Y-124928000D03*
X83223000Y-124928000D03*
%TD*%
D21*
%TO.C,R4*%
X132398000Y-111506000D03*
X134048000Y-111506000D03*
%TD*%
%TO.C,R11*%
X126429000Y-119253000D03*
X128079000Y-119253000D03*
%TD*%
D22*
%TO.C,R17*%
X111188000Y-128122200D03*
X109538000Y-128122200D03*
%TD*%
D32*
%TO.C,C11*%
X157270500Y-137414000D03*
X159975500Y-137414000D03*
%TD*%
D17*
%TO.C,C14*%
X119659400Y-125239800D03*
X119659400Y-130639800D03*
%TD*%
D42*
%TO.C,PS1*%
X159091000Y-103188000D03*
D43*
X154091000Y-103188000D03*
X164291000Y-132588000D03*
X148891000Y-132588000D03*
%TD*%
D22*
%TO.C,R9*%
X102031800Y-137515600D03*
X100381800Y-137515600D03*
%TD*%
D44*
%TO.C,F1*%
X162306000Y-76872000D03*
X162306000Y-82072000D03*
D45*
X162306000Y-92172000D03*
X162306000Y-97372000D03*
%TD*%
D46*
%TO.C,J1*%
X87788000Y-139000000D03*
X93568000Y-139000000D03*
D47*
X87478000Y-137925000D03*
X88278000Y-137925000D03*
D48*
X89428000Y-137925000D03*
X90428000Y-137925000D03*
X90928000Y-137925000D03*
X91928000Y-137925000D03*
D47*
X93078000Y-137925000D03*
X93878000Y-137925000D03*
X93878000Y-137925000D03*
X93078000Y-137925000D03*
D48*
X92428000Y-137925000D03*
X91428000Y-137925000D03*
X89928000Y-137925000D03*
X88928000Y-137925000D03*
D47*
X88278000Y-137925000D03*
X87478000Y-137925000D03*
D49*
X86358000Y-138500000D03*
D50*
X86358000Y-142680000D03*
D49*
X94998000Y-138500000D03*
D50*
X94998000Y-142680000D03*
%TD*%
D51*
%TO.C,U3*%
X119383000Y-117602000D03*
X119383000Y-118872000D03*
X119383000Y-120142000D03*
X119383000Y-121412000D03*
X124333000Y-121412000D03*
X124333000Y-120142000D03*
X124333000Y-118872000D03*
X124333000Y-117602000D03*
%TD*%
D28*
%TO.C,C1*%
X154600600Y-90449400D03*
X147100600Y-90449400D03*
%TD*%
D20*
%TO.C,C2*%
X97523000Y-119380000D03*
X99073000Y-119380000D03*
%TD*%
D29*
%TO.C,C9*%
X116218000Y-120142000D03*
X114668000Y-120142000D03*
%TD*%
D33*
%TO.C,R23*%
X74699500Y-94742000D03*
X72874500Y-94742000D03*
%TD*%
D52*
%TO.C,J4*%
X102026200Y-141859000D03*
D53*
X104026200Y-141859000D03*
X106026200Y-141859000D03*
X108026200Y-141859000D03*
%TD*%
D54*
%TO.C,J6*%
X159766000Y-142113000D03*
D55*
X157226000Y-142113000D03*
X154686000Y-142113000D03*
X152146000Y-142113000D03*
X149606000Y-142113000D03*
X147066000Y-142113000D03*
X144526000Y-142113000D03*
%TD*%
D56*
%TO.C,K1*%
X93481000Y-84709000D03*
D57*
X95431000Y-90759000D03*
D56*
X107631000Y-90759000D03*
X107681000Y-78709000D03*
D57*
X95431000Y-78759000D03*
%TD*%
D20*
%TO.C,C10*%
X104431800Y-135966200D03*
X105981800Y-135966200D03*
%TD*%
D22*
%TO.C,R18*%
X116268000Y-123190000D03*
X114618000Y-123190000D03*
%TD*%
D20*
%TO.C,C4*%
X76161500Y-138760200D03*
X77711500Y-138760200D03*
%TD*%
D31*
%TO.C,D3*%
X138842000Y-133731000D03*
X140717000Y-133731000D03*
%TD*%
D56*
%TO.C,K2*%
X93481000Y-100711000D03*
D57*
X95431000Y-106761000D03*
D56*
X107631000Y-106761000D03*
X107681000Y-94711000D03*
D57*
X95431000Y-94761000D03*
%TD*%
D35*
%TO.C,D5*%
X89916000Y-78645000D03*
X89916000Y-82645000D03*
%TD*%
D29*
%TO.C,C13*%
X111138000Y-126445800D03*
X109588000Y-126445800D03*
%TD*%
D27*
%TO.C,U5*%
X76769000Y-78613000D03*
X76769000Y-81153000D03*
X86299000Y-81153000D03*
X86299000Y-78613000D03*
%TD*%
D36*
%TO.C,SW1*%
X97598000Y-116052600D03*
X105348000Y-116052600D03*
%TD*%
D33*
%TO.C,R26*%
X86256500Y-83566000D03*
X84431500Y-83566000D03*
%TD*%
D58*
%TO.C,U4*%
X121539000Y-102108000D03*
D59*
X121539000Y-104648000D03*
X121539000Y-107188000D03*
X129159000Y-107188000D03*
X129159000Y-104648000D03*
X129159000Y-102108000D03*
%TD*%
D17*
%TO.C,C8*%
X127381000Y-125316000D03*
X127381000Y-130716000D03*
%TD*%
D21*
%TO.C,R19*%
X114618000Y-121666000D03*
X116268000Y-121666000D03*
%TD*%
D60*
%TO.C,L2*%
X118641000Y-112776000D03*
X124691000Y-112776000D03*
%TD*%
D20*
%TO.C,C6*%
X100621800Y-128727200D03*
X102171800Y-128727200D03*
%TD*%
D61*
%TO.C,D4*%
X115284000Y-117475000D03*
X111284000Y-117475000D03*
%TD*%
D33*
%TO.C,R27*%
X86383500Y-99695000D03*
X84558500Y-99695000D03*
%TD*%
D62*
%TO.C,J2*%
X152367000Y-79502000D03*
D63*
X147367000Y-79502000D03*
X142367000Y-79502000D03*
X137367000Y-79502000D03*
X132367000Y-79502000D03*
X127367000Y-79502000D03*
X122367000Y-79502000D03*
%TD*%
D52*
%TO.C,J3*%
X75788000Y-110363000D03*
D53*
X77788000Y-110363000D03*
X79788000Y-110363000D03*
X81788000Y-110363000D03*
%TD*%
D64*
%TO.C,J5*%
X117348000Y-141879000D03*
D65*
X119888000Y-141879000D03*
X122428000Y-141879000D03*
X124968000Y-141879000D03*
%TD*%
D21*
%TO.C,R14*%
X142495000Y-133731000D03*
X144145000Y-133731000D03*
%TD*%
%LPD*%
M02*
